<mxfile host="app.diagrams.net" modified="2020-09-28T06:18:43.818Z" agent="5.0 (Windows NT 10.0; WOW64) AppleWebKit/537.36 (KHTML, like Gecko) Chrome/85.0.4183.121 Safari/537.36" etag="z2_1IGo_6DCV13Wg-l7E" version="13.6.6" type="github">
  <diagram name="Page-1" id="03018318-947c-dd8e-b7a3-06fadd420f32">
    <mxGraphModel dx="1102" dy="614" grid="1" gridSize="10" guides="1" tooltips="1" connect="1" arrows="1" fold="1" page="1" pageScale="1" pageWidth="1100" pageHeight="850" background="#ffffff" math="0" shadow="0">
      <root>
        <mxCell id="0" />
        <mxCell id="1" parent="0" />
        <mxCell id="677b7b8949515195-1" value="" style="whiteSpace=wrap;html=1;rounded=0;shadow=0;labelBackgroundColor=none;strokeColor=#000000;strokeWidth=1;fillColor=none;fontFamily=Verdana;fontSize=12;fontColor=#000000;align=center;comic=1;" parent="1" vertex="1">
          <mxGeometry x="20" y="10" width="1060" height="692" as="geometry" />
        </mxCell>
        <mxCell id="677b7b8949515195-2" value="一体化作战平台" style="whiteSpace=wrap;html=1;rounded=0;shadow=0;labelBackgroundColor=none;strokeWidth=1;fontFamily=Verdana;fontSize=28;align=center;comic=1;" parent="1" vertex="1">
          <mxGeometry x="30" y="30" width="220" height="50" as="geometry" />
        </mxCell>
        <mxCell id="677b7b8949515195-3" value="全域搜索" style="strokeWidth=1;shadow=0;dashed=0;align=center;html=1;shape=mxgraph.mockup.forms.searchBox;strokeColor=#999999;mainText=;strokeColor2=#008cff;fontColor=#666666;fontSize=17;align=left;spacingLeft=3;rounded=0;labelBackgroundColor=none;comic=1;" parent="1" vertex="1">
          <mxGeometry x="840" y="80" width="220" height="30" as="geometry" />
        </mxCell>
        <mxCell id="677b7b8949515195-4" value="邮件" style="text;html=1;points=[];align=left;verticalAlign=top;spacingTop=-4;fontSize=14;fontFamily=Verdana" parent="1" vertex="1">
          <mxGeometry x="790" y="40" width="60" height="20" as="geometry" />
        </mxCell>
        <mxCell id="677b7b8949515195-5" value="即时通讯" style="text;html=1;points=[];align=left;verticalAlign=top;spacingTop=-4;fontSize=14;fontFamily=Verdana" parent="1" vertex="1">
          <mxGeometry x="860" y="40" width="60" height="20" as="geometry" />
        </mxCell>
        <mxCell id="677b7b8949515195-6" value="系统通知" style="text;html=1;points=[];align=left;verticalAlign=top;spacingTop=-4;fontSize=14;fontFamily=Verdana" parent="1" vertex="1">
          <mxGeometry x="930" y="40" width="60" height="20" as="geometry" />
        </mxCell>
        <mxCell id="677b7b8949515195-7" value="个人中心" style="text;html=1;points=[];align=left;verticalAlign=top;spacingTop=-4;fontSize=14;fontFamily=Verdana" parent="1" vertex="1">
          <mxGeometry x="1000" y="40" width="60" height="20" as="geometry" />
        </mxCell>
        <mxCell id="677b7b8949515195-8" value="" style="whiteSpace=wrap;html=1;rounded=0;shadow=0;labelBackgroundColor=none;strokeWidth=1;fillColor=none;fontFamily=Verdana;fontSize=12;align=center;comic=1;" parent="1" vertex="1">
          <mxGeometry x="30" y="140" width="160" height="540" as="geometry" />
        </mxCell>
        <mxCell id="677b7b8949515195-9" value="" style="line;strokeWidth=1;html=1;rounded=0;shadow=0;labelBackgroundColor=none;fillColor=none;fontFamily=Verdana;fontSize=14;fontColor=#000000;align=center;comic=1;" parent="1" vertex="1">
          <mxGeometry x="20" y="110" width="1060" height="30" as="geometry" />
        </mxCell>
        <mxCell id="677b7b8949515195-10" value="" style="whiteSpace=wrap;html=1;rounded=0;shadow=0;labelBackgroundColor=none;strokeWidth=1;fillColor=none;fontFamily=Verdana;fontSize=12;align=center;comic=1;" parent="1" vertex="1">
          <mxGeometry x="280" y="30" width="480" height="50" as="geometry" />
        </mxCell>
        <mxCell id="677b7b8949515195-11" value="Work Space1" style="text;html=1;points=[];align=left;verticalAlign=top;spacingTop=-4;fontSize=14;fontFamily=Verdana;gradientColor=#b3b3b3;fillColor=#f5f5f5;strokeColor=#666666;" parent="1" vertex="1">
          <mxGeometry x="330" y="47" width="110" height="20" as="geometry" />
        </mxCell>
        <mxCell id="677b7b8949515195-12" value="Work Space2" style="text;html=1;points=[];align=left;verticalAlign=top;spacingTop=-4;fontSize=14;fontFamily=Verdana" parent="1" vertex="1">
          <mxGeometry x="477" y="47" width="60" height="20" as="geometry" />
        </mxCell>
        <mxCell id="677b7b8949515195-13" value="Work Space3" style="text;html=1;points=[];align=left;verticalAlign=top;spacingTop=-4;fontSize=14;fontFamily=Verdana" parent="1" vertex="1">
          <mxGeometry x="623" y="47" width="60" height="20" as="geometry" />
        </mxCell>
        <mxCell id="677b7b8949515195-25" value="" style="whiteSpace=wrap;html=1;rounded=0;shadow=0;labelBackgroundColor=none;strokeWidth=1;fillColor=none;fontFamily=Verdana;fontSize=12;align=center;comic=1;" parent="1" vertex="1">
          <mxGeometry x="920" y="140" width="150" height="400" as="geometry" />
        </mxCell>
        <mxCell id="677b7b8949515195-26" value="" style="whiteSpace=wrap;html=1;rounded=0;shadow=0;labelBackgroundColor=none;strokeWidth=1;fillColor=none;fontFamily=Verdana;fontSize=12;align=center;comic=1;" parent="1" vertex="1">
          <mxGeometry x="920" y="550" width="150" height="130" as="geometry" />
        </mxCell>
        <mxCell id="677b7b8949515195-27" value="基于角色的作战工具" style="text;html=1;points=[];align=left;verticalAlign=top;spacingTop=-4;fontSize=14;fontFamily=Verdana" parent="1" vertex="1">
          <mxGeometry x="40" y="160" width="170" height="20" as="geometry" />
        </mxCell>
        <mxCell id="677b7b8949515195-29" value="问题管理" style="text;html=1;points=[];align=left;verticalAlign=top;spacingTop=-4;fontSize=14;fontFamily=Verdana" parent="1" vertex="1">
          <mxGeometry x="40" y="231" width="170" height="20" as="geometry" />
        </mxCell>
        <mxCell id="677b7b8949515195-30" value="项目计划" style="text;html=1;points=[];align=left;verticalAlign=top;spacingTop=-4;fontSize=14;fontFamily=Verdana" parent="1" vertex="1">
          <mxGeometry x="40" y="267" width="170" height="20" as="geometry" />
        </mxCell>
        <mxCell id="677b7b8949515195-31" value="Section 7" style="text;html=1;points=[];align=left;verticalAlign=top;spacingTop=-4;fontSize=14;fontFamily=Verdana" parent="1" vertex="1">
          <mxGeometry x="40" y="374" width="170" height="20" as="geometry" />
        </mxCell>
        <mxCell id="677b7b8949515195-32" value="Section 8" style="text;html=1;points=[];align=left;verticalAlign=top;spacingTop=-4;fontSize=14;fontFamily=Verdana" parent="1" vertex="1">
          <mxGeometry x="40" y="410" width="170" height="20" as="geometry" />
        </mxCell>
        <mxCell id="677b7b8949515195-33" value="Section 9" style="text;html=1;points=[];align=left;verticalAlign=top;spacingTop=-4;fontSize=14;fontFamily=Verdana" parent="1" vertex="1">
          <mxGeometry x="40" y="446" width="170" height="20" as="geometry" />
        </mxCell>
        <mxCell id="677b7b8949515195-34" value="Section 10" style="text;html=1;points=[];align=left;verticalAlign=top;spacingTop=-4;fontSize=14;fontFamily=Verdana" parent="1" vertex="1">
          <mxGeometry x="40" y="481" width="170" height="20" as="geometry" />
        </mxCell>
        <mxCell id="677b7b8949515195-35" value="Section 11" style="text;html=1;points=[];align=left;verticalAlign=top;spacingTop=-4;fontSize=14;fontFamily=Verdana" parent="1" vertex="1">
          <mxGeometry x="40" y="517" width="170" height="20" as="geometry" />
        </mxCell>
        <mxCell id="677b7b8949515195-36" value="Section 12" style="text;html=1;points=[];align=left;verticalAlign=top;spacingTop=-4;fontSize=14;fontFamily=Verdana" parent="1" vertex="1">
          <mxGeometry x="40" y="553" width="170" height="20" as="geometry" />
        </mxCell>
        <mxCell id="677b7b8949515195-37" value="Section 13" style="text;html=1;points=[];align=left;verticalAlign=top;spacingTop=-4;fontSize=14;fontFamily=Verdana" parent="1" vertex="1">
          <mxGeometry x="40" y="589" width="170" height="20" as="geometry" />
        </mxCell>
        <mxCell id="677b7b8949515195-38" value="Section 14" style="text;html=1;points=[];align=left;verticalAlign=top;spacingTop=-4;fontSize=14;fontFamily=Verdana" parent="1" vertex="1">
          <mxGeometry x="40" y="624" width="170" height="20" as="geometry" />
        </mxCell>
        <mxCell id="677b7b8949515195-39" value="上线流程" style="text;html=1;points=[];align=left;verticalAlign=top;spacingTop=-4;fontSize=14;fontFamily=Verdana" parent="1" vertex="1">
          <mxGeometry x="40" y="303" width="170" height="20" as="geometry" />
        </mxCell>
        <mxCell id="677b7b8949515195-40" value="Section 6" style="text;html=1;points=[];align=left;verticalAlign=top;spacingTop=-4;fontSize=14;fontFamily=Verdana" parent="1" vertex="1">
          <mxGeometry x="40" y="339" width="170" height="20" as="geometry" />
        </mxCell>
        <mxCell id="677b7b8949515195-41" value="Section 15" style="text;html=1;points=[];align=left;verticalAlign=top;spacingTop=-4;fontSize=14;fontFamily=Verdana" parent="1" vertex="1">
          <mxGeometry x="40" y="660" width="170" height="20" as="geometry" />
        </mxCell>
        <mxCell id="677b7b8949515195-42" value="外部链接" style="text;html=1;points=[];align=left;verticalAlign=top;spacingTop=-4;fontSize=14;fontFamily=Verdana" parent="1" vertex="1">
          <mxGeometry x="927.5" y="560" width="130" height="20" as="geometry" />
        </mxCell>
        <mxCell id="677b7b8949515195-44" value="待办" style="text;html=1;points=[];align=left;verticalAlign=top;spacingTop=-4;fontSize=14;fontFamily=Verdana" parent="1" vertex="1">
          <mxGeometry x="930" y="197" width="125" height="20" as="geometry" />
        </mxCell>
        <mxCell id="677b7b8949515195-45" value="待阅" style="text;html=1;points=[];align=left;verticalAlign=top;spacingTop=-4;fontSize=14;fontFamily=Verdana" parent="1" vertex="1">
          <mxGeometry x="930" y="232" width="115" height="20" as="geometry" />
        </mxCell>
        <mxCell id="677b7b8949515195-46" value="Feature 3" style="text;html=1;points=[];align=left;verticalAlign=top;spacingTop=-4;fontSize=14;fontFamily=Verdana" parent="1" vertex="1">
          <mxGeometry x="930" y="267" width="105" height="20" as="geometry" />
        </mxCell>
        <mxCell id="_-NGtjVIes7nd89tp72T-2" value="需求管理" style="text;html=1;points=[];align=left;verticalAlign=top;spacingTop=-4;fontSize=14;fontFamily=Verdana" parent="1" vertex="1">
          <mxGeometry x="40" y="195" width="170" height="20" as="geometry" />
        </mxCell>
        <mxCell id="_-NGtjVIes7nd89tp72T-3" value="下面是各种卡片" style="text;html=1;points=[];align=left;verticalAlign=top;spacingTop=-4;fontSize=14;fontFamily=Verdana" parent="1" vertex="1">
          <mxGeometry x="930" y="152" width="125" height="20" as="geometry" />
        </mxCell>
        <mxCell id="_-NGtjVIes7nd89tp72T-4" value="&lt;div&gt;&lt;img style=&quot;width: 620px&quot;&gt;&lt;/div&gt;" style="text;whiteSpace=wrap;html=1;" parent="1" vertex="1">
          <mxGeometry x="270" y="150" width="550" height="130" as="geometry" />
        </mxCell>
        <mxCell id="_-NGtjVIes7nd89tp72T-5" value="" style="shape=image;imageAspect=0;aspect=fixed;verticalLabelPosition=bottom;verticalAlign=top;image=data:image/png,iVBORw0KGgoAAAANSUhEUgAABOYAAAIDCAYAAACgpREhAAAAAXNSR0IArs4c6QAAAARnQU1BAACxjwv8YQUAAAAJcEhZcwAADsMAAA7DAcdvqGQAAP+lSURBVHhe7P1Pr2xJluWHvUEOYlCDN6jBG+QgA6hPRICfgB9BU4ETERx1qwGpugdStRqgWBw0mWx0kVkAS8wSoCRfCJ1kJKAiMyGVGCmhyY5BkR2DIjsEBoGns+z58lh3373tj/vx6//WD1g4Zntvs3Pc77lux/ax4/7ukzHGGHNBvv3n33767V/99tN33313sHzm+7/9/tNvf/fbT9/8/ptPn344GMlW//o3Xx8qn1oc4i9K2Gcry3F9//33n77562+aUFa+/fbbZjfGGGOMMcZcl//r/+fTpz/57adP//Z/8VL/5n/2P3/6t/+j/++nf/Bfffr0v/nlt5/+rf/k960M/Z1/9v/79L/6p79/1WZJ//f/+dP/+p/+7tgn9G/++//PT//WP0tiRU7MGWOMuRjf/c13rxNWP3xqybiWbAsJLkWTZIiPib29wbEiiQiQBDwetx5vSA625OJf/fZzO0niGWOMMcYYY24LzCe++ebzNf6/+O/+xaf/8r/4L1/MR377299++lf/07861E4D/f/L/+FfHmqfWpn7rFhOzP3pv/enlmVZljWtP/7f/fGnn/+HP//0iz/7xac//Xf+9NPf+d/+nU9/8n/4kzRWhTht98f/4I/TuL2E4/zTf/ynbX9/8u/8SdtfE+ybH3YKx3X0bccW+7Isy7Isy7Is6wr601p/8n/8k0//6B/9o0//8X/0H3/6h//wH376u3/37zYb6tDPf/7zT3/v7/29tO2s/t3/87/76Y//93/86Z/8k39y7Pfv//2/3/abxUNOzFmWZVkXFZJwTGKtJNdeJPRQX2h7ipAIZOIN+0YdSTfaoJ//2c8//cn/aXs9mx/brB/LsizLsizLsq6kJPFFIUGGLZJlSMghOYck2n/w7/8HxyQabPDFtivCfpCgY59I+GE/WSzkxJxlWZZ1cc2skItqibl//Dkxhy3qWdweQpINx8gEHBJyTAqqrSXkTngtlmVZlmVZlmW9gZLEF8XkGJJlXMUGocwkGla69ZJos0IfSMixXyT7qoSfE3OWZVnWaTo8XqraM2nFFXJIirVHRy+YmNN9RTX/tm/GWJZlWZZlWZZ1o0oSX5SujkMZq9pg15V0EOy0nSom4thntmqOj706MWdZlmUtiY9ytkRZ+H41JOZmv0NupJYIOzxKikdI26OlSdwewmvh6jzq+D1yh+PI2lmWZVmWZVmWdUOSxFeUrmLD98vRzgQZk2iQJu5OFfrQx2Q14YctBP9yYg6/PmdZlmU9pz7+5cdPv/yLX3767W9+2361NBN+vfSXf/nLTx9/9THtY1Yfv/rY9sd+kSjL4vbQ17/++tMv//yXL47/F3/+i2bP4i3LsizLsizLuj391//Vf10KyTH88upf/7/++tOf/dM/e+H71f/tV5/+8//sP//03/y//5sm/GLrf/p/+U9fxKwKffzFf/IXxz6xXybpfv3Pfn20n5SY+/5vv7csy7KeSd9935Jx3/7+20+f8IviB333N98dpXa0wXjx3bffve5rUmiLPtgnkmQ4jix2D+H1ISmH/Xz7z79NYyzLsizLsizLul39q//pX5X6+PFj23733XctaRb9tP0vP/wvTV9//fWnf/k//Muj/3/82/+xifUZIRn3L/67f3Hsk/1pfdfEHCYymNQg5mm0vV5P4CzLemh9931LVmnyDZ97sH39m68/J7Q2xRi0PSuZdtgv+8Nn7jmJvqG2/SHxmPosy7Isy7Isy3o7nTiHiIkxCgk1rFJjMuyv/h9/9SoGCTSsdNOkGeP+23/+37bEXZbQ6wl9og37pOBD0g7Jv10Sc8g2aoLq0w9b4JMIr5cJSbwP+r5YlmU9gpB004Rbe7T0d9+8Hiy3eoxFogvxL+IWhMdZj/vd9unEmWVZlmVZlmU9pnCtjxv/+EqcdoM/iRkpJsYoJOaYIPv2229bAi6LQwxyO0ygIY6PncKPRBsSarFdFPaHtkjsIcGnCTn0hf2gL9R3ScwhMQVliatnEf6wTExalmU9ilpi7XfftMQY6ih3E21Y5bYNpiizzamDKvT1Vz/29c3vB/u2LMuyLMuyLOvu1BJy25wBcw3e5Ed+pS0GSOJ70uSY6r//m//+uBoOq9+q5BpXyWkiTRN16AeJuthOxcQbYtkO4uo5JvmoXRJzWC2GbZawehZ9//02YfWE0bKsRxKSbIekGgZHfP7P3IDAZyEGV7SB0AcG2Cx2pNZ2Gwg5OHO8sSzLsizLsizrzoUnbrY5BhNwnD9AmAO0m/TxKZ2BNOGl4ko3JMi++eabV8kxio+86io3CMejK+CytkjEIfGGxB/qbIt4PLKK/WffUbdbYi5LVj2bPGG0LOuRpD++0Mq/mfyMOyT0OKiij1O/G04fjcV2+hgsy7Isy7Isy7pdISmHa/1tnsB5A2y4yY+EHOYT7dp/p8QcEnEQEmVIkDF5FmP4iCmTahB8mnCrxAQc28XHWbM20D6JOUzckkTVsyl7byzLsu5ZXLGGx1NXVr3heyE4wOIO2KnfDYfPVXxVQEvM4Ti248niLMuyLMuyLMu6H+kN+Hat/+3na/02b1hMxqmyxBeEpBsSa0iYIVmG1W30xUdMmYxDYo1JNq64Y5tK6BuxTPLpfipdJTH3r/3r/0bTrF11SsxMG2olNsqJOcuyHk0YLI93qxJ/pZZA2wZUDLL4bDx1xZw+Fos6v3POsizLsizLsqz7FG/cMynXvrJmpydjssQXhIQZbvgjyYZVbVjBBmE1G3yahOMjqRDawoYt22m/UehnZnWd6s0Tc0x8jZS1hUZ+iH7GVpqJobT/Sk7MWZZ160KCDMkuJrxm7kbxS1gzXyX8miq2GGjbqrvF9hSOEfvnoH3K90xYlmVZlmVZlnUj2q7l+RTMMSm3Yy4lS3xB+uuo+A451JloY0IuJuqw6g2iHwk7+LP+z9HNr5ijbaReHz2N4lf6c2LOsqyb1Db4IbmFpBY+p/Drpi3hdfj+Bi4jT9ueIgy2W79MpjFJd4qQSGxjzKGvc5J8lmVZlmVZlmVdV5d+IiZLfEGahNPVc1Dvu+Cw+g1fqcPYLOZcXTUxVylrA83EqU9jo2L8SIzvyYk5y7JuTUhiIfHWVsdtdSa4VIjBd8hhkIztTxH3ib71jtgp4rHxWPE5e+pjsZZlWZZlWZZlXVdcFNDmIYeb8FncqcoSXxASbPq4KgQ7vwsO3wsX20CwI2nHNkjS8RHXvXRX3zFHfxXX81Uaxa/058ScZVm3pON3NXyHDNn2OYXNZsdAiC1tFJJ3e3yOtUdlf//58VPciTqrz7D67pwfkrAsy7Isy7Is67riCrnjtf02Z4kx5yhLfEEfP35sWybY4g8+9IRVcniMlck8rL6b+VGHWb1pYo5JrlnNtK1iem2grE1PjO/JiTnLsm5F+l0NGPSQ4EIdj5UiWYcBEUIck17QHt/xoHfB9kik6S+8oq+9VvZZlmVZlmVZlvWGOjxNw2v79mTNZktjD8KqOswBsJ15ciZLfEH4RVUk4/jDDqhjBV0WG4VHV5GMW0nmrejqK+aqsqqK0bLW1TbSKH6lv3Mns5ZlWXtJv1AVy61bsiwOZIdkHT+7OEC2FW9nJL/0LtjMYDsS+0B/Z6/AsyzLsizLsizrKtKvvOnNFVrc7z4vJsC1P+YmnLegzUmr7Lb9tP4OiwjSmI6w4AA6d26T6c0Tc0x0MdmVlVmP/tU6y5li/EiM7yl7byzLst5aTKxhsEN9lBzjKjkOkBDqM3ekotCGfbXBD/tO4lbEpCLulKG/U47LsizLsizLsqzrSucKUDZPadf8v/kx+cZYCjYkyEZznFQXSKrtof0ScxMck1xSjlIfy9xmoo9Eu/pAZouM/BXZe2NZlvXWYjIMAxcGtHZnJ8REtUdOt9jjgHdiUk37aQm/353/uYjPVtzdOmcVn2VZlmVZlmVZVxbmGNt1PeccuM5nAg5qCwwOcxfGVMKqt1PmK7eoN03MZcwkypRRvPpZzkQqO6jsFU7MWZZ1dR0SahywUJ5dqq0JPeiU73NrfWzHgPb4TByubsNdKyjzUTMxlmVZlmVZlmXdvPRrb3S+0W7qI7e02SGursP3TUNopwsJNEb7v0e9eWJOk109Vaz4s9jKz3IUfTM8wglhWdad67vXibnZpBZWt+lgB9tKe9036hx0K/HRVCxVz/yWZVmWZVmWZT2WcO2PhQNtznCYPzS7zB2QrEN+RVfTIRY2rKjjfAVCLOYVx7g71NVXzD0STsxZlnVttS9KDV+oOrtijnesdKDDYDjzKCyEtmzfu3sFH44Lsai3x1/vfDC1LMuyLMuyLGssJtI430CiDraWV9rq2PbmBrE9bEzuZcJ8Bkk/rrjLYq4tJ+Z2pJqEWpZlnSoksdpA9ZvfNqHcS7TFxByTbVlsFAc51l8MdBOr5tqPNBzufvG75tTPY8NnJX4plsfY7pQNVtdZlmVZlmVZlvU2wpwA1+18jLQ9SrrNCXoJs1lhToC+OBfAfAf9t3kObu5v+83aqXTeAcV5DNXmH5KnQXl2bvSWcmJuR7L3xrIs6xS1OzvbgIXPFQwyGFQwUKHc7IfBKGvLJFdLeqGOxJr4K7U+D4lAiAMd9jkcwEJyrZWZzNu2SNThOHQAhbA/2GdX5VmWZVmWZVmWdRnhmh/X8bg2j9ft8Zo+az+r1ofcqOevsGY39zNh/2jD9lVCr82DtuM+xm3tZhJ/by0n5nbEiTnLsvYQPkva54kMIlEcjLKEGRNsjOUgF+NUOrhh37hrBTvqOI42qIU2Ku6Dx8YBrw3uW1v4eTzHGLxOxG39x/4sy7Isy7Isy3ojbdfjuC7n3EKv26MYe841POYGmAsc+9xs2GI+gnlCjM+kyb1qvtLmRVt/3A/3G+OuLSfmduQW/8CWZd2XMHhoEgs21Llqjnb6MHjG5Bzi9A4ShKRZlsRr8bzDdBhccZcMn2d6HG3g6wySLf7bz/HYD/pDmzi4o9zutGHQ3farfViWZVmWZVmW9bbCNX5LYMmNfcwLvvn95+9947wAsfSzTexrRZpYo1pybTLhp/OPKjHX5kWYk2yvBfMpnfPckpyY25HsvbEsy5oVl25zYGoDCZJkv/v860NIZrVBMwxg2aOmsa9m22KYLGtCn1udn12tr21wa/XD4Mb2GMziPlR8jBWx7TgPfbA9fHwMlwO7ZVmWZVmWZVlXFBNact2ucwYk6yDOGzRu6utuOsKcAP2yv7ZvzGG2frP4KMw3mJjrJgq3Y25zHxzrVk5jriwn5nYke28sy7Jm1JJwssqtDS7JZwrjsGUsxEScxrYkXojDYITBjtLBFWW9i6Tt26q64jOuHesWe+xns7EM4bg4uMe2lmVZlmVZlmVdR3q9jzrmFNU1e7vmP8wHGN+SdRKzqjiv4bwii43CsXCV30q7W9RJibmolqU0x5UmlmVZq/rln/+yDUwYCLFC7hd/9os0jkI8Bh/e/YF+8ee/OK5Wo5rtkBTrCTFtn1ufx338xXZM+PLXzd/6Ko7pl3/5y08fv/r8S0qq5tuOE/1ov5ZlWZZlWZZlXVft11b/8nAN/7tv2jU7bFkspfMDiPUsdkaYg2C+wP6gdlyD48DcAnOT43Ec5iNp7B3opMScMcaYfWmr5X74XMYdHzw6OgIJvO+/x+2lz6AM2wu2Ptv3Q2x2PAKLOzIE8VjNhs/1tr/D/gluNhxvvGy+6vMf/b44XtmnHp8xxhhjjDHmBsC1PeYNh+t/XLu3r8sZEeYEL+YLJ5L1gWRbW0lX0PyH421zoDvPUzkxZ4wx1yYOcP/88EMPIzigCtXgiAELAxjikQTE3Snss8UeBuQIjgHH0gjHGOHgyETf1MBujDHGGGOMuQrt2n67xl9NbOnN9xfzhTPQRBtBv0c75iubsD/sX2Onk4o3jBNzxhhzbULSCwOQrmzrkQ2GHGTPBQMcjqURjjGCwRkJvywpaIwxxhhjjLkt2rX+779ZTmzpXAVzEbTfg5hwA9gP+sc8BMK8h0lB0JJ3O+3/mjgxZ4wx1yYkvTDArCS4YiKvDWBMqJ1BG6S3wRbs1acxxhhjjDHmNmDCawXMCZhAq57WORX0PdvfSuyt48ScMcbsyQ+fB6h2Z+d3n3+coQ0YvRVsm699x9yB1SRYW36+7UvRJeanot97h9cQV+YZY4wxxhhjrg9XlvErayjYunMCXOv35ikJOs9oN/IXVtvNgHkH8k7ZHAqvE3MS+FF+FJyYM8aYPdgGjZaMwyCyDRYYoDBYYMvBo5fYap+tHHi2rSbqZmiD4mF1G1hN7kVw3Np+j0SfMcYYY4wxZj94gx7KEmSwwYe5wl7ozfs2R7hEgmzrn3OoY6Jx2297nTLneRScmDPGmDPBYDQzSMCPuGMCTkASTAfTNsitJMK2PuPn84tk3wIxKXduks8YY4wxxhizL0y6zcwZMA/pLRKYZptb6AKC1cUEJseJOWOMOYNj0koSYLBh6XVL1MXE2FaP8aAlw+RO1inJMMRrcg+Db1sCvgDi4x21KplojDHGGGOMeXtwnR+v2TH3wHygafNhPqGgzWghwQids6D/Nk84gTZfwvHI3OWZcWLOGGNOhEvHFdQxGHKwxGcmyi8oknNxhdvqird4PNnxRRDTkoDFseI446BujDHGGGOMuQ64XtdrdlzPY+Uak3EQV9PFm/Sr84sI9sHkHvp+Nc+ZQI+tzZsWFxI8IhdLzOHNtizLemRhAMRgdBz8DomtGIcBB7EoHwfLbUDDdyVgyzi01wGVyTL6Z4Q+Mbixj4+/+pjGYb+//MtfHr+voQ2ym53t4P/41cf09ViWZVmWZVmW9fbCdT6u3XnN3uphTqHS+QqEeQmSYlnsjDA/wL7QF/vO4kptbdvxbmUeU5tzbK/jVewT6aKJOWOeBZ/vz0dcjcbEVgUGnbh6jYPjkR9ef8a2+sJdLQxqGCAJ9on9ZGTHjNeF9u1Yz7ibZoy5fzy2mWfC57sx5h7Qa3R8br2YSxTo/KLNYSZzOq/Y9otkHNHyLHEOBfAaqvnKs+DEnDE74PP9+YgJsDYwDRJZ2eDZ7jL9zY/nT0uWSR1l2GaJg13s/wXb8eIzHQNh2w/uoG31Mt4Y81R4bDPPhM93Y8yto9f1Kwm2OL/AirVTQB+c/7xaYDAL5x/b8YNsfvSMODFnzA74fH8+XgxwhwFmhleJMrTV1WlJX/Bz8JpB7151E3MbSDCi/xbn89gYI/gzwTwTPt+NMbcOPqd4w77NRSY/t1o7SX61uQbnHgugD+5zNMcAmL+kMYf5DxKE7bhOOJZHw4k5Y3bA5/vzoYPh6h2jmGjDgMVBFrTVeJuOHAavWXT13sygaYwxGR7bzDPh890Ycw8gH4Nr+5W5QVtdJ/GnJuY0F9TtY7NjboR9ajLP1DgxZ8wO+Hx/PuJdqpXvWIiDI0Bdk3Wxjn1p8q5kGwj1WDwYGmNOxZ8d5pnw+W6MuQewIAArzXSeMGSbH2geZ2XeQnQhQjaXIVgUgH3xM7XFTuaQnpmbTsy9e5cfXmU35lr4Yu6+aQPN7z/f1aFaEqxzJwmDjq5qi4m0ES2xJyvZ4qo71OOA92olncDPRZyL2s+HDx+6r8MYYyp8LWeeCV/LGWPuhaWk3MaLeUW4iT+Lzl2yOQk+Q5ErejVXQVJw27c/Y/ssXxXtmZibuShDzIwyKntE+5htY4xSne96bimVbUY9ev7YT6UZsjaZDWi5xyiOft1myqjsHEA4WGDQor78oy+br1qlhvgvf/blofZjoo77yo7nRf1w5wr7ITG51wa9rV/AuLafgy2C/pGIQyz1xR98cTwWyhhjZrjWtZyWSYxR6KtkzAwz57sxxtwj+HzjnKa32q1HywMdbvbrnKUl/ThnCosBMGeBz5+vY5avVtofZII9L+Yis+0qRb8S68bM0Dvf43m2co6tno+9+Jm+GIPtSBG1sazxVEXPB+jXuFjO+qBdBTBQZAMIYSKsff+brEAj6EfvNmFQQhz7z4g+7J/7AW1fIRGIPpkoJEjYHQe57fjhR9u4Og6DZu94jDGmxzWu5dSOck9Ey5GezxglO9/1fKOUWCeVXan6BI/gy+jFz/iMeQiKucclaTf2DyvZsvnGiBfJvO34maTDPKXNVcIKPuwDMa9Wz5mS5U+4cxJz+oHbU0YWRymZjWR2tbFtJmN6nHq+j5iJUXrx5+5v1F79LMc2MWZGhGW1gRhHMnurYzDZBhYMGAr+hm2FGgaQLSYmwuLAgr7Qj8ZpIoz7z+pqiyvc+BmrsVj1pjFH/exzPPbbVtEdBnr63v3k5T4hY4yZ5RrXclU5EuN6MmaG6nyPqK06v0bnXfRXdWzVd2o7UPliufKBUX0E47Gt+oo+1tVmzD2Cz5h23Y5r/cM1+1uBuQJu5AMk5bLPux46F8IcCosT8DrYJ0Ed9t7iB5Oz/AnXTqQJZga37AOWNn4A92Iiao8xWT1TRmU3hsx8uJ1yHq226cXDN6OKng/Efhgf62RUB2pjWbfRP6P3f/j+RXILgwwGFwwg7W7SYck1fApXrgH007Y/edfitT8+OhpR27H9ttXBEe2xH9RjH+i3Jd8EHqPuH4Mg+uDgmR2LMcbM8NbXcmrTtpWIliM9nzHKzPkOZs691fOu12evr9l2p/oivXYjevvp+cjq/oy5FVqy6nc/JqtwPR8XCFyUbZ/6lE8rLybNNLGHY4/HjxVzXD3nhNxpLH/CvVVijqA+owzaKz/IfGobte35zfOQne+RmXNpVhk9H8h8o/gZEZbVBrJYMKqDypa1zWIjmlwDWFUWk13kiy9er1JDcgwc9xcGOvDhpx9eLecGenx6vLo0HPvAQIdj0niAOnz4DG5Jt23fiCfoB3UkHtl/JWOMmeGtr+VUbHdpdH/muZk939VWnTur51Svz15fs+1O9UViO9WIGKP1no/M7MOYm2K7VmeySucGvNZ/K/DZ1pKCG23eMZnPOZLMd47gNW59a+LOnMbyJ9y5ibkZKaxHO6nsIOtPoT/G9NooWVvznMTznefGjHqM/ApjqzaZvdd/9M22pw3brI/oH0nJ/FDFi7ifvGuJOCbZkECDrQJt8HmnA2n7/NsGIMD9thVvctcIfccfXABaVxvgYIe2GNQwgMf4F9qO+/379+0xWPxcOoQBka8HMRmV3RhjMq5xLRfLeyqj5zPPxcz5HqnOncqeEWNHdbLS7lSfMoqr2pFe/Exfo/6NuRmYrMI8IklWaaLsLdC5Crar++bcJIKFAniN2WenWWf5E+7cxJwy86HLOraVIlmMimhdt9FmzIjRB5KeVyvMttH+qzaMmRHjlVgHatN2sawiWgaxDmZtoLI3tgFSP7uQxMLfrNcGvnhHS1fcwU/F74nLVs3pvmKZ/aItj1VjQKyDKgbbSsYYM8tbX8tldoi+bEti3ZhVRuc7yrPnXdYui83sozpYbTcTq4pk9l6d8dGmzPpIZjPm1jgmq+SmPWjzgsPNfVzz82mZt6DNgQ771rnMCm1F3GFug9eGPt9y1d8zsPwJp5PbHpe4mMtQO8pUBX1xC3o2Y3rMJOZ0O8tsfIzL2s3ayGqfLGc2MusjMX5GJNqRLGPiTFe0VdCnS7cxAGEwim31ThT65zJxjanKoH1X3TaQ75mYy6jsxhiTcY1rOQLbSCTzqYyZYfZ8V1t1fs2cd7EvEm1ZfbVdzxfJYrP4lT5BL36mr1H/xlwTfH6kyartuh42zCeOvsO1/lvQ5iSSBJzZL44zLjBgP1BbcXdI9Jn9WP6Emz2JqsFtRkrmj4pkNkJftQWxfawT2CufeS56ibnZ8yljJjaLgW12v1XcTHu1Ze16ffR8JLMpvTZxi2RcGzTljk+vf/raZ95h8EHyLA64iIM0jgnA9l1wB3Rfcb9cmRcTczNSMn+UMcbMco1ruWgbbUeM4uCf7cs8NtX5HlFbdv5ktowqRttnMae06/mUzFfFa5+g1y/Q+Bjb85HKbsw1YcIqS1bp6jl8vujjoPgamregzV0O85F2DJ3HWHUlXJvXBOCPCTuzH8ufcNkfKWNmcMs+YNWGMutZLKj66EmJdZDZMrL+zHOSne+gOj9WzrEevXMw+ljO7JlPY0CMoUj0a1lFMl8mJdpYruzgWN4GS9ytwqBYxSq0t0TeYck3BiqujINf2+Ic0O+wA7ovxsd2gCvu0I7L22NMrAO1ab9ZLKjsxhiT8dbXcrHdzHbEKA7+2b7MYzNzvhO18xxSjRi1mbGP/JHKV9mB+rKYyl7Ri698as/8xlyFbV6B63edJxB8ljDBRZjAIy2nEhJ5l0CPr803ks+5Nvfg8R6OSec85m1Y/mQ7JzEXWflgjbG9D+dev1k/StWnMT3i+T5zHlUxtFd+0vMR7WOmv5G/gm1jTK8efRmMwTa25Q8gYMCBMNjEOEAb2wxjgvArp0y2IfFGu0Kbfm8D2+D75zDIaZtYxutALMAgmN3N0jYjYizqlDHGzHKtazmtz7Yh6q9ijMmYOd+NMYYryuJnBm+ut+v4mHTb6vr1OJowuxhhn60sx4VkIeYubf4SVsJhlR3s5u1YvmLZMzFnzKPg8/2N2AYTDBIYzNpy6m1Ao/A3aIMhBpE4GJ7Bi0F0dHdr8+EYXsQcbNXgq0vMQYv1MnFjzA3gsc08Ez7fjTEj2g30mLDarvWPq+c61/A6p6hWr+0JjpWr9jAPOR63Hm+Yn6AeV8+Zt8GJOWN2wOf75cF7jM+fKsFFOKDskdxCHy3RdkAH1JJDIu4FBxsGQRwfhNeDAVKTcrQZY8wt4LHNPBM+340xM+iN+mr1XEZsp3OAS6DJP+4PascbHlPlnGfvBQ5mHifmjNkBn++XBe9vTFjBxgEmS8Ih/tzkXOs/u9M04JjQCwMb77JRet5UbYwx5lp4bDPPhM93Y8wM+KzANTvyIpgrzII2XGDQ5gS/v+zN+PjUD+qc1xzZ5h3V6jnztjgxZ8wO+Hy/HMeElYA6Elvt7s8mfC5lgxtizknOtfaHQYp3mqbZBjoc58y5wQHeSTljzC3hsc08Ez7fjTGztBVni9ftelMeW9QvRVxQ0BJy4Xgxr8Ecyp99t4ETc8bsgM/3y6HJMaDLshXYXiW3DsmxUxNeL+40bf0sJ/m2/fIuVDxm9IVBvUoqGmPMtfHYZp4Jn+/GPDnbdTuflqH2/Fxo/R0eIc0WHuyJ7ivC+QdizO3gxJwxO+Dz/TLEQas3yIBjvCTiTh34XrRDgm/ysy+j3bX6/Tct0ff1rz/rmJA7MWlojDGXxmObeSZ8vhvznOB/HwsBmKxqybmD2g32zb7H5wOTfo3t+n/qu6tPJC5sAKhjbuP5x21y0cScZVnWOWqD4TaAYCCBPn71sSXmslgKgx4SXyizXRtst35ibE9t4DoMahhEOShblmVZlmVZlnX/wvU+v3uN84aoFne4oR7br4hJPvb78VfbvCaJ20OcD+nxow57jLVuQ14xZ8wO+Hy/DG0A5Aq5hTtLaHO8I3WgfXYt3B1qCcHvP99pQoJu+Dfe+ma8McY8Ah7bzDPh892YJ2K7bsf1PRJVCq7lmTiLZKvQVkBb9EFW5yarYF9MBvrz7fZxYs6YHfD5fhl4Zwq0R0snP39ATKbFwbBLSAKOEoIY1HFsSOZdcoA1xpi3xGObeSZ8vhvzJGzX6u0GvCTZ+L1rsB+11WMirs1FTr3Wx35lLnNuom/Itr/eVwCZ28KJOWN2wOf7ZdDEHFj6LoYw+IHYX4WuuOsl9NAX9sG7bWiHfRhjzCPgsc08Ez7fjXkOYlIO1/zt+j0m3DCXiLHbNX98KmcFncugHyfODHFizpgd8Pk+Bu8RElz88QOo3SnqPP6JAUuXmK/eWYqD5+yqO+yHf9Ns0MQxYKB+NYhv5TbgxoHdGGPuEI9t5pnw+W7M46M33wGu5XWu8YpDcu54bY/6ZD4kQ+cJbZ7S27d5KpyYM2YHfL7XYMDBIKTJLnJMcG2+DMSrLybaZmifWZIom1k1p59zL9pvWxwPFBOKGOjxWnznyxjzKHhsM8+Ez3djHpyQVMvmJhlxoUBbRddZWNAD+2dbzBn8pI0hTswZswM+33Mw4LVEmiTGMvD+aQLuyNZOl3zPrnhTYjIPycB0XwfU3/Z3uEuGgbMNpmHFHo4d9pnXaYwx98QeY9u7d/mlZmU35lpc8lrO57sx10fnG6P5wAuShF6cD8yibZeOwTw8V0/M9S7Y6GO5J40jsax1QFsUfbo1pse557ui5yGhTX3R1lMG7b2YU2FC68X7sg1q7c7QNgAhyfUqwRWWlpM4+M2seIu0zy1JmvUeN239H1a9IamHtlBcCcfX2AZUJ+SMMQ/IzGftzPjBcWakip7PmL2oznc9P1mOynyZjVrllDbnovu8xv6NuQS4puc1PLaz4Ct4COYrcV4wi85j2nFM5lbM47P8KTt78sxOnHsf9PBRykwblrmt2qg9K1ftjFHOPd9hr0Q/0XKk54vEPlfa9uBgp8kqDGBIhmGLJBveL8TERFyWdEMddoL2rf8F4gDaG1DbZ9zh2LFfXbre2HywtwE9JBeNMeaRmBnbZsaOLGZlzNlrfDKmRzzfcd5RJDsXoy22Aat9REb+SzA65hWucfzGZLR5xHatv7pS7cX8YGs7Mz5mYA6icwt9Msg8N8ufkuck5vChPKMIbTGOquj5iMZk5Zk+jNnjfNcyyHzRdimdQ7wDlSa3Dsw+ZqqDIYj7GLK11c8uJOU02XckxEW4gu7UwdgYY+6JPa/lQBZH9Rj5jdmDamzX8y87F6OfdZYrES1XzMTcOo/wGsztgbkD5xPtprvMFyoQuzSP2NAE2vI8RMAx6tyn9xSPeS6WPyHPScyB+KFcDUxZObYF6pvVbDzjjBlRTV4i0VbVM/uoLZi1gcp+DnGwmbmjhBhdeZYNdrMJvB747GK/2GafZfH4CeyIz3zGGPOozIxtvXEHWyqS2SpWYo05lXi+6/nLczDaKPVlqD3GVG2UmZhb5xFeg7kRfvicXMO1OeYDbZ5wmCvQdmriLCXcuD9nlRs+Z3QOc06SzzwWy5+Q2WQ2ozcZzwan7MM6+rDNFKGt8ivqz8q99vD1/OZ5mJm8gGhjnedSpuiPqI9+LZNoi36Q2aYJg1YbaCThVhEHKKxky97P1rfcUZrtn7R+cSftQDqohteA/rGftrpO9m2MMc/AzNg2M5agPqOMni9jNd4YUs1dZs8pxml8tFFEyySL1S3LCu3Rx3rmA7SrSFUmMR6wnvlAZjNmhXZzfbs212v6CK/f97qhzv4aYa6wCo+fYA5UffaY52L50/HUxBw/oGelsB7tQH0UyXyZn8Q6yGwk9meel9nJSzxnZs8fxsX2p5D1tUe/OlBhANNk2whNkmEQzQbbV6vmwsA2Iq6G0y9xVbgfJOPQv+9iGWOelWpsm5HCerSTyg5GbSOIm401Rhmd77EepYzqJIvLYqO9KoPo67XTOujFKr242XbGrIL/0XbtH26Wtxv1yQ10XNOnX12zCFfkARzDWX2GxF417zHPx/Kn46mJuYz44R2hT7eZKlZ9amPfvT6MIdXFHInnEesxJopkZY0bKaL2zH8qXJW2mtBqnyuHATUm4JTYby82EgfS3jJ0370yxpjx2AaqMUbR8aZShvqqGGP2Ip7v8dyL52Cvrm0yES2DWCe9OJSjiJZBzwcqfxVLkRg3qhszS7uO15v+27wBdVzPY37Qttt8Iv4ft3ZnJufa/APJv409EmkvfuF1YS5jHpvlT8c9EnP6Ic5y9kGtMZFoYx8zquj5jOmRne+jcy76Ylzli3FKz0cYo9uZdrPgM2JltRyYHfBeLCU/gH2xbQ8mDUFbbTf5WWaMMc9KNbYp2fhRxVRjzay9ijNmD+L5np23KGcisU4yG4j2U+KqNmC1XeWP5Zk4MKobM4vexOdTM6/GKCTrtuv9mIjTFW+noDfz9ThORfvAazg3cWgeg+VPx9nJbHYxB3of0JUvi8E2xisjP2DMSBUjv3keZiYvGRoT46NPRaI9E8nqSqyfSrWcvIcOUKNEW5a4a20GK/Q0+Yf2HgSNMaZPNbbNSMn8UZHKltmVmRhjMuL5zvOoOp8yu55/LGciWgbRT7I4EttUZTBqF+ukKoNZH4h1Y2Z4sapsmy+0m/SduUaW7Jq9kR9Bm+OCA+x7MhfSg3MSvC70V+VNzHOx/Ol4amIOH8TZh3H2ga2x6s/KagOox7gYUzEbR1b6No9NNXkZoTE8n1REy0oWM7KRypbZL40u6dYkXUUb0DQRdxikq4Et3il71d4YY8wrZsa20fii40oWC6Jd20R6PjDyG1NRXUP0zsUIz7/o6/WRxapoU7K6xpPVdurvlaOIlkH0Rb8xM+jcYPbm+qsb+Ye5wirYF/vZ68Y+En1YhedHWI2y/Ol4amKuovqApj3bUkRtaleiX+szMqbHamIuO7difM9HshhsVZGe7xpwOTrpfffbEQ6uIYGHga4l6LaBE3ei8HeBTZNytBljjOkzcy23MpbE2Gw8mukvtjFmD6rznecaz7uelMyvIlq+Npc8rlt6neaOwDW/5B9Wbq7Hm/0vVt5Non1g/jAcFxEb5ievmIkxT8fyJ+TeiTljHgGf76eDJBoHyRfLxQcwoRcH57Y0fOsP/eCuFuoEZU0CGmOMqfHYZp6Ja57v10haxX2irrY9j+kar888CD+ExFxItvXQ1W5kpX267w7YF+YZnmuYU1j+lBydkMQXc+aZ8Pl+OkigMXmGhJqubhuCAXMb/OKgm8HBcnowNsaYJ8djm3kmnvF8ZzKOUpsxt0C8qY7y7Io5vflPYJt9HFVX2OHzoVo80I7xr377OXabZ2A7MzcxRnFizpgd8Pl+Oi9+6WhhsFUwADJBp+0xULaEHAdLY4wx03hsM8+Ez3djLg+uzXFN3p5s2YRy79o/JuZWHkdFXHbDv+UzJm7Ut3nJtn/QVt+FzwgcN1/Hi9cQVtoZM4MTc8bsgM/304iD7dT3yxVgQMQAjP7wYxIQym3w9io5Y4xZxmObeSZ8vhtzOfD/hTxCS8Z9+22bA7Qk3VbG9XpLghUJuhfzg4WkV0uYYR9I0Ekybyq5t+1H99vKnE9sWyTq2jEfEnekzW224xv2b0zAiTljdsDn+2m0gfJwJwvv4ezScmOMMZfHY5t5Jny+G3MZcH3frvE7N8pbQgs31JMVbkywkewR1Qj7A2gfE2ujnIbOS9AX+gAtkbi1jY+q6uq53us0psKJOWN2wOf7aejdMQx+o/cRsTowG2OMuRwe28wz4fPdmP1Boir+byGpFb9+huhNe4I4JtlIiyuSc8ek3CFBhqRcm2dIMk3nIBk6L8F+8DrSlXDbPhDb+vMcxZzBRRNzlmVZpbbB8eNXH9sghvrHX318HUNtsfjsweOpaNMG9CzOsizLsizLsqyrC9fuSFrhWh9Cwg3X8bDzuh5Js5akO8RALQn2u992+4INca2/LbZpi0G99bn5EYdEGuw676j2oeK8BLHt63HQx6EOocz9M4lnWefIK+aM2YGHO99/uPxrwgDJu04cIDPiknEcVxVrjDFmP3wtZ54Jn+/G7Edc5VZd68OOOGwVXbFG0D7GYc6CuQLU5gr6GOlWbsdwsGn73nyCx1SB/WBuUq3YM+YUnJgzZgce6XznnaU2SHaWeJ+LDo7YJxNvBO9pOuhtg+uL74kwxhhzEXwtZ54Jn+/G7Aeu84//U0yQdciSbq/mIod+4pwho80jsE+ZL+h8oyUOi7wG4uLjtIAJOyQNPQ8xe+PEnDE78BDnOwY7JMIOA9HobtG5tOTagfa5chjgeIctG/SOq+f8+WKMMRfHn7XmmfD5bsx+6E10JMPadf0AXP9rIo5zghdsfaIv2PE/q8k8xHOBQTWPOCbcNl+V10C/L45X9qnHZ8yeODFnzA7c9fm+DTYcZDRBBjAIXeK1tQHvsHz8mADUQS/cMfOScWOMeXt8LWeeCZ/vxuxESHrpSrUuaBcScS+SaQLmLphLIB5JQH4PXIuVuYyCYzjOJcIxRrjij4k+fz6YS+PEnDE7cHfn+yEJhoEM/9NtUDt8AaveIUrvVO1AS/gdBmgMoO0YMOiFQdtLxo0x5nr4Ws48Ez7fjdmJkPTKHlOteJE8O9D62mEegP9xLgwYJeYwB8K8KEsKGnMJnJgzZgfu5Xx/9+7dMdnFJNiXf/Rl2wL4YnIMg+Peg5IOsGn/m++4es5Lxo0x5ir4Ws48E/d0LRfJbMZcjZD0Wp1LxEQeyseE2hnowoC9+jRmL66WmMMAUg0samd9TymVjUR/jDUGzF7MzZw/VUxmn7UB2N/95N2nL3/2ZUvG9URaGYMrVs0dEmnnMlqF5yXjxhhzG7z1tRyJ5UpEy0qMq8hiZtqB2X2Y2+duruUmRbSsxDhjUrbrfyTVeMMcyayWZOvNCzZf+465A6tJsGyusMfN+nZMh+PGa4gr84y5Jsufxuck5jgA6CCgNrWTzBZhjMZmNpDFgFimlKyeyTwfe13M9c6haJ+NA7BhQMUAdEy8bQPTh59+aP/TSNhBbdDd6hisNEGHu0tffPFF6ydqlWyJOoCd+zbGGHN9rnktF9v0+qh8VV9AbSO/AvuMGGvuh3u4liNZGdtRO0XbGfOKbZ5wnBds1+34/2hP1mxb3kTvJbbgPybvQqJuBl3dBs5d4Ybj1vZ7JPqM2ZPlT+L2TzZBdTEXGQ0G8M+IsSSzAbVnok/J7BqvZDbz+MTznefHrIiWI9EX2/XEO09cEQd9+PDhVVzjMBBrYo7xxwH2wLHNClsf+jmCgRZ17DP2b4wx5nq89bUcxHhuKymsx5goEstRtGdUdkVjZuLNbXDr13Ik86kitMW4KGNIuzbf5g2aGMtoN9Wxsi25fkcSTP+nlhNhYb4AXiT7FsBxaFLu3CSfMZdg+VP43MRcHABGA0Hmr9qwX4o2JdYj2pZEG8sxDmQ28/hk53vG6PzQc2skomUQ64CDY0u2caALA1vss92pYpsNbOMglu1rBi6JR3+tzxMGWWOMMZflra/l1NbrO8ZRkcwGYnuFdWx77XtSYt3cLrd+LUdWfKhTkV4/5nk5Jq3k2hw2XLu3RF28Zt/q2bU8/p/aTfcDpyTDEK//l1iht/pkDeccSpVMNOaaLH8in5uYIyxzsIgisZyJZGW1gRgTVdlVJPNBFSO/uV9mJi+ZlMymqI+xlU2FgYf/t0iuQaPHUlnXVXJoh0dfNR46FQy2GKSNMcbcJte4louoj+UYr3aKdd0CLYOqrtsYo8T4jJGv5zdvx01fywmZXxWhLcbErTHVd7vhmh1JMSS4MKd49QhrkZyLCwGyhQE94vFkxxdBTEsCFsfq+Ye5VZY/iTnBH7FyMUeygWGlTRUbRbQMYj0yE9/rA77RPsx9kp3vpPqbq53nBm1Zm2jLYjJwp4h3l5BcqwbFrP/W9jCgoW0bEOUzYPYYjDHG3B9vfS2HbSbCstpAtFdbEMs9n5LVRzGksoOsH3MdbvlaTum16e1ztDUmJq2Q3Mr+L9oqNCTilG1uEVeitfbyOCzKcfXaiHhM5XfVbfv9+tdfHxOJ8TFczmF6/+fGXJPlT+JzE3Mq2oiWSfRnIpld/UDrGkvRTqI91iOZzTw+ow/5eF5UdbX32qCsymwUEmscnNqqt+S75SiFtvd/+L4NdmgLdJCObYwxxjwO17iWU6KP5RivdkrritY1TrcgtlPgG0mJdXOb3PK1nJL5VRHaYoyWjYmr0aqkHEGyLK5eayvVNGGHZF3IHVQLBCp0kQDAPqsVb9kx43WhfUwaGnNrLH8an5uYIzookGxwmLWBUV+RGMM6thSJdaBxKvN8rFzM9c6R6JttBzI/bHq3anbFHMqsM7GHthSSdRpjjDHm8bjmtVzcgswGUI82kNmrON2CLC5jpX9z29zytZzS66Nqv2I3z0lMgLWVaYNEFv5n4so5XRAAdB4CUIZtlpgwjP2/4JAIROKu7Wc7NtTLeGNuiOVP470Sc2BUB7Rh2xNjuGUZRD9hnIp2papHO8hsBL6e39wvo4s5MPP3H50/oA2C24CGQeqLP/ji07ufbPZtIMrawoaBVpNqX/7sy2bvSUEd+0JbgkER/cZYY4wxj8M1ruVArIMsDkSb1qNdt5For+IAfCMpsa5k8eY6vOW1nKJ9Vn5uV6RtSPQRLZvn5EUC7ZDgmuFVogxtdXVa0hf8SLjNoo+vdhNzG5ifoP8WN/E/bcytsPwpfGpiLvvAj7ZePSvrVkWbbonWK1/Prr4YBzIbie3N49D74OffnX/73nlQ2QEScBiYcPeHSTbslwMQ+41CjN6ZQrt4pwpxEbbngKqJOQBb1s4YY8xj8NbXcgTlLBaor7KDGKPbGFf5ZhjFj/o8ZZ/mMrzJtZz4sj5oi4rM2LQe+2E5bs3z0hJzh/+BV4+kDoiJtrZaTeYabTXepiNM3k2iq/dGiTlj7pXlT+G9EnPZANCLYRnbTJHKDmjXrcZrXaVkfpV5LrLzfXQuZDFZPGz4FVWsdDvefYpsdvhfDHobrb/NhwGNyTwQ/4/jfl/Ut/b4NVa2V/HXXY0xxjwe17yWq+yksoOqL8Jy1Qfjo3q+KKJlc9tc+louxmVUbUmvj1HfJMb1+jTPgybmgK5SGxEfNwUxWfcqebftKy4USDnMYwgShvF/1ZhHYPlT+NTEnDGPzCXP91d3mTZWvvQUYBDTNit3mzhwtkE3/P+3epUsNMYYc9c88rXcWyQinOy4Lzx3MY9CW/G2XbsjGUa1JFjnmh1zA51vxETaiDYHkblFXHWHOvpUsjlOpM1DpB9dPWfMI+HEnDE7cKnzPQ5GGDQxIGFgw7b5wuDUBr1gm7mTVcGkHo4FP0OOYyBxqboxxpjHwddy5pnw+W7uHZzDmKvjGh9lXL9TuGaHr7puR7z6YqJuyDb3eHUDP8w1WiJO5hGg7SfYjmx96lwHr0PnRcY8Ek7MGbMDe57vGJza/9lhMMIgBFBuA6Qk3eCLg16WhAPaVwMDKOKkv0hLvB0GQA7Q8TNgZam7McaY+8HXcuaZ8Plu7hlcp49WxQG9tn/B1k6v6U9JgsVVc9kN/FfzkQ3OL9r/4HYc8LdEYpinxDmPMY+EE3PG7MAe5zv6wP8XBicOZBwgMRCV+9gGrJiIw+CsA2MjiWuJvcM+deDDoIf9H+9goe3hfz8OutkAa4wx5v7xtZx5Jny+m7vkcH0fr/txPuP6Pl7jg6M9EBNfsT5E5guNWD+AuUP8f+PcA/HYb5uDyHGncxtjHggn5ozZgbPP923gaUk4GYAwKHFAxLYH9v/ijlQxEL6KO4DBDvunsL8XyTck4w6vMR4P4rI+jTHG3De+ljPPhM93c3fgeh9zBblBjoQbruVxbY7rewhzgpboErIb67im1zj4T1o1J/9LWRIO8PiGbK8RfWSJRGMeCSfmjNmBPc73ePcKgyEHyJk7RHGAjf0R9Ncd3CQ5CLL49jlwiMNrd2LOGGMeD1/LmWfC57u5N15d++OavUh2xflEmnTbru3bQgGBiwRmyW7gV8cEX0saYp4R5h/oB+3g9/+meQYumpizLGtNH7/62LYYLCkMbrz71NU2uGl7bFt9s7+I24T/4/ZDDttAqPtSoV2743a406XS/aAP9BVjLMuyLMuyLMvaX5gbcLUc6ri2H80XOC9gm2yewH44H0ByDPMBjRnp468W5gnb/vE6cCxoR6HN1PzHsh5EXjFnzA7sdb6jHwxCCgelGVrsNsARlGN/hHe0WuLtMEhzAIUd/+uoZ7TPAa+YM8aYh8bXcuaZ8Plu7obtGlzn5Lhunzl/cb2vq9fiirtG6Bu0BODCqrkX/Sb9GWNe48ScMTuw5/mO/zEd/ND3q6XmHdr/qCwHHw2mrf/ff77rBmHArhJygAk9gkQeZIwx5rHwtZx5Jny+m3tBr8Vxzb4yT9BHVXHNrzf0SbzR3/a3kFx7MTdwYs6YKZyYM2YH0vN9G4i4Yo1JLwycbaCSxFkkJr5AG0Q7bZQ2GMrdsNUBe8SLu2AbMRFojDHmMfC1nHkmfL6bewLX4zhnMWfo3YCP6HV7nDMo8foeccdk24AXK/O2PpyYM2aME3PG7MCL830bgFoybvtf4Z0oJLIoDGrwtcc/i4RWTH71Bs4M9K+DdLvztcP/ZBuU5TjQZ3sdxhhjHg5fy5lnwue7uSu2OQS/C3qFlsg7zDE4T8nIrvHj/KSizTsO/SI+LjgwxrzGiTljdoDnO7YYfKpBTkFMG6iy5Fxyd6nVi0ReJA6mq0vQX7HtF4PxiztlOEYPtMYY87D4Ws48Ez7fzbXAdTqSZLiupnAdP0qCtXN2cm5A9CmcUaLtlf8wHxjtE8fPdpjv+Ca+MWNuOjH37l1+eJXdmGuB8x1Jq1eD1VbGgARfOnh2Bji92wTQvsVOEgfTttpNE2sT4EIBx4H/e+2rJfqQlEuO2xhjzGOwx7WcMfeCz3fz5hzmAbimxjU/rrUpnI8tQVfME05Fv2NueNN/87263j/YdF6gtKd8ZL7RYuUpHmNMzlUTczMJNsTMaIYsTm3an8qYERh0XiS9tkELCa22xHzbIinWBt7t/0eTbY1s0DsQB8yVwe2YPNvAPtN9K9t+2nEiEbe1Qzy2sc0xQZgcrzHGmMchu5arrot610v0ndO2Rxaj+5zpg/T6Auwvytw/TsyZt6Ql3rZr7SrBReBvcTskt3RuADRJV8J5inKwYc6giUTMD3Q+dJwzGGOGLF9JtETBBDOD28yFTBZTtePFERXptavo+YwBHFgJBz3YeS7qecSl6l/+0ZdHtYFrG9zIsd1P3rV4gr7fv3//qs8K9Pnhpx8+ffHFF2n8cT+b+DqOd+zCBQDqX/7sy6m+RvTiZvvpxfV8Si+u5zPGmGcgu5brfWZWqC8rz7bNqPw9uyrSa1fR85n7ITvfAc+V7O98CV9GL77ny+jF93xmP9p1f0hYwcbVZvEaHCA+s6/Q+j/MK3CtP5s0w35bci7clMecAX1Q+j9UtTHG5Cx/6p6TmNMP+54ysjiKxHJPo3iiZWNegTtGSGYdzvd2V+swCMVzR+uIR5ILMDmHdhjEYjsk4nQgRju0R9zM+cmYGB/LUDuG7TUo2BfsOA79v9b2INYruK8sfqVP+mJfs32M4qp2xhjzLOhnvpJ9PvY+M+nDlmJdtxk9H6j6UDvFOlFfJsaQzA+0bO6X7HyPf9uqjq36Tm1XUcXHstYzon9UN/tzTFgJqCOxhaRZu4G/zS30hj1BjM4JVmntD9f5bV/6tM+Iwyq5alxQOHdwUs6YeZY/fc9NzCnZhz9t2FKRzAbUPtOuih/1Yww53tk6DHIYhKoBM55XGHD5f4LEXHXnqsUe7IhjMhCMzs/oj8egoM6LhXZRsG2//vXnR3Gz19Tra4aZNlVMtPf6mj02jZttY4wxj8zMBIxkn5uwqSK0ZT4y49NtVERtIz+o4kf9mPtj5nzv/d1758Gp7UAvfrWvSK8vcxk0OQZ0PqDA9iq5dUiOnZrwevH9cp05S8m2Xxwv2sZjRl/86pwsqWiM6bP8CfxWiTmC+oyyWNqIlkHl67VR4Ov5zePT/h+2QQoDbJVYI9l5xfYt4SZ1BbEcxBnHu1yj8y/6s2MgrGNQ5eOsPWJfqhlm4jRG+45te31VfUSyuF68McY8OtW1HD8X9XMySqnqcZsBXyb1ZfTsKtqIlkHl67VR4Ov5ze2Qne+R3t99dB6QlXagF7/aVyT2pTL7wxvgBNfzuOauOMbL3CD2McuLdlt/s3P6jDbn+f3n79LGTXwI/bWEXJjHGGPmWP7Unf0n7l3MjaSwHu1E7aNy7CPGqIiWIzHWPB4YeHpJKt55gl+/tyESzxPWmWCLCTfCOA6mjAP4Xxydf9V+Qc83YtR2pq9RTNYnbZlPYWxlj2RxStbGGGMenSpRMfM5qqgvK8+2zaj8sEfRTrKy2kCMUREtR2KsuV1Gibn4dxzVyantSC9+tS9l1HalLzMH5hQ6V8huyEeyRFxvzlGhcwyc617VZsxtsfyJe25iTsk+8KsYbCuRUVltYKWteSK2ARIDF5JuGAgxkLUBMQ6ccrepl5jDORTPo2P90AcTbu0O1GHVXWyHAVQTc9gffoiBMF7baBlkdRXJbCSzj+oZvZhsH8rK/no+kO1rpX9jjHlU9krMAfirz9Ze29l+K0XUlpVjm1E8iG3MfdJLzOFvHP/OozpYbcf4aFOyuopkNpLZR3VzPriWP66Q2+YAU7+KuhETemAmqadgLoMkH8BcY5SIRt+MN8ZcnuVP3Gsm5jLUXpVJtM20zfoxtwcSWnsMHhj4cI63O0oy2MH+6s7SIakGqsQczp/sHFKbroRDP6in7bb9ffjwoW1bsnDbd9a3Ev29+FFfADFZ3Mp+SBVT7UNZ2d/Il/lX+jfGmEdl78RchLZe25Gv8qt9pkyi7dR+zP3RO9+zv3G0ZfVT2kVW4kd9AcRkcSv7MafREnOH86ythJucV4OYTNOb+UO2uYMmAUcJQcxpcGzpwgRjzEVY/sSd/QCpEnMzUjJ/FKnsJNq0ru2ivSLGmuuAQYPKVqzNgsHtVfttMGp3qbYBCoPYi+SfDHJMDMb/j+r80HOn/erq1h5oYi7j3U/efXr/h+/bMc2ce7qfXvxMX6CK0/2Amf56fWXoPmJZ6dW1HYixZDbOGGMemVFibuZzEnZKmWkLej6l2kdly3wgiyfaLtorYqy5XUbne0T/tlnMqe0is/EzfYEqTvcDZvsz82hiDsyumGts8444z4j9VeiKu15CD31hH22BAurZwgRjzEVY/sQ9NzGnZB/4cUBgPYsFMZ5k8dE2igeVHcDX85vLg0EGgwZpA5TUZ8EAxeQYQJINfWHAxBb7aQNauGuE/wfEsi2Sakze8fxQKbRpYg7/N1/8wRcv2kBKZa+o4it7hcZn7Sp7RONi/IyPZDGk8qlNY9ROKrsxxjwL1YSv+syMxLiZcqTnA/DHGNrUznJmU6JtFA8qO4Cv5ze3QzV3iVJm7CP/DFV8Za/Q+KxdZTevwfmC+QN//ABq8wm9iR9o84lD0gvE+ceI+HROtiggA/vh+R3nTgDHgDlMS8LpXIeLEML8xxizP8ufuuck5iIrH/rnDBxVbNVW46sYcxu0RJgMaHHAmqEl8+R8RX86gPXgAHtMrJ1wZ6n9Tx0GvDhgG2OMMdeiGgeza6PZ6yW9tmI5q89K6dmiPVLFVe00voox98XMdZ8xuE5vN+6TucIxwbX5MhCvvlPmLTpvAHEek6Hz9xftty2OB4oJRcxp8FpOWfBgjFln+Upiz8ScMefSElkyoOmKtRniAHmsz94Z2uLwP6HnexvcJFnYA4Pdi+MPg60xxhhzLXwtZ54Jn+9mBK7x23X74Fo9zi+ObO308dXZFW9KTOZxQUGF+tv+trkSjgMJPew7zllw7LDPvE5jzH44MWfuHgwcbQn5NtCtnndtQGIibxt8VgdHgIEtrpLjoNeDd9UY1wbxxdV2xhhjzKXwtZx5Jny+mwomtF6cI9v1e3tS5q8/zwNeJbjCzXeCeI1F21PmLzrP6D1u2vo/rHpDUg9tobgSjq+xJfEGcxhjzP44MWeeluNdowMYPE99jBSJwWOCb6P1vf2vpP1tgx329eLu1mabSeYZY4wxb4Wv5cwz4fPdZBznC3KN3hYF/ObrtkWSDecOYmIiLku6oa434o836hfAfjSxFuuKJvGw31dzk80HO44hJheNMW+HE3PmaWlLwWVw0qXlq2AwzAZVDJT4n4GvCeWQsOOAr4k9Y4wx5tr4Ws48Ez7fTUa8Rk+TWwfa3EKSc0h0vbgRf0CTZWB5HrC11Tk55iGa7DsS4iI4Xvh97htzfZyYM4/J4e5Pb5CDX+8uYdXbqeB8h9Ll31sdA3NTOJ5jQi+2McYYY66Mr+XMM+Hz3URwna6JNlznj84TxOjKsyzpNpvA64E5OfvFNpujx+Mnbf6xxWc+Y8x1cGLOPBY//LhKjXeBKlpiTs7TcxNz3GIAru6kkTYAb/tP724ZY4wxN4Cv5cwz4fPdvGCbU+g8oiXYJOFWgfNIk2xxvkFa33JjfrZ/8mqBQfbkT3gN6B/7afMPLwow5qa4aGLOst5aGJQw4KB8HHwOd7eicC4jiYc46ONXH9sAl8UuCXehtv2iP+6fQr39UMUmDtSWZVmWZVmWZd2Qtuv5NjfYypgvYI7xKqbQx199btebi3BewHkI9of5QYyrhHmEtuc+oxDTtM170D8WD2RxlmVdV14xZ96ew6q2S9ypaUu5t8HnSLhTpMRl5CiPVrpVpOf7tm8Msq3fg1CPy9mNMcaYW8TXcuaZ8PluIlyV1hJgC9fvbe5xmOfE+YYS++3FRnC+tpVvB3rflc3EoDHmdnFizrwpGHBwDmHQwSBxCdAv7hwRDKg6cJGYxGv1yfNb4esxxhhjHglfy5lnwue7ycB1/uqcpSXcDnMR3pjPQMyLBQUbcR5TwaQhOHUOY4y5HZyYM28GBhpNYK3efZomWSXX6skKPdj1GNogt3DuIh6v6ZzvpzPGGGNuEV/LmWfC57vJaEmyZA7RQ+cdo0RblrhrbQZzJE3+VYsQjDH3gxNz5s2Iy7Pb3Z1wl2gv9C4SwMCV3e1CjB4TaMc0MQDjHGefaHPqY7DGGGPMLeJrOfNM+Hw3e6E37KvFAcqrxQpbPGzVOdnmVDLveNXeGHN3ODFn3pRTVqghHnH47gQMdFAbgAbLvONAWA1a6WCI46z63/xI5umdqbga0BhjjLl3fC1nngmf72YPMKfA3IL0vvvtyCERp/MWgPkF7FhIgHkJztE255CkHG3GmPvGiTnzprTBQ5dacyAqQCwHJB2suALuRV+BdIVedv4mg2FLBqJ/DH5bH9g/B772q0xhNd7UoGuMMcbcEb6WM8+Ez3ezB/o0DucrMzCh92KxwAb6aAsCDvMe1AnKvXmUMeZ+uGpi7t27/u7hp2JdVdHzkSyGttg/6zMiWiaZbYZRXyhnujUwsOiggsHm1WOgh2SZJsAymCyraCvfZIDDgJadm9XA2QbDQ4Iva4vjmzlOY4wx5t54xGu5yEz/kdm+M7J4tbHPKHN5Zs53Y0boPCed4/SYnP8AzkF0YYEx5n5ZHun3Tsz1LjboO/WCZNSu8p/SbravXt/wqSJV28oOer5rwTtCR5IVazF5hzYY2JotDEBxZZyC8/DFqjrsqziHOcDpfku2fnCM3G91vvNvmf0dLuHL6MX3fBm9+J4v0oub7WcUd24fPZ8xxjwDj3wtp6weW4zXOsqqSGYDlR30fGY/nJgze6BP0bR5RVgBNwPmF2iLuYm2xxylzVe2uUw19zHG3CfLI/05iTlepIxEYn2VUVv6Y5zaKSXWQWYDvbYjX0+MIZkfaPmWaKvP5G4QykygvUi0HRJpHICQDMuSZzGRp0Rf67+4e4XBD/Fpf9uxMNGH49FzvDrflaqOrfpObVdRxcey1jOif1Sv4L6y+JU+6ev1NdOejOrGGPNsPOK1nNZHOjWeRH8UY0jmB1o2lyM7341ZAXOHttjgwDlfddMWJRwSdPod222OFBYpGGPun+WR/tzEnG5BvNiIPm3TU0ZlB/TpNqoi80Wb9kPRrmi9KpNT2mb93ATJyrWWcNsGoWbf/MfBLQ4+aLvZX5xjSX+k9Yl+BO6jAvtGcg4DKgdDlGHLzu2Zi7ne36X3dzq1HejFr/YV6fU1Q9Zm9phGcaxX7TM0dqWdMcY8Ko94LZfZMhi32of6ZtpW8aN+zP7MXMsZ0wNJM978x/n04qkdY4zpsDzS75GYAyzHi40YE/2ksitsH6W+jMzO+FmxDYl+Fcns0a9Uvl4bBb6e/9LElWstEbedX0yijZJn0a+DYaS3Qm8PnJh7fe6OyOK0ffSPfEovLtqI2hnXizfGmEfn0a7lCNv1RLRMoi3Gq2gjWgaVr9dGga/nN/M4MWfOhYsMQJt7DM4pxL56QscY85Qsj+TnJOZAvIAYXWzoFqit1xac6mffKiXWwciW+Ql9VXzmBzFGRbQcibHXICbX2mOkh4FslDiLy8VBmczbbPHc1cHzXEYDb3yfR3VyajvSi1/tSxm1nemrioGdUtSW+UhVBqhHG8jilKyNMcY8Oo98LTdL1of2pWVQ+bK2IMaoiJYjMdaczuhazpguYa7RfYx1i8U8B3ORcu5ijHkqlkfymNyomE1UjC424jazVfR8gP1Vqsh8PZtuM5FRWW1gpe2tEM8L1F8k4LaBCckyrH7TFW4V8dHS3kq4tkIP38twgI+r7kHvfMffIP4dRnWw2o7x0aZkdRXJbCSzj+oZVd9K1U8VN9teQcyo3Uw/xhjzaDzitVwWU4nxJNo0jmTxQNsoo3gQ25jLMDrfzR2zzS8u/ffFHITzjN4cA/MRzKc5z8Fx7TUfMcbcL8sj/TmJOVxYzIiwHLcgs0VGvsqv9ixmxUaxHlFbVSbRNtM26+ca4HzAuYM7Q/FxU9jjyrXZxFy8OwV6K+FarNyV4uq8c6n6wPuf/Q2iLauf0i6yEj/qCyAmi1vZDzmnnyoO20wVlT/aen0YY8yj8sjXcuCcGJSzNlU8ibYqftSP2Z89rgfN7YE5Becgez0pk4HkGh9LzeYxnAvpIoHGNi9pq+tkfmKMeT6WR/qYBKmYGdxwodG72Ij+rBxjlMoeyfqo+q367NnpG/XHWCoSbVrXdtFeEWMvAQZADIRtFdvhblVc0ZY9kjqdmNuIsb27VK/2j8Re2PcpVOd79f7qe5/FnNouMhs/0xeo4nQ/YKa/LCbaYp+sx3JF9Gk7ULWdjTPGmEfmUa/liPqytroFs/GqSLRpXdtFe0WMNaczc76bOwLX+EiEHRYEZPONPdFHV3UhQJwLKcfVcz73jHl6lkfyvRJz8YIju6iIMUrPRyo7gT/rN9pZjnYls2s8y5lIVSbRNooHlR3A1/OfxTbwYADCQMS7RyA+Tkr0LhNYHTx1AASxPwWxGCQhxFVJvBWy853vr0qZsY/8M1Txlb1C47N2lT2icVn8yE6qOCX6NJ5llVLZjTHmWXjEazkyU6eNZa3rFvRsSrSN4kFlB/D1/GYeJ0cehG0+wJVxr+YH29zkEn9n9Mn5xHEOU8yFABYU4NiyOZEx5jlZHsnPSczx4qG6gIi+LI4x0af2WSk9W+aLZG0js7YIYiilaqvxVcwlwSCD8yRb8VauhNsGr3huxcG0B/rUwa3dnSrOVfqgKnm3ii/mjDHGPBqPdi2n9YjGqSLRVsVFGJe1z9D4Ksbsi6/l7phDEgyr1to1/u9+++nrX3/d6m2l2oE2B1i48T9LS/gd5jdcBQfFOQ+Tdu2YJuc4xpjnYHmkx4fMDB7cng/8zXF+xO+Q410rkN01IjqoAfS3spoN+9Z9tf6K81Dj9sDnuzHGmEfDY5t5Jny+3ydMdmU3/uGLdtzIj3OVc2nz40OiLe3/kDhs86Cd5yDGmMfAiTlzNm1A3M6LePeHA2X1nQuv2OyIV//KAIZz7kUiD/1Nnq/n4vPdGGPMo+GxzTwTPt/vDyTd4k18zBvaV+dsypJ12XzjHLC/1l/B8Ukin1/GmA5OzJnT2QY0DIbQi+QZ7Ie7QhgQdbDSJF1GG0jjI6mdwS7SjkVW5OE49r4rluHz3RhjzKPhsc08Ez7f74t2jS9zBibcMFdtq9Y2tfkI6mEu0BJ6WFCwA+jrxXEcaHOgZN/GGJPhxJw5CQwyOBc0CQYwMMHOvz+2x4EPA+bE+YNBVRN9aD97PjGRh20bjJHU2+mOWA+f78YYYx4Nj23mmfD5fj+8unF/SMrp/OHIYcFATJ61Ockec4Qwv6meJDLGmB5OzJmTaMkyWR5e3RVCnQMhBqq43DwD504bzEgY8EbE5OBb4PPdGGPMo+GxzTwTPt/vB8wnjn8vzhMGSbA2d5G/8ey8ZAbMd9A/+mt9OiFnjFnEiTlzMkx+YVvdFdIEHrYvEm4dMKjpajwk2255KbjPd2OMMY+GxzbzTPh8vxPCDfvp+QXahSdpylV2JxDnLsYYs8JFE3PW/QvJsPZz45uiD4MgvjMOA2L0UWiHPtqy7m3ww6CVxUVxv2gHwfbxq4/dfVmWZVmWZVmW9bjifIJzhJX5Adq1ZBznF1u71j6JtSzLekt5xZzJ+eHzajcOXqeuWGvny+HOVFs9t3BetPhtwCQoT90RuwI+340xxjwaHtvMM+Hz/T7AnETnB6Mflovo3ASszk+MMeYSODFnUpCMe/G3TpZ/z6CDZUvyrSwXxz7D+bbcxxvh890YY8yj4bHNPBM+3++DeOM+JtpGxMReNt8wxpi3xok500AiDgMdEl8QlnojqQY7WV6xFga6lqRbTOxhlZ6u1MP+MaDeGj7fjTHGPBoe28wz4fP9OuB95xwE84923d+ZL8S5QbtpL/OVEa9+0XXj1r/L2hjz+Dgx9+wgeXZIxiHxhoEN4iAZE3Erd6Vasm8bYMnMUvN23oT+sU8cG7a3mJQDPt+NMcY8Gh7bzDPh8/1twfuNuQHmCihz/oEEWZuXFH8P2HV+cu7CAbIyxzHGmL1xYu6J4R2jeJep96hoTLb1wEDJRFrbV+fcQb84FvQd+z8OwDc8WPp8N8YY82h4bDPPhM/3twPzg+61/WbHfCBdxbb54s3+2flpY2ufxS8n+IwxZkecmHtSmAjTAbHdodr+vhAGPKgl1sKgmSXzMtAWgxxoybUsoXcYeCEmBFG+t/PH57sxxphHw2ObeSZ8vr8NmG/EhFs1r0CiLPu7tHmDtNE5xwj0h36zRQOtHuY9xhjzFrxpYu7du3fTyqC9iqE9StF69JHKPiJrF/eX6c1J7hRhgMqScFxOrqvoRqvfiCbYdPVcY9sP6ujnxWCMRN12LPd2x8oXc8YYYx6N3tgWr2Fmr2fOve6J+wVZn5WNdpZVCuvRrmTtRmTxamOfUeby+Fru8uA9xvyAYC6AhQCYa/Cx1jgXiQsJQJuLwC7E+UoFk3o4lq9/fViEcMCr5owx12J5pD8nMZexcrGhsb0LlcxOW/T1YiOwqyK9dhU936XAgKN3lTSBlrINhnFQbH0M/sY6QGLQ4z65Mi/e2UIdbaL9HqjeC54r2d/5Er6MXnzPl9GL7/mMMcbcH3Fsqz7n1Z75Iz1/7CcqktlI5cv6Yj1uQYwlVawqktlAZQc9n9kPX8ut9TXTR9NP3n2eP+Lm+yEpBlCGj3EAPs4fvvyjL49q85AA+3oVJ/MVPQ6AOQbaAcxNOCdR4mOyxhjzFow/dQPnJOb0w3FvkVFZbSTashgQ++uJMSTzAy2/CUiyyd+wDVATd4bw93wRF/rJaAPbYXDEIIj2aKN3pgD6PtplML0nqvNdqerYqu/UdhVVfCxrPSP6R3VjjDH3TS9RQbLPftqwXVEks0U0RvvKpLA+2hLUR2Icif4oxpDMD7RsLoev5V7XK7ivLJ624/X9t59vzmMewKQXEmix7bG+zQU+fPjwuXzgy599+frGfRaH5Nxhn9o/En1ffPHFj3MQmce0xQbStyYPjTHmrXj9aTqAH2IjZgY3MGsDlV3RmKzc67snxhAtk2ir4kf9XBIMVJoY412pGeJA1fralLINeHrHCftpiT1JvGG/zY47V2K/R6rJi9L7u/fOg1PbgV78al+RXl/GGGPunzi24bM+KrOfS9VPtPfKWidZ/GjbI4tR28gPqvhRP2Z/fC231hZkbZqN8wC5vsc1P+cd2Ea0L/wtdEEAE26RLA5groP9U9gffaAl4w5/73g8s4sWjDFmT5Y/gc9JzBF88KrUpkRb9IPoz0SfboH6lcwGGK/tNFbLoPL12ijw9fynoAMR0OTZiGwgbedDklSrBt3GFo/jgP9R7kj1znfS+7uPzgOy0g704lf7isS+VMYYY+6famyLn/Mzn/2zbWjPFMl8Ma6qr2xZjmR2xms7jdMyqHy9Ngp8Pb+Zx9dyr8/dEVncsY+fvHuRDNPHTl+tftuIfemCALThggD2T5CE40IB3d+RwzyFPo0nOp/BeeDEnDHmrZn71BX2SMytwg9f/SCOH8qR6Nd2StZHZgNZf4Dl2C7GqIiWIzF2D2IyDF96ugL+/ki6kequUjWoYSBEH3ueH7fA6PXEv+OoTk5tR3rxq30po7YrfRljjLlNsrENn+9RtGfEOKWyKyt+9pcpQttoC9QWFVFbVo5tYoyKaDkSY83p+Fpuva9RzPs/fP8iWYYyxMQc2lMR2PCoqrbHHCLGt/pPttiffihv+KMPLhqISTmgiTn0US4uMMaYCzH+xA2ck5jjB+mMImrP/IAxUfTpllT1aAdqy8qxzSgexDangAEEAxy2mjTLwN0n/dusJuYwmOmjsKAl+8J+YxyOD+dONhg+Ar2LOfyN4995VAer7RgfbUpWV5HMRjL7qG6MMeb+6F3LscxtFO2K1qsyga2yK70Y9UXb7BbMlMkoNrYZxYPYxlwGX8v16xmjGLyn+H44JT69Q7K+Wuw2h2ByrloQADAXef/+/ee5DudFm1oycDsGzENQz9DEHI6t2ocxxlyK8Sdu4JzEXMbKh75uR+2iP/ZBtI5yrCs9H5iNH/UzxeFxUDyKigEISTBs252gkDhT4MNgRarBsQIDGvajZDYOpPDhmNoAdxjwHpHqPcTfN/sbR1tWP6VdZCV+1BdATBa3sh9jjDH3QRzb+Nmun/EzYwKBXZURYyplsUT9kegbbcFMmaz4QRU/6sfsj6/l5vdDZmKQLHvxtM32Psd5A6j6wtzzxaq5ZEEAQR+t/23egTjsG6vpqoQcQF+IJW1xwYMuJDDG3C7jT9PAuYk5fGCORLK6EutK5av6wDZrozbGzMQCrWu7aK+IsYTJrpZgS5JdsLcBJvHFJFqWVOtRxccEH+KYNKwGz0eid75n6N82izm1XWQ2fqYvUMXpfsBsf8YYY26XOLbxs723ZbliJiai8VXbLCbaYlvaoh2oTWNibLQzlopEm9a1XbRXxFhzOr6WG5x327wCcwwmvaAv/uCLz0ksmXPEPiAmvtrqtU2YI8T+YzuC/jUxhzL2C3p9gFjPaHOVbd5CdPWcMca8FeNPq8AeiTnC8shGKlvPHn1ZPdoqNC5rk/VNqn1UdgBf9GPgqJJuL9j8VVz8G64MQPi7tsTcFq93k9rdpnhuTPb5CGTnO/9+KmXGPvLPUMVX9gqNz9pVdmOMMffJSqJi9Pkf/b34LJbb2KaKBbE8qiuVj+1oq7ZAyyTaRvGgsgP4en4zj6/liv626/mWjNuu8/nkDRNsFL4LTp+Oif0w+cX4tipt6yvGKerDvnmjv/Xxsy+Pfy+NU9Se+QGOQZ80avMcvA5jjHljXn9CDXiVfCmYuZhjWT8w1U96PqUXl/lYVl+lHlVc1U7jq5iUbbDjHSeAAQ6DCQY7DCJ6tweg3pJoAcS21XYHqrgMtoXw/XS6z+Yr/u6PzrO+bmOMMY/L6FpudC0z8gONibE9G8skxgHaVLRnZLGA5WgnlV1hTIyr2ml8FWP2xddyr8F7grmHzhsqEFMuHsAcJswhWz2LTcBxaMIsXRCwwrZfzH1ePLIa5lnGGPOWLI/05ybmzBoYeDgYYgDh+4qBhAMlkmNtwMIAI3d9AOqvBtNkcOSdqy7SriUEtwHyRaIQg+STDmg+340xxjwaHtvMM+Hz/SWYG7Qb95o828qYV8DX3i/1ga3+qs2BuDCAc5dZEKsLAjAXeZFYmwBzlTZ/2eYz2tdxDpMctzHGvAVOzN0qGNgOiS8MRHg/8X0MoA1ERRItS7C1v1kYaLI47A/KBiUMXjpgsc82sG2DGcn29Qz4fDfGGPNoeGwzz4TP9x9p8wRNem3X9pgjtO+P3raYQ2B+guv+dAFAkeSK8wTE6Tyihy4AwD7TfSvbftpxHuZTiMc2tsHfvUomGmPMW+HE3A2CgQcDHwcO1tudIgxKg79BvKOEflrCLRDjAP5uGLTgOw5mh4GMoD8m9bQMUI4D3jPg890YY8yj4bHNPBM+3z+D90HnDUyIVe8Prv11ngBiHyTOGzTZNgPnJa3vQSINx4BY7BPzHexLQR3znZm+jDHm0jgxd6PgfdYBBIMYNUx8bYNLG+RkkEE9DkggxjW2OgYw3Clr+xI/7BjEFK7kA4jPBuJHx+e7McaYR8Njm3kmfL5vYA4hcz1c96dzhQDeu3j9X849whwH7Vbe+6zPinYMxSIEyH9zY8yt4MTcjZIlwEC2yi0jPqpa9YfBDX/TYbJvA31mfeBHIEg2MD8DPt+NMcY8Gh7bzDPh8/0wf5BHWKvkWkZMsFVzjzZXUHtIBu5Jm+dsrwFzImwxZ8FxriT3jDHmLXBi7obJknCZrSIOpuUdqW1AhK/Fx743H5J2+Ltrok95kZjzijljjDHmIfDYZp4Jn++Hed5hdVyVWOuh7UGskzifaU8FSUJwTzA3gWbnT8YYcw0umpizzhMGKCS9UMZgAiF5hsEsxmZqybbt78W2GJTYXybu7+OvPv6orz62PtqglrSBHTGnHJ9lWZZlWZZlWW8jXOvjOr19NU7ix7U/r+kRh+v6LK4S5wGjeUGc42CL+UQ537Asy3pwecXcG4LVa1yZRo3uDrVVbtsgRdqS7Mm/AeDgSPa+I9WOT/7W7diSO2OPjs93Y4wxj4bHNvNMPOz5vl2Xt0TYb77+PPc4PNb56np9q+scA22qp2VKQh9M8GXEOQ72B5sxxjwjTsy9Afx+AwgDEO8iQRiE8J5q8uwFGODC4Il6GR/gvo8k/Z0KjkH7Rr0afB8dn+/GGGMeDY9t5pm4pfMd19T6dTSngnkH5hntprxc+8P+KgmGOcK5ibmNNk85HHucK7yA+9u2LVmI+dAOr9kYY+4RJ+YuTEu8yQCVgoEJMUWyLQ6MLdk2+XcA8Y5UOhgv0vrQJNzhNWD7jPh8N8YY82h4bDPPxK2c77iepk5JjBFcp79qv12n4xoecwusoHsxP9l8sJHV+QbROU03MbeBY8E+dZ5ijDHPiBNzl2Ib3F4NiJsNA2FMlDU2Xxu4tm1GG+Rk8Gx9zL7H6Dv83WJ/s2CAzQZ62KrE4jPgyYsxxphHw2ObeSZu4XzH9bXOEdI5wwTxuhzX/OgLSTBssZ92LR/mHZgv6PzglPlCa3PYN95THIsxxpg+TsxdiDgg4v3Ae9cG3K2MbRz8EN+ScwltYNsG0iNJsq1HW3W3qbG1bck11gtwbDgmPV4c34u/7aGvF7Yn5NlfvzHGmMfDY5t5Jm7hfNekFmjX70igLRBv3qO/2Wt17EvnB0gKvph/TNDmJ4eEX+zPGGNMjhNzFyAOQqingxqSa0jEHQYvEAdTJSb7Vgc7/O3QBtvR3TfGYZ9tMEe8HCeArV1ALN5Je0Se+Xw3xhjzmHhsq3n3bvkS2tw4t3C+t2v7TWT6Onu7Rm/X7r/5bftl1e++/fxa8JpwHR+v4UswNwlzvTj/6IG5wYvjR1+z+z6Fw+vmfKXt+5L7M7eBP3/NA3JTiTlc5MQLnezCp7LRzrJKYT3alaxdJPMfB8ADSLRp8kz3Db26E5UMiATxLZEnfPjw4TgAsc8ogmObTuR1jqMl5DafDrzPzi1czBljjDF7Uo1t2bWGimS+SiTz7SWiZRDrRNsyJtookvlUito0Ru2E9WhXsnYk89HW8ykaS1+0VboHrnUt9+r9+sm7dn3//g/ft/IIJO4w98Dxf/3rr9u2rZLb5hf6nXGztEUCuCEvxIUEGdinxuE4XsxxDrx6vR310NeNfUNtn5ttt0UD8RhYz44NtlmdQtZPJZL5KlX0fBmMr/qNtqp/tqcyGxWp7BVZPG3qi7ZKRMskxkTUz3LUuaz00YvNjinWSbQxLpMS6z1m26/0+YYsH9U5ibnsA1cVyWyk8mV9sR63IMaSLPYV28ATB0wMBEyevUq6bWh/8H/46Y+JtS//6MujsoEYbeNgifIXX3xxqL2me/wDuK820B1eyzEhNxicn43sfAd4/6nIJXwZvfieL6MX3/NFenGz/VRxas/8kSpmtr0xxjwqvbGtYuYzc/VzdTZe42aPEeVR/1lM7CMyawOwRx/rcQtiLMnaVKKfRH8UY0jPBqryLVOd75em9/6M3jvOO7DF8SMx9/1337frdFy3Y/XcKdfs7JO0/WAOkN3g3/rnqrUjm20mmaesnCf6ujOt7nvb+aGQoD6UM/UY+c/hlL5n2mjM6j5ifK+O8qj/LCb2wW0VG1XZKfpJzwaqMkB9VUTLJLOtEPcxgrFsp6qI/iq2imE5tkO9p0hmIz0fGPkvwPIez0nMKTMfvhqDck8K66MtQX2kGIdkGJJqX/7syxf25vuDLz4n3T58eOWjEIO2TMQh+YUt6bVtq+Q2GI/BJ8YQLZ8C/t7oHwPutS5Y7oHsvYnvfVXHVn2ntquo4mNZ6xnRP6pXcF9V/Ew/MabXZtQf/L3+Mr8xxjwD1bjPz8VKFTOxWUyllfgsNrNRROvqz6Rk9WhT6BttCeojMU7RehZzSvyM7oFrXedm75eqh95E/8Wf/+LTz/+9n3/65Z//sq2U+/jVx+ON9WWYWAtgPsC5QRPKIWHHxBi2M6y+ZqCvO9PS657YX0PjZtogJmpvRn3G/fdEtAxiXdH2q+q1J1pXfyaiZdCrz/iibUYVIz9QfxY7aj+Cx1CJVHYQ6yS2yaRonWWNVUUyW0RjtK9MGZX9Qizv7dzEXPWBG+29stZJFj/a9shiaMN7gA98gIEoPtKJOAyI1ao3DFb6/nCQ08QcynFA4f7bPjcxHgMQEn1Ej13L5nLMXMz1/i69v9Op7UAvfrWvSK+vGbI2p/QDqnaj/uiPcaO6McY8A71ruYrMB5vaY7nykZ6taluVQdZWUf8oBmQx0TaKYXm07VHFVH2gnrVZjVdG/lvmmom5iqPvh8/JqJjsanOKbU6CecGf/IM/+fTzf/w5MQd9/MvPiTnEnALej7YKLq482+rHJFg4nuP+JlarxfMplrUe4evGMaZaed3VfmCnIp1je9UmlnttV5jpJ4sZ2VAeiWiZZDaF/ipO/aMYEGNOrWf2aIus+nt1lFWZjTqVUfvMRxvbVsqo7KTXR9U2iwXR3itrvcdK7A4s7+mcxBw/ZDNFMl+Mq+orW5YjPfv79+9bUoxCUox9HdttA1LsA++JPrqKLeoYPFr5w4cX/WJA0T60/CqR97Mvj+951SYCX89v5snO90jv7zL6O5GVdqAXv9pXJPalmiGL6/WT2cisPfbBchanxLoxxjwD1diGz8SeSKyTaMviaFOflonG9ERincQYblWZjYpEexXL+sqW5Ui0MzZT9Md6VPQTtUWpv2Lkf0tmruUuAd+DSryBj+RbnIcxQXWJxBzAe4L26L8HknRIHM6sUuPrikRbFQf4unF8qWZfd9H/CxiD7Ywi0VbF9WCbFSmZT8sk1kFmIzPxWkd51IZlxlKZjap8tCtqrxT9RG1R6leiL5OS2fZC96kiWiaztoxRXG/f1X4rRTJfjMvaRWZidmJ5T+ck5iLVhy1RPz+cM0VoG22B2qIqMEDqAFV9seqL/n7y+fvhmEzD+4MvddU7TXg8tiXpNhDXBrm//uZ4LHpMaI9kHEAcEnzYB/dHtByJseZ0Rud7fJ9HdXJqO9KLX+1LGbWd6SuL6fWD8kwbJeuPNvVlcUqsG2PMMzBzLXdLzHxWI4YisV3Wz0yMAv9MP4T20RaoLWoFxs+2nYlX+2yfM3FvwS2e75gH6JM5KHOuADC3wJwEx46kHBNz+K45PMqK+JlkWZcffny6h3Ogo2D/3efHWt/y/dPXnQm+qdc9c+7FGNavfd7uvf+qv95+4FPRRrQMYizIYiIzMWQU22urMA7bqo3aZ/vNiPvK6lGrsE1sq/WsX9h6bQjjZkQyX6WMyk7Ur31F9Rj5d2R5T3sk5qpBONp6MeqLttktmCkT2Cj9friWFBMfxHjAxBlAPAZUrrJTUOcXpzKBh0El9kewcg8DoSbvQFU2l2P1fB/VwWo7xkebktVVJLORzD6qZ1R9K6N+4K9iem1n9sO+KWOMeTbi2BY/F0cimU+lZP5LiPua2QK1ZVK0XpUJbbNbMFMmsEWRrKxxFInlVd06vWu5LofE1fGJmEmy9ygT5hCcF2AfOhdr3+e21XHsmA9wJRnmHihj1dzsd70N2faNvlty7qC2rxP7z16rqoe+7kzwTR3XYD+NGMN61Rb2nvZA++n1qfsdaSWeZGXdRr/aZrdAbZlIZVOqeIrE8qpIVo5b0POBWD8V9BNFYjnzZ8ro+Yj6Y2yvbdX3TB+0qS+LIz3fzizv6ZzEXPahmymLJeqPRN9oC7Iyjl3tGfwBBsBkW4R94D3jgFol5QBsfH8Zz4EHxDaoY+BlmVRlczmy8x3g/c/+BtGW1U9pF1mJH/UFEJPFreyHnNsPfCN/BdtGVfR8xhjzqFRjW2T0GXnu5+up/Uc762rPYqI/xoDMRmJ73Uaif7QFM2USbaO2q/Ek1kllv0Vmz3cFK7NwnY4kFW+un0t8z9Avr/cB5hK6Gqwl4bZjgO3rrz7/KitiYMPKuVXQ7pT3YpXeuTFz3vB1t5Vz2+uF+PfQ96vLzPmpMSizHu1Ey5Geb4XZ/WXsGV8dB8qxHetVGxDbxTrp2aot0fqsrxenZPasn7gFlS3TOfTaZz61jfwK7ZUfVH1XbVGfURZL1D/DbNwOLO8JH3YznHIxV30IZzHRFtvSFu1AbRqDLV4fBrbeSjWA5Bo/9JFE0wFS2+F9gK8l2g53uWJ/Gq8r8Ui7K7UNNFU7gLKKaDkSY83pVOd79f7qe5/FnNouMhs/0xeo4nQ/YKa/LKbXT8+XkfljH6TX12g/xhjzqPSu5fSzkZ+tKiXWlcyn/VSKRF8WQ9Sn7VRE6+qPIrEOYp1kcVl7oDaNibHRXvkByiraFK1r7Ip6zMS8FavJKCTMcI1OsELtnNVjhO+JKs6/Wl1W6GG/mG/gl1lxHJg3wA/byutCPF4T+rg0eF0VPZ/C143jhVBe+hvM7Icx2Go865m9oucjo5joz+LVhvJIPXp+9VVl0IvLRLSu/ij6dUt69ZHvFEXUxnK2jbZIZY+M4qIfdRVtpCqTGVsWA2jHlmJdtz00porPYmbagZ5vZ5b3dG5ijgMMYTnaQRULYnlUVzIfBldNiuH4+UunWXsMeByMEa/vC/xsg+99Y59I5OHx02aXPjW2JeE28dHXxiChB6KPVHYAX89v5snOd76/KmXGPvLPUMVX9gqNz9pV9ojGZfEju5ZVSqyTLBZk7atYY4x5Flav5SoYXymiNpYzWwT2qIzKTtRf9VX1kbWNZVLFglEsYTvasm0U0TKJsRqjZaWyg54PxH1ck5UEFtC5AGhPuZyQ0IrvQfZ+tATb3/x4fJhTZCv02qoxOSbQjkmSeBV4/eyzzUeQ3LsgfN2V3ozevuCjZtE2mXr0/FX7kS0rV/6Myq99UazrFlTljBhLKb0+stgoMvJlVHYQfVV/LMct0LJS2ZVLxMRyJiXWSRan7eOWZHW1abvZWFCVlcp+IZb3dmpiLn7IZh+8Wq/shDYV7RlZLGAZSTgkzxS8Bn3sVNvq4It2eLSVfo3TO1W9BB6Tb7y7hTLaYeBFkg4/DHGMPRDrhP1S5vLE890YY4y5d1au5TIRLUcyX9YWW1Vli2S+LJZxGh/jYkwmjcuIcbqNMJYiLEc7UXv0a71qq4ziAew93QunXMvhel1XaOl1fwVXeeFH4DB/wOOmmFNk752K8wSCNtnqsFf2wxyjfLxz8yMRh2MiMel4CfCaKnq+3an2pXaURyJajvR8oPLHfSj0RZGsrHGVbUaRaMviqnYq2pQYE0W0DHr1FR+BvSeF9Z6dIpkvU0ZlV2I/mWIc0TKJ8T16MTM+9fdsLJMYB2jLfKSyX4jlvbVBYYJ7S1RUAxBehw5Uiv4aa/z+B4I+9Q5XrAMm+diegzz6rwZdc1vc2/lujDHGjPDYZp6JU873V/MEJMG2a/cKxMLf5gKSZOMKuGrOAdIVetm8jMeg/W+xrf9NnIu0Y9/qmG/o3ITH8lS88QTcGHPjXOEzwYm5AzoIcaAirwbdA4hhMg2DXLbkm0k3Be3wPsJOcfDEwHjclwyo5ra5t/PdGGOMGeGxzTwTp57vOh8A6ZzgkCyLN+cjcQ4S4c17gjlDdtxVcg12Jviytjg+nZcYY4x5G54nMTcxwBxXwG2xWFaud6XaQBmSc3rnqhoAQRywAQZV2HRwPSbxPBjeHTd3vhtjjDFn4rHNPBOnnu+vbsIfknB6PR/nAmiDeUSzhet+nV9EXs1HsK9ibsYkW5yDpGz94Bir/RpjjLksD5+Y42CJ4x4dUxu8DokyxGPg0ztecTB8MRB3BsbmCwN0BH2PYsztcivnuzHGGLMXHtvMM3HO+d5Wn8lqOH0C5kWi7TBfgGBDMqzNP0LyLLupT6Kv9S/zFQVzFcSn/W3HwrnNzDzJGGPM5XjoxFwbaGSwa4Nm57h0UGVsHOzaALYNbkS/Z669N0VirSXxDoMwjodCHXbsz0m5+8UXM8YYYx4Nj23mmTjrfD8k3JQ2Bzlc/8OP6/70JjzabvYX+0/6Iy8WBhzgPiqwb8xfMG/BU0FNWxk2/58bY8z1edzE3GGQw+Cl9JJzsLcEGcrxTpck5zi4Ab0D1eubcFk51frtDKTmPvBFjTHGmEfDY5t5Js4937P5AuZNTKKNkmfRj5v32p/S5hzFCj1jjDH3x2M/ysrk3CFxRsoEGuIPr68NpoeBFLTBlsvQN5icU7sHxefFkxdjjDGPhsc280zgfD9XH7/62LaYJ0BYlYa5BZ+QifEqzCkQz7awtf62+UWMhe3VvvD92Fsfr2Ity7Ksm9dFE3O3IgxyGKh0oOMgGWM5yLXyr34sQ0i6MdEHoU/EYyBkHWVtY1mWZVmWZVnW7WuV2Ab1Fzfpf/jUnt5pcw5Z4VYRHy3t3fTHvCNbNGCMMeb+ePgffyBxoAPZyjl9NLUl4cKjsBggdRBEeyTjuPQcSUDzfNza+W6MMcaci8c280ysnO+IxZwIcwUkyBTY4/xhNjGnT++QbD5CWuxhDgKyuY0xxpjb52kScyBNxAWb3n2qBtFXyTnEHAbF3uBpHhdfBBljjHk0PLaZZ2LmfMc1Pq712yq27dofbVpZwA1+xCjTibmNGNtbCfdq/0jshX0bY4y5fZ4qMQcweMU7W5qc44ALMCjGwZbE5ByBLfZvHp9bPd+NMcaYU/HYZp6J7vn+w+f5QrsBf3iyBsTHSYk+gQOyZF2PVyvhQn8KYjF/gRBXJfGMMcbcLk+XmANtEO0k5/g4akvSdV5vTM6h3gbHYuA0j4snL8YYYx4Nj23mmajOd1zr4/peV7ER+DJ7W7kW5hCtLsm2HnGO0ZuT0Ad5DmKMMffJUybmQHaHi8k5vRs2+s44DJy8g9ZW100OuOax8OTFGGPMo+GxzTwT8Xxvc4Jt3hNv5iMRRuIKOqXNKyRph/5WVrO1RJvsSxcRRDTOGGPM/fG0iTkQ70aBlmTbXiMH0jbgDgY7vFYPiM/NPZzvxhhjzAoe28wzwfMdiTbMBeIN92bf5gV6077Ni6qb8lg1t8Wrf2ZeQXA8LxJ56G9yHmaMMea+eLPE3Lt375q0rFJYj3Yla0cyH23R9+4n7z4PvBtf/tGXTR9++uHTlz/7XIbinTJjIqdMXuK5CGIdVDbaWVYprEe7krUjmY+2qMqnsB7tStbOGGPM23LNaznQ8/VYbXfqfsxj0Z6COXxHG5NnnAtgXvD+/fs2b2jzhIP9w4cP6fkDW9MWf+zjoJasCxzjg774gy9erMjDnOWW5yU45ktwqX6NMeZWWP6UOzUxRzjQKKzHLYixJGtTiX6iZaDJuQbvcG1gAH3hMyYhO9/1HMwUyWyk8mV9sR63IMaSrE0l+kksax3ENjE+I4s1xhjztrz1tRxBvVJGFqcaMRNjHhskuz5+9fHVY6nH75c7/C/gXDnOCzor2PSc0lVynFdkSe8M2Nke7dr8ZNvvrZ6zlzquc/u91ffLGGPI8qfUuYk5wA/H0ZagPhLjFK1nMVrG8WYJuHZna/I1m+eld76DeG5mxHOzJ4X10ZagPhLjFK1XMSD6qi1BfSRjjDFvz7Wu5VhWMlvFSixYjTePB+YAOg/A6jlc/8fVabiZz6/BQRKv+s44nlPY6hwD84osoafxCupZcvBWudSx7dHvLb9vxhiz/Al1amJOPwxZHm17VDFVH6hnNqUNnGGAxQA6+gEIY6rJS3begWjvlbVOsvjRtkcVU/WButqy8mjbYybGGGPMZXnraznUZ6VkftWImRjz+GDFHM55zHVaIu2Hg0P44osvjt9D3R59TW7qAz2nUG6Px/7t958TcxtItmnSL8aT7NzMbLfCpY5tj35v+X0zxpjlT6hTE3OAH4grW5Yj0c7YTNFPtEzaUvHDd0tg277b4bD8PBL7M89Ldb5XimS+GFfVV7YsR6KdsZmin6hvdstypLIbY4x5O976Wo5UdnKuX0HsJePNbYFrejwOyq+sUdqqOdygTxJyRL/zLSbXlHiOcL9MzIE2pzrsqzqnol3rPR/I6lVM5gO0q5SRH2R21kdtVJHMznqvjTHG3CLLn07nJOaIfmj2tkBtUSswXttWfXDwxGvo7Uf7Ms9N73wno3NF/Ty3MkVoG22B2qJWYHzWVn29LVBblDHGmOtyrWu5aO/V2c9IFfT1YpRRf+ZG+eFz4g3X90isZUm1KhGtwg9AILnW9LMvj3aisVFYbXdsuwkr7mDLYjOxfxLt6gMxlsTyrA+s+EGMJ7Ftzwd69V7bXjtjjLkllj+d3nLFHJgpE9iiSFZWW8VMjDGjyUt2HkVbL0Z90Ta7BTNlAlsUycqrWzBTNsYYcx2ucS0Hon1UPxX0w7726tPcJkjGvZjD4HvesGpOVsf1ruUIfoWVtCRf56maV2z70vaAfVTnX7RX9WqrwEaRGNfzgRU/gY0iMa7nA5WNIjFuVDfGmFth+dPp1hNzyqht1kdkJsaY6nyfURZL1B+JvtEWzJRJtI3arm7BTNkYY8x1uJfEHOo9VURfL9bcF+2HGQ4r5CA8oorvjOZjqCB+R9wwMYfE2k9/TKy176CWxJ5SnUvtxyNkpR72j9V7ZfzgHGW92gKUY51oGfR8YNVfxce2PR+I/io+th3VjTHmVlj+dDo1MZd9MFIRtWlMjI32yg9QVtE2ohejfZnnZngxd0DPl+rcyWKiLbalLdqB2jQmxkZ75QcoRymVHahNY2JsZTfGGPM2XONaLsK2VEa0a322DYCtiiczMeaKHFbCQUi8IREH4Vxu3yEniTjQ5jWH5NroWg794PFVUv04nJ4frU9J3sGHfeLYsO0l5UD0ZXW1sZzZyIrv3Lqy4hvVlVkfiHVjjLkVlj+d9kjMoRzrSuVjO9qybRTRMslskV5M3Id5XqqLuXiOsJydO1UsiOVRXal8bEdbto0iWgbRtxJL2I62uDXGGPO2XONajsQ4kNkiKzEZ57Q114XfEa2r4kD1uClAbPvBh41RYg7JNHw3HGj7KuZEOD/QL1fqsX8AH/bTEoSHhN3ofFNQz2xK1UZFtAyyurZZ8auPIloGWV3bqF99FNEyiL7oN8aYW2H50+ncxFz1gcgPS4qwHO1E7dGv9aptBuwqY0Zk57ueO9n5pPXKTmhT0Z6RxQKWo52oPfq1XvmincCuIixHO6nsxhhjLs9bX8upemiMtlE7qGwjYhtz+zARpqvT8Mgo5i0QVrdBWKGmMYDJvOpa7qifvHvx4w34hVb1sw2TcUwIohzjSKyTKh5Ubd6Ca+77XO752I0xj8/yJ9SpiTljHhmf78YYYx4Nj23mLvjh9fyE390Wk3AtWYdEnKyi4+q30fmOBBtjsHqu9U+2/aCOfl6s2Nvs2SO05/IWSaa4D9TvNbnlpJwx5tZxYs6YHfD5bowx5tHw2GbuASS9kCgjmkBLQSIvrK6bSZ5pQg9JOO6TK/P0GADqaBPt9wSTcfeclDPGmHvAiTljdsDnuzHGmEfDY5u5eZBkk7kJkmAzq9Nwbr+I2/r5+NXHQyVHf4W1Pa66tce+X6yc20DfR7sk/4wxxpgKJ+aM2QGf78YYYx4Nj23m1sFqNU2MxcdUe7TvgZPHTlFHfyk/vPwVVuynJfYk8dYeiYV968cJOWOMMSs4MWfMDvh8N8YY82h4bDO3DpJjep5q8mwEE2kE/bR5TpJUi7Ev2OLb6jkkBfX75YwxxphJnJgzZgd8vhtjjHk0PLaZWycmw77+9XxiDmBewxV27ZdZi0dh8b+Q2Y/fL+f/FWOMMWdw0cScZVmWZVmWZVnWrPBoKpJg2CLxlcVQWCGHOCTVoI+/+pjGVcJjp0zuUUjuxf3GOBwfvpMONo2zLMuyrFPkFXPG7IDPd2OMMY+GxzbzZhweB0WirX3XG5Jzh2SYfodcBD791VP0sXLetiQbvhPuUOaWNtL63fYDH44JdX+PnDHGmL1wYs6YHfD5bowx5tHw2GbeAia7WoItSXbBDn/63W8hiZYl1XpoPMokJvjgY9Jw9scljDHGmFmcmDNmB3y+G2OMeTQ8tplLg4RXlXR7weav4uLcpNVH/R3AOd4Sc1v8iwQffuwhznkm+zTGGGNWcWLOmB3w+W6MMebR8NhmLgqTbQeQpOMjrFixpivYAOqaPCN8zJRUcRlsC/3yL3/5Yp9x1ZwxxhhzKZyYM2YHfL4bY4x5NDy2mb3BSjQm0ZA84znWft308DgrkmOwwx+/Xy5+p1wDCb4wP0F/ve+ma0g7xKL8IlGIVXNSN8YYYy6FE3PG7MBdn+/bhenxDjUvgp/hcY1nfd3GGDOJr+XMbmzjK1agIdGFMRfnFr6zDWD8bWNwQpZga3ORMF5ncdgflI3tSP61pNvBhz6R8MNWv0Mu25cxxhizN2+emHv37l1XJPNVIplvL0XUlvmVkb/HTN89kcwGMhtRO+MqPTvXmrxkfwvVCFx88gIZF6l6l1ovTG+F7DVW6nFvr9sYY67BW49t+vmtn+dqJ6xHu5K1I5mPtuiL5UymBuMqknBc6cY6x9zR3KLFbeM0QT8t4RaIcQDnMJOBSNy15OC2P10Jh/7gQyzLpNkPx22MMcZciuUriT0ScxUzFzarFz+z8Rq3ehy9ePh6GjGK6fkzX7SxXvWzan9W3nryQnp/h9HfqF0Mbxem2GbSO8m3zsr5yNfG18kL8Xt83cYYc0mysW31uiDaUa9EYh2wHrcgxpKsTSX6iZZBrCs9n/kM5g8YYwkSXtQw8bWNyXFs5jgeScfwrY6EHVbVtX2JH3Yk7QDPd67kA4jPkoDGGGPMnixfSbzVirnITGwWU2klnpxSpiKVPTKKYT+VCMuZjcQ6yexV7LNyzcRcTz1wodkSUttFaaZ7uBhdfc1AX/fHrz5++vk//nkTyvfyuo0x5i04NzFH20obEttWW4L6SIxTtJ7FxPiMmZhnB+MrE2BKtsotIz6qWvXXbrBtcxWM5SPQp/ZxTMz9WhJzm83XBMYYYy7N8pXEW6+Yg03tsVz5SM9Wte2VWR/Fqw1U8SNWYnvE46r6hX1mnzMxz8Q1E3MVo78R7irjwhXHnmrztTvPN0g8T2O599r5unFBzqQc1d6PG37dxhjzlmAsiFSfr5mdttk2Wo9tq22PKqbqA/XMNmImxuRJuNnEHMDYrKvk2o225BzFijj4Wnzse/O1cX6bz2iiD7CvF4m5LdaJOWOMMZdm+UrirVbMxTqJtiyONvVpmWhMTwrras9sEfhUM4xitb+eGKtbonGVj1Tlitj+kanO90vD97hSDyaocOypbjBBVb2uaOu9fr5uJ+aMMaYPxoJI9dna+xyebQNim5kty5FoZ2ym6CdarujFxP6emePXRQjtcdZtPJ4B56MmybL+FK6qw6OpSLZBmMe0PuLjrhvtfN/sOtdZOT5jjDHmVJavFM5NzN0qsxdNjNP4yqaKjPyA9pG/h/ahmkVjY3nU18j/SNzb+Q5wYYqLTRx7Jvge8S6xvu6Pv5JHWbfyI79uY4xZBZ+JkWpcj/ZRHfSuEegbbYHaolZgvLad6aMXo309GkiMYbxEcowaJbEQjxtghI+ezhJX2O2ZOMP53o5Pzvt2bEkSzxhjjNmT5SuFUxNzvDCZFcl8KiXz7yUl2qo4pefL0P6qttGexfVscQtifOWLcc9ONnm5JHj/V5TBi2Eceyb4EHOLZK9R1ePV6z6snruH122MMW8JPhMj1WdstI/qoGeb3YKZMoEtimRltVXMxDwSbRw9JOIwhiJRRmE8beOoJM9egBVpWztNdqFexge47yNJf6eCJJ/2jWPS76AzxhhjLsXylQQG2xmyi7mM0cVMz7/HxVLlH+1X/bFOaO+pIvqy2NUYlCnWs62itqps3j4xV7H6d8FFJ/6nW2Lq8Bjn8KL6Bui9zpn34F5ftzHGvCWnJuZQzhTp2Wa3YKZMom3UNusjMhPzKLSxEom03g2sQ7KsGk/Rh36/G2+YzRJX3aF87kp39KG/xrpnws8YY4wZsXwlMTtw9hIV8cInSol1JfNpP5Ui0ZfFRDRmNZ5U7arYaM/qVYzaoy2LIbBl/iw2om0fnWsm5uLfJWoELoj1URSUuxfcN0Dvdc28ZnCPr9sYY96SKjEXP2ejLfscrtopWT1rB9SmMTE22is/QFlF24hejPZ11/zw+TFSTajBhiQbxk9NlDUGiS34dMxtfcxeS6HvMB+J/c2C5CFfl+4/PjJrjDHGXJLlK4VzE3PxAmV0scL4ShG1sZzZIrBH9VB/L7bXV2Yfxc+0YT2LBZl9JrYqVyBmJu4RuFZiLr7Hz/J+83VXMsYYcz6ja7nsc1fLkejr1VGOdaXysR1t2TaKaJlktkgvJu7jXomJKpwbmBMwodUeA93qmhxDfEvOJaANknFHkmRbj7bqblNja9uSa6wX4NhwTHq8OD6e5+31HfqizRhjjHkLlq8UTk3MxQsT1isRLUcyX9YWW1Vli6hPY0fSeEVjog9ktkjsY9RGY7TNSJEsRvXsvPUFXHzf9W+R6dHovaZHfL3GGHMNrjG26TYCu4qwHO1E7dGv9aptBuyqRwZJLE16of4iqUaQXAur5Hor4WKyL+5nBBOD2L5asRdgHPbZEm+Il+MEONZTV94ZY4wx57B8JXFqYs6YR8bnuzHGmEfDY5vBOYBEFkHyqpc8e/V9b0jWFXMHJMDiiroWGxJmFTi26URe5zhwzPDNznGMMcaYvXFizpgd8PlujDHm0fDY9mT88Dnxpmjy7FXSLdASXGHFHEDyrEqgob+2eu3AaB/nwH21x1kP+8G8BqvpcMw+340xxlwLJ+aM2QGf78YYYx4Nj21PwiEh11aN/e7H71wjfPQzS7o10H6LaQmuA/qIKmjzh6JtnFtgP5d6nJSvEccaX6fPd2OMMdfCiTljdsDnuzHGmEfDY9tzgGt7rlprq9skwdb44dOnr3/zdXo+IAEXk3n8Pjf2CbhCLSOuqEOf+vjsW+Hz3RhjzLVwYs6YHfD5bowx5tHw2PYctBVqhxVuZVIsWe2G86PF0ofVb0jSISF3KGu7tp9iJVybX0hsW6X3xuefz3djjDHXwok5Y3bA57sxxphHw2Pbc4AVbrpiDavjRuDc0BVwqMfEG7/TjfRWwml/bRUeVty98fnn890YY8y1cGLOmB3A+W5ZlmVZjybz+MSEWW9lG4jx7THVJOGWJeJasq44rzDHwL5bG1k991b4fDfGGHMtLpqYs6xnkjHGGPNIZGOddX9iMqynj7/62LZttRqSY502H7/aYv/mcyzi+P1zr7TFIBZxFG1VPFbupT7LsizLemB5xZwxO+Dz3RhjzKPhse2+wd8P1+1InkE9sEoNiTPQVsAV8ejz6MP3yHXmBS1xxxVzsgIuPjp7K/h8N8YYcy2cmDNmB3y+G2OMeTQ8tt0vSIi1BNohIfYioZbQfhn18GuseIy1ut5HH0jcASTesLqugn22X2nVuEFC71r4fDfGGHMtnJgzZgd8vhtjjHk0PLbdL7oCjvSScy0ZJ8mz6gcgWmKO50UvwUbftkUblNGOybxekvBa+Hw3xhhzLZyYM2YHfL4bY4x5NDy23S+6Ak7B37RKimkyLkvsAfTJFXMg1gGTfGyPuQNs6L/ZOz8scU18vhtjjLkWTswZswM+340xxjwaHtvuFyTF+P1uLRnH73rbaPUkOafJuPYIavI9cHFlHUA7zA9gp46P0Or31R1st4rPd2OMMdfCiTljdsDnuzHGmEfDY9sNM5HkOq6A22K//vXXL1bQZcm5F98zJ4m9iCbwCBJ2sOlquGMS78YTcsTnuzHGmGvxpom5d+8+7063mTIqe4+ZNlkMbdiqP6uT6AO0RdGnW3PfPOL5bowx5rmpEhU6VnDsyES0rMS4iixmph2Y3UfGW7VbiWeyC9fjo0QS4pgoQzwScboKDu01OXdMpIEfOtf88A0Sbuj7npJyYPR+gpXzKcatnhfX5t6O1xhj7pnlT9w9E3MglrNBgHbVDKO4yt9rp/vXbdVG7Vm5amfui0c9340xxjwvs2Mb6I0lo/En86tt5FdgnxFjM2KsKiOLU42YiQFIorVk22G1Guq9ZFLzH77/jbFtVVxMzsnKOP2euXbNXyTWWhJv82OFXVspdxDqTALeU1IOxPcy/h33lhLrtwCP6RaPzRhjHo3lT9q9E3MA9exDP7NncRWjWPqrfWBLZVR2RWOy8kwf5vZ5hvPdGGPMc5ElKuK2ksJ6jIkisRxFe0ZlVzQmxqOe9THTL1mJBVPxh1VqXAFHesk52FuCDGX5rreYnENCjck5fUy11zdBvzguqvV7Zwk5Ur3W3t9nxhe3kV4ft8I9HKMxxtwzy5+yeybmsNUPetZXVTHj022UkvkrzcYzztw/j3a+G2OMMXFs07GC5Wz8iHFUJLOB2F5hHdte+54Urce4npTMrxoxE9Ngcu6QOCNlAg3xh+t2tEFb0pJz8p1zTM6p/cUPNzwBvcRcTxHa1Ke22CbWb5F7OEZjjLlnlj9lz0nMkWpQOuVDv9eGfUapL6Oyk5k+iPqzcq89fD2/uR0e+Xw3xhjznPTGNqJjiI45itop1nULtAyqum5jjBLjM6KvFwvO9SuIXY1///79dHKuXbcfVrDpY6oAibeYnEM8E3gxmffozJzvI/Tvmf1do6+KiYqM7JmfdfVVMaDnM8YYsy/Ln7DnJubwoZ6pIouNquj5QOXXvjMRlkd+Eusgs5HYn7ldHu18N8YYY+LYlo0XEGFZbSDaqy2I5Z5PyeqjGDLTl6J1lGdUQV8vRmF/WN0W/z5Zck4fTW2r7cKjsDE5h/b4BdcqmffIZNdyfL9HIrEcRVhWG4hxoFeP5ZU66NVHscYYY/Zj+RN2rxVzGad84PfajPqDv6cRvZjMpzbuo9eHuR+e4Xw3xhjzXPTGNhDHD5bjmKJ2SuuK1jVOtyC2U+AbSTm3firoh32d0meaiAs2fTQVWyTiIq+Sc4g5JOayZN6jkp3vM3+XLKZqF+2jOqhsFBm1HflBLz5rb4wxZh+WP2HPSczhA31GJPNlqhj5Kr/aWWb8jCp6PnPfPNr5bowxxvQSFXELMhtAPdpAZq/idAuyuIyV/skp9Z4qoq8XW4FEnP6QA9DkXPv11MPjqEi4wZcRk3MEttj/ozI63zPRp6hdfVqPWxLrQG0oxzqZaRuJtl581t4YY8w+LH/C7rFiTukNEtVWyWyk51MQF2MzmzLyA8aMVDHym9vh0c93Y4wxz0c1tvXGkcpOtB7tuo1EexUH4BtJiXWl145Eu9Zn2wDYqniSxbRVcZ3kHB9HbUm6znV8tnIO8fH77B6VUWIukvlQjnbaWCcztqyujGJjPRJtvfisvTHGmH1Y/oQ9NzGHD/XsQ7+yAy2TkR9UdgJ/jKFN7bHcq/eYjSMrfZvr8qjnuzHGmOdldWwD6qvsIMboNsZVvhlG8VWftKsvs0VWYjJObauPrBIm59rjqIfk2ug747iqDm3a6rrDI63PwCgxl4k+smKnjXUS7epXH6WMfBlVm1jWujHGmH1Z/oQ9NTGXfdhnH/I9W5SS+UdSeraojOjX+ozMffNo57sxxhhTJebAaMzojSXRF/thueqD8VE9XxSJ5ejP0Bhto3ZQ2UbENrNkj6O2JNt27Q4fmPnOOPzdn+V75ZReYi6DfyfG6HbGTmI9MvK/BbdwDMYY88gsf8qeu2LOmEfE57sxxphH45pj21skAh4x2cAVbwqScfyeuWf6zrhVbuF8j+ck6tc+Tx/x/8QYY26N5U9aJ+aMeY3Pd2OMMY+Gx7b7BH+3F8m5Hz4n58ArnzlyK+c7k3G3kJQzxhjzNjgxZ8wO+Hw3xhjzaHhsu1+qBNzoByCeGZ/vxhhjroUTc8bsgM93Y4wxj4bHtvumJef++mVyDj8CMfoBiGfF57sxxphr4cScMTvg890YY8yj4bHt/sEKOSTnuGXZvMbnuzHGmGvhxJwxO+Dz3RhjzKPhse0xaI+v/u63/nsO8PtjjDHmWlw0MWdZlmVZlmVZlmVZlmVZVi6vmDNmB3y+G2OMMcYYY4wxZhUn5ozZAZ/vxhhjjDHGGGOMWcWJOWN2wOe7McYYY4wxxhhjVnFizpgd8PlujDHG3AYYk/Hro/jBA+q7v/E4bYwxxpjbxIk5Y3bA57sxxhhzXb75/TftOhXb7//2+xf69p9/23wer40xxhhzazgxZ8wOvOX5/u7d8r+tuTH8NzTGmP34/vvvp1fFYSUdEnXGGGOMMbeCE3PG7MDs+Y6EDJMyLEdlvsxGrXJKm3PRfV5j/2C0X/hjzEwbJeuD0FfprdF9xmOher5Kq8y2yeJW98djpM4hth/1p/7Vfc/EVzGZfcU2q1my+Kz9ap9xmymjsveYaZPF0IZt9Gc2UMVlUmK9x2z71T57zO5zBoy/SMp9+uFgAFsZSbpvv/02TcJpfLXfnr2nVbJ2WT+n9H0Ks/vZ4xgRrzqH2H7Un/pX9z0TX8Vk9hXbrGbJ4rP2K31ekpnj6B0/tupXe0aMj/R8hH1UundGryF7nbOvO2sbYUxPe6F9xX2oiJYzRn7zXCyfDU7MGfOa7HzXD2eW9QNYyyTaYhuw2kdk5L8Eo2NeoXrNvX7pG8XMiGS+TETLkZ5vD+KxgNGxVcc0agdgr3yRc+KijfvtaQ+yvnp9x/hebMYoPvavRDtjR1K0znJmAyj3FMlspOdTGKfxsZz1RbtqhlFc5Z9ppzEz/WTl2A71niKZjfR8hDGjfmY0AmMvVsAd+eHzijhcq+LRVYjfNUe+/KMvm/C4K9H9xW1F5q9sPUUyG6nie21Wme2rOhaFx9bTHmR99fqO8b3YjFF87F+JdsaOpGid5cwGUO4pktlIz7cX1XGR0TFU/pFdt6oR58ZE3+x+34rR8dA3ipnRaiyJ9Yj6dV+nUvVX9dvbX89nno/ls8GJOWNeUyXmImqb8bPOciWi5YqZmFsnew3V64r2Xlv1ZTalslcgvqdLov1n+402imS+TEqsgxjfk1L5ue0xE7OK7r8nomUQ60DbzYpoORJ9rOs22iJqZ3xURmVXNEb7y1RBX4yp2mX2LK5iFEt/tQ9sqVivpGidZY1VRTJbRGO0r0yRaOvFqC+zjeDjqwQr49rjrMl4DB8TeEjKgep6Vo8lSsnq0RYZ+YHGsM9KRMsrxP56Uio/tz1mYlbR/fdEtAxiHWi7WREtR6KPdd1GW0TtjI/KqOyKxmh/mS7BqN9Zf4xTO8V6ts1guxkpmV8VyWzXoncs0dd7LerLbBH4or+KV3sWM9vPKuinksJ6jIkyZvkscGLOmNeMEnPZh2+0UerLUHuMqdooMzG3TvYasveieq1qXy0D1KM/kxLrSs+3B1n/alvxz5RBrGcghupR9T1qB2ZiVsmOh8rI4kmvHZn1s69KMzGUonWWMxtBPdpAtPfKWh/BWN1qe9ZXVTHj023UiFFMr7+qbRYLor1X1nqk54/9kJlyj3Y9engcFY+ttsSbPs4aaCvovv32mJhDPBJ2cX+sj46japcBX+aP9l5Z65GebwXuZ9Rf9LM+agdmYlbJjofKyOJJrx2Z9bOvSjMxlKJ1ljMbQT3aQLT3ylq/JKP99Pz06TYqQlvczsA+R216/sw36u8tqY6vOka1n1JeEanKJNqymFNYOYaKvY7FPAbLZ4MTc8a8ZmXF3MyHMOM0PtooomWSxeqWZYX26GM98wHaVaQqkxgPWM98oIoHsRyl9kiMidCf+Xpou0yXJOtf98tyFMl8mRSt9/yZT8l8vba0jXQqWftev1U8t5lvJCWzKVn8CMawbyqzUSTzUZHMF+OydhWxL5DZZui1YZ9R6suo7JFRnPpjbNYWtkqRzBfjenW2Vak9EmNWwKOoSMi1lXMz16Y/fL6GjYk5wOMYSYm2UVymSOaLcVW7ithfBWNG8Zmv15a2kU4la9/rt4rnNvONpGQ2JYsfwRj2TWU2imQ+KpL5YlzWbk9G/fP4otSX0bPPKEJb5T+HXn+X2F+PuC+t81hUao/EmIpVn9pGfjDqv/LTR7/Wo4jW1U4ym3lels8GJ+aMec1MYo4fzrRrPUoZ1UkWl8VGe1UG0ddrp3XQi1V6cbPtQKyvEvdHop3laMukxLrS8+1Bdiyn7nO2ncZl+2M9biNsm8X1bCTWgbY7VYTlaAe0VfYelV/t7Ie2rE1lq5ShdpYzW0bPB2I/lUZkbaCKLDaqoucDlV/7PkUk81XKqOxE/dpX1DlUfSz1jUTb737bhOTcDJqYa+2SH4Ygo+PovYYeK37uI5MS60oWn8GYuI2wvyyuZyOxDrTdqSIsRzugrbL3qPxqZz+0ZW0qW6UMtbOc2TJ6PhD7qXQpRn2f6udxq2hXMnuMATGuilkR0XIkxl6aPfZVHfPIXimitpEfZDEEvp4f0K9xVRnM+oxZPhucmDPmNaPEHMtxS3p1bZOJaBnEOunFoRxFtAx6PlD5q1iKxLhT6iNpnJaj1Ee0PAPbV7ok2j/Lut1TRMuRKi62yeqjtlmbSGabIdtHtPV8AGWt94hxVV3tozYgs4EVexVL4J9p14tRXxYXqWJm2kZ6bUb9wd9Tj9kYEmN7bau+Z/qgTX2xPJLGaTlKfSP4y6uzfP2brz8n5n74XCa6Lz0GEo+l8sU4Bb7MH229GPVV5VOY7Terj9pmbSKZbYZsH9HW8wGUtd4jxlV1tY/agMwGVuxVLIF/pl0vRn1Z3B6M+p3x9xSJvrgFWgaVL8YpPV9kJfbSZMcC20gap+Uo9REtRzJfbBtjRvVV2J77yqT06tFnnpvls8GJOWNes5qYAyhnIrFOMhuI9lPiqjZgtV3lj+WZOLBaV3q+U9E+Uc50K2THUh3fW9tHdWUm9pSYVdhe+8lsBDaK9cjIlvlJ9I3awdZTRG0xliKZL1MWS9Q/g/bRE8l8mSpGvsqv9lFM5QdVP1Vb1GeUxRL1j5iJKfnh8w81UL3vjFsF/eHxVSTmkMzThF7vtWavpxcfgX1GWSxRf0ZlnyG2HdWVmdhTYlZhe+0nsxHYKNYjI1vmJ9E3agdbTxG1xViKZL5MWSxR/6UZ7aPnh6/yqz0rxy1AWetgtQ7YT6VIZrsWo2O5xLHyfalU0YtRW6+PGdi+6jP239tfz2eej+WzYe/E3OiEhP/cE7yKX7UbU3FKYk7J7LBpu0pEyyD6SRZHYpuqDEbtYp1UZTDrA6M6OSVupk0vHmR+3cY2sb4nWd9qi2UqEn1ZDFFf1q4S/ZFTbbPtVmB7bCspozrIbCDrL9Lzr+wLVPHR3usjorFVuyxmpl1FFh/7jVsls5GeT0FcjM1sJIvNoJ19aV23PTSmis9iRu2iLYsBsR+sfGuPpeJR05992RJoEOrtu+AmH1UtOTz2ii0Scyhj3EZyDgk7Hs/M8cM2E9dD46u2WUzVruoDwFf5aWdMJvojp9pm263A9thWUkZ1kNlA1l+k51/ZF6jio73XR0Rjq3ZZzEy7cxn1O7tfxMXYypZtQYzXmEr0z5LF9trrft6C0bEoVazaZ9sQ+Gfb0J751Va1B/D1/ID+2KdKyepVrHluls+GPRNzPBl7J6WeuD0xNqOyg+gb9WVMxigxR6rzqoqllF4fWayKNiWrazxZbaf+XjmKaBlEX89PMhuYsaNMZVSxKvqIlsnIvwe9/WJLsd5D46kMtc/GZay2jTbW2Q91DlkfvfooFmQxlNYzKjvIfLPxKFexoz5iP9zGdlUsqMoZVT+VHWiZjPygshP4Ywxtaq/KSrSzD9rjlmR1tWm72VhQlUGsk679kDBDsoyKYHw9JznXfhyC3ye37e/DTz98+vrXX7c+8UutSAS2pOAhBsdFZahd40Zt1NdrU8WCmXIEvp4/Mort9ZfZo4119kOdQ9ZHrz6KBVkMpfWMyg4y32w8ylXsqI/YD7exXRULqvKejPqd8ccY2tQebT2/2iM93wxZ+9H+zt3nCtW+zrGjTEVo6/lALFc+MvKT2FeE/l6Mshpvnpvls2SvxFw8QbMTljb1ZTYS43pStF6VjemxmpjDdiQl86uIlq/NJY8r6y/aUK9EP4n+nkhVJpUt06XRffT2HX2ZMjJfFRvpxWX9KjP7mD2OFbI+V44T9ahor8hisvgsjqgvU0UWm4n0bCyTGAdoy3wk+qr4ni1KyfwjKT2bqkcvZsan/p6NZRLjAG3RF+0q+on6Pnz48CIpF6Ugcbb6aCtWxMV2sV/W2z5/9mX3+lVfD8sR9cU41jMbyyTGAdqiL8adQ6+vuN/IzHHseawk63PlOFGPivaKLCaLz+KI+jJVZLGZSM/GMolxgLbMtxfab9zfjJSeLfq0rnYQY5XKXsG+9uzzkmTHoscfRT+J/pFI5oMimV3jK/8paDvtuxLjSPRHGbN8FpybmOudfGrfqwxivSKLm21rnpsqMXeN8+cW9hlf+57HlPUV92de8tbvj/8e5hLwvFKZ+wRjZkuYCVi9hmvMtnrt8AirJtSwmi22qWj9b31kPwzBpB982djdVudhdd2d4P8F80g8+/l8a6//0f4ej/Z6zGOxfGaek5jTfwT+Y6jUHokxEfrVpzZV9LFeUfm0vXlusvP92eD/g/5faNkYY4wB7VrykHTjo6b4njklS8Rpux74xdUXj75ubZj44yOsEMpZ7Oy1rjHGGGPMHizPmM9JzJ1CNbHP7KckALTNan/wn7JP83g4MWeMMcaM+eb337xIwvWSbYhDAo2gHBN4GVgN19pt/WJ/2Edrl+0HiTgkAMXXEnfJajtjjDHGmEuwnFU6NzHHZFZPGqflqHN8ROssZ3HG9HBizhhjjBmDFWqkJdAGCbAX8ZOJOcBHYmfGZ67aI7FujDHGGHNJlrNPe66Yu3TyK+s/2rSOMkVivDEZTswZY4wxfWLCC+XR97npirq22m52vM1Wx3XQ/QBNCBpjjDHGXJLlrNNeibmY8KoSYL0kWdYGNtorv6L1mXgFvp7fPA9vmZjzOXf/+G9ojHlGMFYiuUamE3MHYvJsT+JqvK9/7cScMcYYY96G5dnhHom5alI6Y0eZUnq2KEVt0QcyG9G25rmZTczpOcNyVObLbNQqp7Q5F93nNfYPRvuFP8bMtFGyPgh9ld4a3Wc8Fqrnq7TKbJssbnV/PEbqHGL7UX/qX933THwVE+2oz0jJbCCzjaj6j6z0zVjdZsqo7D1m2mQxtGEb/ZkNVHGZlFjvMdt+tc8MrpjjL6MiEcZEXdamJfLw66wbre3kNegK3C/2cxzLf/j06f0fvv9cDiC+p1Wydlk/p/R9CrP72eMYEa86h9h+1J/6V/c9E1/FRDvqM1IyG8hsI6r+I6f0fQlmjqN3/NiqX+0ZMT7S8xH2UeneGb2G7HXOvu6sbYQxPe1F1nemipHfPDfLZ8a5iTk9aaPoJ9HfU0ZmV1v0sy+VMTNk57ueQ9k5pWUSbbENWO0jMvJfgtExr1C95l6/9I1iZkQyXyai5UjPtwfxWMDo2KpjGrUDsFe+yDlx0cb99rQHWV+9vmN8LzZjFB/7V6J9Zt9ZTNxH1Q/jKkUyG+n5FMZpfCxnfdGummEUV/ln2mnMTD9ZObZDvadIZiM9H2FMFYvrSCbmoA8//dBiMyFZxhV1S4+xdmDfCurv379vCbmWMNz288UXXxy8ObEPUNl6imQ2UsX32qwy21d1LAqPrac9yPrq9R3je7EZo/jYvxLtM/vOYuI+qn4YVymS2UjPtxfVcZHRMVT+kV23qhHnxkTf7H7fitHx0DeKmdFqLIn1iPqz9ivMtM32N5IxYPlM2GPFnDGPRpWYi6htxs86y5WIlitmYm6d7DVUryvae23Vl9mUyl6B+J4uifaf7TfaKJL5MimxDmJ8T0rl57bHTMwquv+eiJZBrANtNyui5Uj0jdpm/pEqej6iMdpnpgr6YkzVLrNncRWjWPqrfWBLxXolRessa6wqktkiGqN9ZYpEWxaDhBdWyiEBRr782ZctCffuJ+9aIg46/rLqBur4zrf2a6kHtXH3hMdas2PC8XBfOC6s6uNrVClZPdoiIz/QGPZZiWh5hdhfT0rl57bHTMwquv+eiJZBrANtNyui5Uj0jdpm/pEqej6iMdpnpksw6nfWH+PUTrGebTPYbkZK5ldFMtu16B1L9PVei/oyWwS+6K/i1Z7FzPYzw0zb6hj2PA7zmCyfEU7MGfOaUWKOH8hUZqPUl6H2GFO1UWZibp3sNWTvRfVa1b5aBqhHfyYl1pWebw+y/tW24p8pg1jPQAzVo+p71A7MxKySHQ+VkcWTXjsy62dflRjDbWbTbUbPRxCTxUV7r6z1EYzVrbZnfVUVMz7dRo0YxfT6q9pmsSDae2WtR3r+2A/g46yEq9SQHGOSTr+LDo+x8hdcKfhxTdriFhJ08TiRDMTxEBwL+qxeD3nVTycevswf7b2y1iM93wrcz6i/6Gd91A7MxKySHQ+VkcWTXjsy62dflRjDbWbTbUbPRxCTxUV7r6z1SzLaT89Pn26jIrTF7Qzsc9Sm5898o/7ekur4qmNU+ynlFZGqTKIti5mFbbHtaSYmypjls8CJOWNeM0rMkdkPX8ZpfLRRRMski9Utywrt0cd65gO0q0hVJjEesJ75QBUPYjlK7ZEYE6E/8/XQdpkuSda/7pflKJL5Mila7/kzn5L5em1pG+lUsva9fqt4bjPfSEpmU7J4btWndbVHej7AfjJFMl+My9pVxL5AZpuh14Z9Rqkvo7JHRnHqj7FZW9gqRTJfjOvV2Val9iM//JicY4JOE3UrYLVbS6xNJueOx7HFIxGIJByPA8J3y/F4o5RoG8VlimS+GFe1q4j9VTBmFJ/5em1pG+lUsva9fqt4bjPfSEpmU7J4btWndbVHej7AfjJFMl+My9rtyah/Hl+U+jJ69hlFaKv859Dr7xL76xH3pXUei0rtkRhTsepT28gPRv2P/CNW92cMWT4bnJgz5jUziTnUqViPUkZ1ksVlsdFelUH09dppHfRilV7cbDsQ66vE/ZFoZznaMimxrvR8e5Ady6n7nG2ncdn+WI/bCNtmcT0biXWg7U4VYTnaAW2VvUflVzv7oS1rE21aj2XWdTurip4PqF/7ixqRtYEqstioip4PVH7t+xSRzFcpo7IT9WtfUefAPpAYw6+fYoUcVsExOXYEyTOukEPMFo9yTMLxRyVmwH7RF65n9VdY2Qe2YPQa+RoiM+16qJ/7yKTEupLFZzAmbiPsL4vr2UisA213qgjL0Q5oq+w9Kr/a2Q9tWZto03oss67bWVX0fED92l/UpRj1faqfx62iXcnsMQbEuCpmRUTLkRh7afbYV3XMI3uliNpGfpDFEPhGfsJYFe1KjIkyhiyfDU7MGfOaUWKO5bglvbq2yUS0DGKd9OJQjiJaBj0fqPxVLEVi3Cn1kTROy1HqI1qege0rXRLtn2Xd7imi5UgVF9tk9VHbrE0ks82Q7SPaej6AstZ7xLiqrvaVNrGd+jJimx5VbLT1YtSXxUWqmJm2kV6bUX/w99RjNobE2F7bqu+qDz4+CmjT2FgeSeO0fNRPPgvXmUzQIVHWknGbMM62JN1WRgy2in5PnILvpkPyr2kr41FZ/qAE4b6Q8NPjI1oGlS/GKfBl/mjrxaivKp/CbL9ZfdQ2axPJbDNk+4i2ng+grPUeMa6qq32lTWynvozYpkcVG229GPVlcXsw6nfG31Mk+uIWaBlUvhin9HyRldhLkx0LbCNpnJaj1Ee0HMl8sW2MGdVXiPtSWF/ZX89nno/ls8GJOWNes5qYAyhnIrFOMhuI9lPiqjZgtV3lj+WZOLBaV3q+U9E+Uc50K2THUh3fW9tHdWUm9pSYVdhe+8lsBDaK9cjIlvlJ9PXaoU6xzm20RUZ+wH5GymKJ+mfQPnoimS9TxchX+dU+iqn8oOqnaov6jGIsfi2VK8jUP2ImpgIr2Zg0qxJtpK2ik++hA+0aNaymQ4yujNMVeRi7sU8kBEl8rdnrUVsvDsA+oyyWqD+jss8Q247qykzsKTGrsL32k9kIbBTrkZEt85Po67VDnWKd22iLjPyA/YyUxRL1X5rRPnp++Cq/2rNy3AKUtQ5W64D9VIpktmsxOpZLHCvfl0oVvRi19foY0euH9czekzFk+WxwYs6Y15ySmFMyO2zarhLRMoh+ksWR2KYqg1G7WCdVGcz6wKhOTombadOLB5lft7FNrO9J1rfaYpmKRF8WQ9SXtatEf+RU22y7Fdge20rKqA4yG8j6i/T80Zf1p/XMD3ptRsT+M7KYmXYVWXzsN26VzEZ6PgVxMTazkSw2g3b2pXXd9tCYGI9EHJJVSGAhSdYSV0nf2X6iLYsBWT8tSXb4vjck12auN5G446o+gLom4Rro67AaDqB/xKB/JgJ5DDPHD9tMXA+Nr9pmMVW7qg8AX+WnnTGZ6I+captttwLbY1tJGdVBZgNZf5GeP/qy/rSe+UGvzYjYf0YWM9PuXEb9zu4XcTG2smVbEOM1phL9s2Sxvfa6n7dgdCxKFav22TYE/tk2tGd+tVXtAXwjP2GsivYKjSO9ePNcLJ8JTswZ85pRYo5UH75VLKX0+shiVbQpWV3jyWo79ffKUUTLIPp6fpLZwIwdZSqjilXRR7RMRv496O0XW4r1HhpPZah9Ni5jtW20sc5+qHPI+ujVR7Egi6G0nlHZQfT1Yslsm55dfSxHO6hiQVXOqPqp7EDLZOQHlZ3AH2NoU3tVVqKdfdAetySrq03bqR1JOayU01VlePSTY1zWB4l1MmNH+Ys/+OK4XyTO4mq4DBxvS7odqNrBzkdZ379//znmkKjLXgeVoXaNG7VRX69NFQtmyhH4ev7IKLbXX2aPNtbZD3UOWR+9+igWZDGU1jMqO4i+XiyZbdOzq4/laAdVLKjKezLqd8YfY2hTe7T1/GqP9HwzZO1H+zt3nytU+zrHjjIVoa3nA7Fc+cjIT2JfkZl+spgsdqYv81wsnwVOzBnzmtXEHLYjKZlfRbR8bS55XFl/0YZ6JfpJ9PdEqjKpbJkuje6jt+/oy5SR+arYSC8u61eZ2cfscayQ9blynKhHRXtFFpPFZ3EgiyWxjZYrevGsZzaWSYwDtGU+En1VfM8WpWT+kZSeTdWjFzPjU3/PxqQcQZIMasmvw7WftodItKvoJ9FPffjwOSHY9LMvm20GJNxI+w46WUGXEftlncfRYyZWfTGO9czGMolxgLboi3Hn0Osr7jcycxx7HivJ+lw5TtSjor0ii8nisziQxZLYRssVvXjWMxvLJMYB2jLfXmi/cX8zUnq26NO62kGMVSp7Bfvas89Lkh2LHn8U/ST6RyKZD4pkdo2v/KfSaxv3p7HqUxmjLJ8RTswZ85oqMXeND91b2Gd87XseU9ZX3J95yVu/P/57mEvA80pl9oGPr1bER0b3ho/MEj5iOiQ88tq+T25w/flo547/F8wj8ezn8629/kf7ezza6zGPxfKZ6cScMa/x+f7jYKeDnpaNMcbcHllSDgkufUR09jvfTuVVYm4iwQbaCjn5gYh2jIdHVI0xxhhj7gUn5ozZAZ/vxhhj7o0sKccfUIBdx7bZ7307hfa4rH5X3LbfeFwRfcQW4Pg0SWeMMcYYcy84MWfMDvh8N8YYc2/ElWkvftU0WSV3yRVp6BvJNtKOjccSgF1/abUdq67wM8YYY4y5I5yYM2YHfL4bY4y5OyT59iIpdwA2/W65+MjpnmQ/3NAeqd2Orx3HJtTxy6ooHzkk5TSpZ4wxxhhzTzgxZ8wO+Hw3xhhzKyCBhmTVzCoyJLkQV61Oa9d9skquJcFmfpjhBJD0e9X3tm8m7doxyrFg7HVSzhhjjDH3zkUTc5ZlWZZlWdYb6W++ayvK2qqybz8n3PhdcT0hOZfZobZq7ZCMg7CPj199TGPP1uH4cezcXybE4XoUSvuxLMuyLMu6I3nFnDE74PPdGGPMtUFS68V4dHjMU1eZnQKu/V59/9ulxr3DMUPYx6uEHHyHhJwxxhhjzCPgxJwxO+Dz3RhjzLVBYi6CZBYSaeeApNiL75ZD8mzyevBUkAjkaj0KdT+2aowxxphHw4k5Y3bA57sxxpirIskyJNKUZj9z1Vz8/jd+79vJbMeDpCFkjDHGGPPMODFnzA74fDfGGHNNdFUbf8GUvFrxdgJYqYZVa8rJCb+tDY4Hx9mO9cxjM8YYY4y5Z5yYM2YHfL4bY4y5JhiHmIxDsuvrX3/94rFPJNXiSrpV0L+ucDv1MVkk4nTc3ONxW2OMMcaYe8WJOWN2wOe7McaYa4LkFhJygKvQXqyaw4q3yWu4Ejwui1VzskquJfwWv/ctJgn3WNFnjDHGGHOvXCUx9+7dy93Geo+VWLDa9yg+81dtRvbRvsz9MJuY6/3N4ZvRDFmbzAa03GM2Thm1iccCtJ75Kxhb6VKs9r0Sv3rsM7FZDG1xf6yrPdpoByP7Clk/p6DtqzLgvmbUo+eP/VSaIWuT2YCWe8zGgZXYVbJj3/M1VDGZXW1VmUTbqA5mbRkxrj0WevjONyS54P/iD7749OUfffmjfvblp3c/yc+TjMzfvlvukAAESKoh0TbqiyAOCUP9fjoc17VucOlxs7zyWkZUMZl9xTarip5PyeKqtmpHOVPPl0lhPcaoSGaPNtpP5dT2bDdq3/PDt0f7kWbI2mQ2oOUeozjte2+x/7jNlFHZe8y0yWJow7bnJ1lMxUosODUe21Hb2b6zuJm2p8b02qkP5Uyk5yOZzTwWy3/hcxNzPKl0G0Uyu/pn6MVr3z2RzFeJaJmM/Ob+2CsxN4Ix2I4UURvLGk9VjHxRtFeoL5apyMhXsdKX2qM/2rSu9ojaezEryqjsZLWd2lmOsVkMQLknkvmgvdC+Yr/ZfnrxILMpPf+oLWAMtiNF1MayxlMVPV9kJXaFeIxVuWIUE/tXMrvaon8UD1jPYkGvj6oNiX59zJSJslffC4cVb3IdF/sY1UlcJdf2vY2DWTzsTMLBzxi0+fDTD+2R2y+++KLZ3ho9HlCVK0YxsX8ls8/aiPpYzmwVM/6sv6pdFqtU7UDPR1b6z8qxTdbHLLH/TBnRXsUB9bFPaoZe3EwfjOE+e4qojWWNpyp6vorZNhpXtaG9ikU5a0u7aoZRXOXvtaNPt1Eks6u/QmNm4pUYP2o/49cYlmfbZVJiHWQ2or5R2+jPfFkf5rFY/gvvmZhTqS0jxqhI5stEtFyRxVc2tUfor2Tum7dOzGWM2quf5dgmxsxIGdWJtlfRp2R2jSexroxitT7TD7a9PpTZOCWLObWdQn+MUzvFOsliKBLLWleqNntzyn6yNiv99PyjtuCc9upnObaJMTMimS8TyXyZlNk6286KaDkSfbPtFMZhm4mwrDZSxY2kq+NwrQYb0IQd0BVvjCFZPYp2rHLT1Xjv//D9q1gcE1bv8dFV2BTWo/0UuM+RlNk6286KaDkSfdqeor1CfdpO1fNlUqp6Zs8UyWxk5FPRFlFbFody1Kn02lZ9V22ine0p2lbptZnp75z26mc5tokxMyKZr9JKPGFZbSDGkcyexVWMYumv9oEtRTJftGXEGJUyqivax55Sqnq0k6wPkvWlymw9O0Qfycq9OLWZx2T5L7z3ijmCeu+Eo19jYnzWvhfDMrbRrr5qW6nHTIy5P/ZKzM2ooucDsR/GxzoZ1UEVg22lHlkM65WdsG2lHurvxdLHPispmT8qQ+1VTKQXR59uoyKZP8ZpXWNjXEVsU+kUsn4yKVpnObNV9Pzwzaii5wOxH8bHOhnVgdoyf2Qmpkd1TNiqKno+QL/2lWkmhhqRxfTaz/QJYpyuYsMqNPqx/fDhw4skGuqwxz5GdQUJNyTb0B84Pkr7w6e2Ao7JOMDvt9P+uP9Mb0XcF+t6LDFG6fkA/dpXJsYoao8+onaNJ1m7WRuIfVUiWVnj1K9U9ojGZW0yf69N1scMp/Q52lfm7+1nhl4b+GZU0fOB2A/jY52M6kBtIz+hrWo7Kus2+k9RxYxPt1EZtEd/rw2gX2OyeI2rRLRMMltkpV3cXyX6iZZBrIMsftRu1Kbn7/nM47L8Fz4nMYcTSk+unnoxRMsg1kEvBuWVOslsZNSetmjPmI0z12cmMTf6e2a+UfyMCMtqA1ksGNXBahutoxw1siujutLzAfWjrFKiPW5BVSaZjcA3q4wsDlJfxsiu/hibtY3xUUqsX4rRfvT4GBu3QMsRbZuR+Wb6G4mwrDaQxYJRHagtllVEy6toXyyrLRJjMimZTTnVR6r+q7aMHymDdvW36zP8KMOmr3/zY2IOxO+Fw5iFlXTaz4oAH5NlYo6PyUJH2wEk6JgMJFX5rdDXwrLaIjEmk5LZlCxeYV23sdyzUZEVm9qrsjIbs6rYjnWlqqt91GYWtKOI1jPfDFkfWT0qo+cDmW8UPyPCstpAFgtGdVDZVGpTNKanSGavYkf02rDPKPVl9OyxfaVeDNEyiHWQ2chM/GyflU3tVbmCMVVs7C+Li7bYRreg5+/5zOOy/BfeMzFH1K5kMdGmZPVRG7ISg20m+hStx5gYG4F/FGNug9nEnG4jmb3394++2fa0YZv1Ef0jKSv1UWxkpe/IOT71s1xtQWZTKjvo+WYYte8dU5Si9RgXfdyqvcds3DnweDJF1MZyZsvI4pXMPtMfmW1PG7ZZH9E/Elktr4B2lDLTXxWjdvZNW9YmswFtGxWhLcaplFgHmY1oH7qFkIwD1eo0PGrKFXMQkmoaw6Se8sKfgOQe+wPYN8sAdayswyOt6Iv9xX5H+9kbHsspx1HFqJ1905a1yeJJVQajuF5bANtsDH0xJmsDtF2ljMquaPu4BbGPzIdt1Kmwba+faGdspojas5isjaJtMzJ7r8/om21PG7ZZH9E/0h7M9hP3TVVksVEVPR+o/No3pXaWidqVLCbaiJaVyg7YH0Ub0bKi8SCLYwx9MSZrE9H2GfRrXIxXeyb6SFbuxanNPCbLf+FzEnNg5sQj2QmYtSMzfWX2aAOZnfUqXrcks1dlc7+MEnP4O2fngsKYGTFeiXWgNm0XyyqiZRDrYBTTq6McRTtRO2A92kH0RWX0fET9LOs2E8l8mYiWT2HUXveZKUKb+mNsVo6xmQjL0a86l6qfkY1lbZ+1ASsxM2K8EutAbdoullVEyyDWQRU/U16B7bL2M33GmKqu9lEbAnvmO8eGBNhqv93YrT99XDUm3VDmKjmAGKxie//+favjO+jQJkvoKbGOPuMKuVbejgf74uOsbBfbk8p+KXrHM3MsMaaqq73XJsb32imZrxdPRv3TVvUV7ahTJNZBrIPYJoP2qr+sndpiXOZb5dR2ILat6moftVHgy/pQGDMjxiuxDtSm7WJZRbQMYh3E+EtJiXVS2Xv02oz6g7+nDNrjFsQ2WR9ZOwLbjEhW1q36I1lbRfvJGPXdE1ktg8yHrZZJtPV85nFZ/gvvnZgDKFf2DI1XaJ9pp7EzYhtuM9GnqI+M6ub+mEnMKdnffNZGVvtkObORWR/JYijWFa1XPmypHlX7jMw3sw+gMSzHdrN9gV7cbB8Vo74rv9qzcs+GbWaLZDbQawMq+yzaviorMUbVI/qz+FkbWe2T5cxGZn2kikdZRbR8Cln7mT5njyH6Ru0qfxYLoh31o37yriWq8P1vTIBl8brt8SLmhx+vz5iAUz/LiNFVbfgBB9jwmCtsEJN3QI8n7u/4ow5bf4Dt8dgs+szGxdhfpbci29fM/jWmFx99o3a0jeJIjMtUMfID+hlbiWTluI1U7ZVeH7D17OqvtquwT+0nU0X0VXW1j9ooM7GzNrLaJ8uZjcz6SGZTTvVX+5oRyXyZKka+yq/2GMN6jKnsGRo/ohdX7Wu2/5k4+hlbKcZUqK8qA9Yze2wXbYS2uAWZzTwmy39hXviNGCXmSHbikcqHcowFmS0SY3ptqtisTeXrxY5A3GysuS69xFx1DkR79beu4mbaqy1r1+uj5yO0YUuRXjzQNhTtSqyDmRhlpg+idpSz+oyt4lTfDLPtERdjK5tuQVUGvfjMByo7qexk1Y96rw39jIlboGUQ6wC2mThQxc20V1vWrtdHz0eq+CwWVPZZqmOY3XflIz1/5ou20T7o07i2Gi0kv5gA0760jdpJ5mO5/QjD4VdSsT/sK8ZRjAPYaqIO/fCRWKDtCPqOiTe0h7Bqr/0ARIH2o1T2yGzcLFl/sKm92meMy+j5e/0qoz5W4gnbjWIr/4ydZWypSLSNYrJ4KjKyZf7ITExk1GZ0XArtp7RRYIv22fasz7RXW9au10fPR7KYkSLRl8VUVP31tkpmIz2fgrgYm9lAFkdmfSjH2IpeXK9/JesDNqpH5e+1m/VVZWUUH7egFxeJsZR5HJb/mnsn5kB1YtFOX4zTMoj1jKxNTwrrMYaiT1HfKue0NW9L73yv/obRx3Jmz3waA2IMRaJfyyqS+TJlVD61RT/rPTsVyWxK9GtflNKzKxqjvhinVD7t61RG7bN90KZ2lnWrirZenWTlaKtU0fOB6Nc+ez6tk15Z60r0sZzZM5/GgBhDkejXsopkvkxEyxWM0fYzIlpWejHsg3YtRyo7iL6srsp44TusKms/urCVFSTD9Acasj61XpUJbPqYKpJjaZvDyjok4MAxIXf4LjgIsSqCca4lGCXxxoQcVs61/W/9x3bKql3pxXCfsyJaVnox7IN2LUcqO4g+7UfLGT3/artT+pqxs4wtRWKdjGy9PmLbWAdso6ro+UjWx6jPzF+1oX22DWy9vtTHcmbPfBoDYgxFol/LKpL5MilaZzmzRWCPyog+lis70DIZ+UFlJ/DHGNrUXpVJjCe00xfjtFxRxcQ+ta5bEMtaB5mNrNoB+6tEKrsS45XKxzK2VQyp2pnHYfmvuWdiDuXeCTUTq/bMTxgXY0ZtlFEsRVhWXyVz32Tn+8zfVf/+o3Nhxl/BtjGmV4++jCwm61NFWI4+rau9ovKv9HEKsd+4L63PaoWs/UhKzxalVLYKxmcxaqv6qOxgxoctFVmx06a+GJMR43ttZvwVbBtjevXoy5iJh111Dr322j/LM/Eak8X34jIfiXaWaY8/tkAhIYdrKU2CVWQ+tnmhn7z7nADcwBar5mBXjo+Ybj49HvDhpx9aH7GNguQdEnCAbZnM4+OsCo9Nqfrv7ZfMxKzS6xM++lmeideYLH42DmisKpLFZOqRxVRtsrjYPtZBFqeoX0VYVpui8VnMrA1UdgCf+lnPRKp6tCsjn1LFKdqfljNm/BVsG2N69ejLmGmPraqyRdQX41hXG+jZopTMP5LSs6k9lrUemYml/RRFok3jqjZKFlO16fU16+uVKaJlkNWjMmjP4jKbuX+W/5rnJuaMeUR8vhtjjCEtWXVYlQZQZlIsrp7bAyTjuJIt7vu40u2QuDsix4Hj0u+Wq0DffFS2vR6PfcYYY4wxZ+PEnDE74PPdGGMM4Io1gvEBCa1LgqQaxyH+IANXuPERU4I4XMu16zmx6w85lGzxLSEnr88YY4wxxpyHE3PG7IDPd2OMMUxckdmVaOeiq+Swf9Rboi2u2kOiDknC7Tixwk5X0cF/6QSiMcYYY4x5jRNzxuyAz3djjDH6SCnQXzi9JLraDcm1F2PSD59X1MVEHcA1na6Sy2KMMcYYY8xlcWLOmB3w+W6MMUYTWxgX3moFWrs2k8dSyfEHH4oxqh2jrOhrj79OXucZY4wxxph9cGLOmB3w+W6MMUZXyOn3vl2auDIPj9Diek1X71Ugeair5JBc9JhmjDHGGPN2XDQxZ1mWZVmW9RT6m+8+ffzqY0tyQSjDlsYehEdfkRhrj8DiRyOSmBnh2gyJQPTx9a+/bvXRvikk79AG7XHMTMxZlmVZlmVZbyOvmDNmB3y+G2PMc4NkHJJapF0vJY+X4nFRJMGwyo1JOWyhllA7ZTzZ9sP+hr+smtCOAY+0JsdrjDHGGGMuixNzxuyAz3djjHlukJhDYoxkibn2iClWpG3bNAm22ZAgq5J6XZxUM8YYY4y5S5yYM2YHfL4bY8yT88PLayQk2HRswCOjbVXaBO1HGGT1nTHGGGOMeVycmDNmB3y+G2OM0R9hQCIOj4gCjBGalGMd3+12/E64MI60GFmBZ4wxxhhjHhMn5ozZAZ/vxhhjsMrt+B1vsoKuJewOj5ryO+VejBubD4k6JvII6u2xV2OMMcYY87A4MWfMDvh8N8YYg0QaVsoRJOraI6yHlW8tIddJtMX28fHYCMYeJP0gj0PGGGOMMffJmybm3r37vDvdZsqo7D1m2mQxtGGrftZntBJPtAxG9Qz2qTKXpzrfMymxHun51ce+M2VEexVH1L8Su8pM3z31GPlBFlPZZkW0rFT2jF4s9zdSRc9HYl9RkVlbxmzcLDzGGWVU9j2I+4/q0fNX/UQ7pcQ6yGxkpj2Br+e/NO9+8q4lyPgY6fFR0r/5bvnYYqx+N9yXf/Rl0xd/8MWLMvehIii/f//+GE9pMo/xxx+bOKzEayvuvv32RX/GGGOMMeb2Wb562zMxB2I5u6CkXTXDKK7yr9h7+xjtH8SYqp71BZuKNiXWzWXone+K2mKZivUoJdZ7xH56iqgt8xPtI9OIUUzPrz7ub1YrbRSts5zZyChG/Suq6PkyRvGr++rZztnXXlT7gH1FJLMBtVf+ip4PjPyAMXELeu1jXBVLu26jlMyf6RR6/SBphWsYJLqQ1AIxAfb+D993+8iIfuzj+DjrBn+FFYmzmb7iDz/guLjiTttrAg9gO0r8GWOMMcaY22P5am3vxByoLhwzexZXMYqlv9oHthTr3PZEtEyirYrpiWRltYFYN5dhdcUctyTao59U7VaZ6Udts2UqUtkjoxj2U6mi5yOM0W20RdTO+KieL1MG7aOYGa3EUiTzqQjLaiNV3IpOIeunUiSzRWJMr00W21OPkR8wJm5BLK+IsJz5tQxiPWPkX4H701VrMZlFWhmPjiIpdliFBuLxsM+e9Ice2Bf6ha8H28dVc7j2im0RgwQjXwO2L/Z7YLRPY4wxxhhzXZav1vZMzGGrF4ysr6pixqfbqAhtmY+oT+Mz0ZcxY8/K2EaZy7OyYi7a1ZZtM7+iMZVm4yiNZ5lkZbWBKn7ESuwsvWNTYJ+RonWWM9upoH21j1HfI/8p9PpUH48vi+/1oczGzTJ7LNE2qldUcTP7VEb7mzkexsQtmGk/IusXoJ7ti/aeTiW2RR0JMa6QA0hg8XvfICa/VEh6VccyOr62z7BqDnz46YcXCb8M9o0EG8eVdjx/+L6VCY8Nrw1+vJ4Ws/VPH/vi1hhjjDHG3CbLV2vnJOaIXjCSzDZDrw37jFJfxsjOtpWIlkm0sc62Ws9Qu7ahXf0g1hVtZ85jdcUcYf2ULaXEuqJtMzL/rC0Cn2qGUaz215MS6yCzgcquMAZbVWaj6CPRfw0pWT3aCH2VlMyfKYP2yn8Oum/dD8vKrC2jipttPwv6y1T5aCdaBhpLEZajTe09ES1njPwj2B5bJq4IE1jYIlmHmC+++KJd28Q4fBddxszxQ1/+7HXCD33SH6VtcUzarq3iO6CxLRG39YkfjXhhT7bGGGOMMeY2Wb5aOzcxhwvETBVZbFRFzwcqv/ZN0a7bDPXFONQpksVwW4lkZbWBWFfg6/nNPKNEdIbaWZ7dEq1X5Qh8lSK0qa+yqSIjP6B95O8RY7TPSkrmpzLUzvKsjcS6copvtg3KVKSyk55Pqfqu0P3qttfmksRjyJRR2YH6tJ8ZZVR2hTHZVkWbovUsBuWRPUJfT+fA9nh8Vb9Ljr94mvWPuLh6rrre0eOsBNpKPVk1hz75XXEjcOwcV3hsgH0Dlme3xhhjjDHmNlm+WttrxVzGKRePvTaj/uDvKUJbjIsiLI98SrRXW5CVsY0ylyee79nfgaJfifbRlmi95zsH9BP3E22Rni9D+6vaRnsWpzaURzGRyrdi79mwHUnJ/KqMLE7FGEXrVRmgPhKJdVLZRrGMyeJm0PYjaXwksylVO9BrO+q3YqYdY+IWxPaoRxGW1QaiPWsTgb3y7QFXkZH2wwuHFXB6nC+0+fXXT7HiTf1Eyxn0x19oBW1l2+E4IrqvDx8+/Jgk3I4DY0zcL+uzW2OMMcYYc5ssX62dk5jDxeGMSObLVDHyVX61Z+XYrmenMjJfVc/6UFsVl7Uz+1Od75HKRnu2zfwkszM+xgL1VYpE+yiup4roy2JXYuJWyWwEvp4iaouxFH0rWxLrShZLVVQ+bTuKISxnNhDjQdamYibmXKp99I6zd1zwjfwZbFepx8gPYozWez6QxVYxMbYXP9JZ/PDpmNgC+n1tIPav+32RENuUJdFWjg8r9CAeC8B3zWkCUEHfWB3H40VyD993F+Hxshy3md8YY4wxxtwmy1dre6yYU7ILxngx2bu4zGyk51MQF2MrG8nKsY2WK2JMVc/6xTYqktlI1cass5KIVliP/rglVR1bShnVI5Vf7aM+QBYz0zeBLdqz+kxMJLORVR9s0V7FrWwJ6j0prMeYqIqRn2hcjI929aOc2UnVhqCctVNm/CMpsQ4yG+n5wMifsUefGhPjs3oUYVltoFdf8YEsnpoFse1a5YfPK9XidUu2D6KPnyJ5dm5iDuhjqQDHhJVzxwTc4QcbsL/4a6xctaewji3Fum6J1hkfY4wxxhhjzPVYvjI7NzEXLwhZruxAy2TkB5WdwB9jaFN7VlcqH9uNpKhNfVlZbSDWQWYj8PX8Zp6Z8z2+11qPMTGWxDbULNqmUobaqxgw2wcZxc+0Yb2KjWQ2MutDuYod9aFtq+0q2q7XR+aDLbafjYtEG+uxLdB6VSYjP6jsStZPr++sz8wGYI9SYn2WUbuen8dB0aas1sFszEpcFg9oy3wViMVnMlbKtUdYQ9usTiGJpokx/AiDEtv2YJ8ACT+OE+gXtO+O244P11VYqYdkHZKC3Dfqvf2zHLeRXhtjjDHGGHN9lq/MTk3M4SIwXhxGG+jZopTMP5LSs6lPt9FHNGaExlRlgLoq0os3l6c63+PfILNlRH9s1/NnIlrOoF/bjqTxisZEH8hskdjHqE2M0XY9kcynqshiKzE+Ev0rUjK/KsZUVDFq0xjalMpOem2iRqzGsMz+KSX6Ku1Jr+/oGymithhLn27VDjIbyGIq6K/ioi/WR2gcrlf0mqXqS+v6GGn2y6yxbUW2H/TNx1qH+tmXLRawr9G+oz9rl9mMMcYYY8x1Wb4yO3fFnDGPiM93Y4y5DFxZ9vVvvv709a9/FGz6q6ev+OGgBfRRVvS/92c7km24jmpJt3BseJ1YJQc/ysYYY4wx5jlwYs6YHfD5bowx+4IEGRJl+hioAht8SKDtBZJ/TJi1JN0lEmRb/0zAHRON237b6yx+FMIYY4wxxjwuTswZswM+340xZj+YdOuuiDuAZBYSXWfzwyExd0DLxhhjjDHGXAon5ozZAZ/vxhizD0iyxVVwSL7hO9qa8AhrWMmGNueuNsPnOPeL/pEYPAU+kupxwRhjjDHGzODEnDE74PPdGGPOBwktXf2GFXNYucZkHITPWyTN+OMIpF2fLH6nnIJ9MLmHvvU4ZtFj4489GGOMMcYY08OJOWN2wOe7McacR1yldqwXyTb9BVXQkmlnJMJwfXP84Yetb+x/ie044yo77dMYY4wxxpiMiybmLMuyLMuyZoQfQcCKNSTEsFoNK+WyONXHrz62bVtJt7VlfVlo+6uPn/vZ6ii/ihkISUG8BvRB4TXwsVbLsizLsizLyuQVc8YYY4y5Ki15dXiMtP0a6+S1hj5+CpAYOwX0wUdXkVDDirllsGJOVsjhOuikfowxxhhjzFPhxJwxxhhjrkpLYh1+eKEl2yavIWLyq12jnPA9c/pYrCYJK5B8S2MOj7MiQdiO64RjMcYYY4wxz4UTc8YYY4y5Ori+QLIrfk9bj7a6TuJPTczptU23j82OhBv2qck8Y4wxxhhjTuXNEnNoZ1mWZVmWlQmrzH7+j3/etpk/1W9+++kXf/aLliSDfvEf/iKP6wj7++Vf/PJzwm2ro78YA/3yL3/ZfO1XYgexlmVZlmVZljWrN03M6RciW5ZlWZZlqbBiLrNXaivsfrNdl3z/+bvhvv7q5Y8vzOib333z+fvltj7wGC2SbuqHD8m7b3//basjru3vu88/7vDdt2vHbFmWZVmWZVmqm0jM4aIXj4Ug5mm0vV687uz9UD3le/MWmnj/4eeqiGcSXvPsufls74/fm75m3h+/N/n7QiHGn/nzwq+wfvzLj8dzqlzB1vnMR9INSTYk21BmchAJN9SRuEP9mJDbythfS9ZN/E0ty7Isy7Isq6erJuYQoxfL7TtdnkR4vZyA4X3Q94V6MZH73tpV23uK9xbvsb7nVHvvv33S9357zXjt1XsDPe37s71evzcdba+59/74vZk4d+75M/8Kx40VbnjPMK4eP9OTOBxb9pmPJBwSbMcVcIckHVbh4bqlXctIQg59tGRd5+9oWZZlWZZlWSu6amIOF7i8oH5WYaKG96B6b9IJhrWb2vvMRIG+97Al8c+k7rn55O+P35u+svfH781ndc8d2JM2ty68JjzSCbXXk8RcSsfk2Taetht9g3PseB4e3nck2NqvwX6/jce//7atwEPiDavlmJCDXqye++5zW8uyLMuyLMvaQ1dNzOEiGtuYrHomYaKQ3Xk/2sKkwtpZ+l77vX+p5L15YcvaPIv0fRD5vTlI3wu/Ny+VvDcvbFmbG1VbbXb4IQTUuXotxl1M2/vVVrhtZYynrTx6D/W93oSVcXgdLTGHpF34Hrn2HXbb9QvinJCzLMuyLMuyLqGrJ+ZiouoZxQTli/cG71c2qbB2Vzw3/d7/qPT/1u9Pk9+bvuL74/fmR939uXM4Xoir1SAktpikewth5RuvI3AcbcVeEhd1fP/x6OpXnx9jjYIfq+P84w6WZVmWZVnWpXXdxBz6OlzQP7Oq9yabUFj7K77/fu9/lM/NWn5v+orvj9+bH3W35852nEi8tWQVVpmFsYyJsrTtBYRjQTKw7XshKcj3Hwk3lGNCDqvmsPqurf47/H0sy7Isy7Is61K6q8Tcv/av/xtDG+pRVZyWZ6TtVeofxWaq3ptsQlGJ+83ssV4pxmk9auRXZf1HqZ/xUZW/asP4keL7v/LeV/vp2XvK2vT0/2/vDH0lSZI83WDBgAMDBxzYlvZfOTLSgoHX0oJTa8CqNWjg0NP9ISctOWkWrNQNRqohLVWDlqpBS9WgpSowoMCCBgsKDKjzn2VaPktLcw+PzMj3Mt/7fqpPEW5u7hHP0ys83MIjsypX1XNO3WKLvjliq/PvlXGqvGxbyxZtM3t+7leR/XrpWCbSy++Vcf8lcvvcctss2b2+mNcrP8M99J1s12uq2rdgVUv7+KWxXuev/a/+9Y9Tf4cff4lcJqaFv7r61R/+ZMdVsDD7VMT2PwQZ25+gv82+Ry686goAAAAAcG3uLjAneuloz/m9/Yql/Ez2X1NW9NqmmlCM8POI6Zhf2av9teUisq8hl43pSMzr7VfpGXL7r217HdOPm7c9qvyebUTln23OKK/HpX0znmtF5Z9tTi8v1hepfEXlG6nKVFzaNk4+bu8cej6+P1Mus1RnLz1Dbp9bahulMzEv+kZb3FbEMiPupe+I3/7ui933yL1/ZwEwH7eUpwCWfixBW+V99Yc/trq+sPoyud7IUr4T/XSP8cX//NKOq7R/19wI/Q0qF9tfQTmVtb+RH3YAAAAAgCfgLgJz8eZ+RPSP5ap99415S6zxdeJxevTapppYVFTHzWT/vB99I1WZKl1R+czaMtFH+5HK5vYZcvuvafuMHzefi9uzX0xnW2YpX0Qfr7NHLNfj0r4ZmTlm9InnWlGVGdncnsvnvGzvcWnbxHPpkf3zfvSNZP8e0SeWd3u2uX2G3D630jZOVS6T8/J+zI/pJe6h73gA64v/9ZWdn8YqD4JpZZl8tFVg64t/+WofmPuTBer8WPE40ZaZyc8oYPjl7/9ox/zyX/9o6aqssJVw++Citrn99eqqrbYLNgAAAACAx+Iuv2POb8yrPBFv3t0v29zueb4ffbMtpiOV/xp6bVNNMGbQuVR2x8/XyXkxHe1L9MpV+5HsE+n55P1oq9IjcvuvafvecZeOv+Z8lVflZ/toP6bXsEXf7B0/20f7MZ2p8mZsMT2qv8cWbRNZOgflR3JeTGdbLJfto/1oq9IjcvvcUts4VZ7bYp72e/X07CNuuu+0c1GQ64t/2QXnFPjysUoBMHvVc/9aq5X/3ZcW7HIfs+tvqurusOSX85VWe9l9RjumVuxVgTlbDbcPyCltvm3/9bevj9oeAAAAAOApebaBOd9mv6qc+y2R/Xtpt8X0iF7bZNssOnZld2J+9q3Kztoc5c3i/rHszH4k5uftDLmt17a9n8cSVZmqjsqvIvpl32jLPjG9xKV9M55TZuQbbdknp7PN7dmW8bK9Opa4tG0yS+cQ87NvVbbnP9qPxPy8nSG3xa20jdIV2T/bqnTG85e41b6jAJcCb/oRBwvIfdytkvMAlwW/fkl1pF82VUDvt79b1yZLfl5XRucmPO3+Ot+3P4Rfjd2fm/IUmHv1zauDLwAAAADAU3Pzgbl4Ez5DVSbXF9PnEuv2/ZyO/iN6bZNtFfHYS5xTRsTjxToquxjlVUT/mf0Kz8/bGXJbz7b9iJnzrXxmylV2J+b7MSpimRGX9M2KpWPH/Hi+mZy/1t9tkaX8zCVtk4814twyvp3dr8h1LflHclvcUtvEcjEdbTEv20blZrjFvmOr5Py11fZPAS8F3WRTkEvBLvl5fcd1f3EIkul72uwHIo7yH3B7pGd3cr7OVcfReXoQznza+cqu4KJ+cdUDcubX0rbar+XPtjUAAAAAwGPwIlbMbUl1rIrsN6LXNtk2gx+/ynNifvatynqdS0T/WH6JXtlqX9se2c/LLpHbem3bx2NVx8/n0svLfhHlVfnZNvKJeZVfxVZ9U8cbnVsvHW0xT/uVPeZnW2bGZ8RWbSPi39Mj5mffqmzPv9rXtkf287JL5La4xbaJ2x5r/JU3w632HQWu/McPtHpOATdbJRd8HbcJL6cA2Je//8rKxvwlcn2ZeFyhc9JrtQoE6ni//efdedpqv799OA7I+eq5hv9t57Y1AAAAAMA1uLvAXL5B7/n4Nvp4OtoqlvJFrCtT+Y/otU22zaDjx21FzKv2R2Wd2fpnyOcQqXwqm+/n7Qy5rde2/drzGPlnZJ+h8o11xO0aLu2b8XxGVL6xjrjNVPaR7xJVuYpL2ybixx0dP+ZV+7ls9olUPpXN9/N2htwWt9g2VX72dZsz8sm2HrfadxTUUgDLVpZZYO60v8T0wf67Lz595YEy/RDDP5/+MmsuE1nKzyhgqK0Cb3qNVngw0ANy2rfVcz+8seCclxXntjUAAAAAwDV4+sDcCvkNviunXW7P+b4fbVL0HVH5Rlven1WvbbJtCR13lM52P9eYjtsRI5+Z8pHo3ytb+Wjbs7tthtzWa9u+d9zqPGSb8RsR/XtlK5+Zcpmt+mZk5jwqn165qo7Kljm3nLNV2+Rj9s7B7do62e6+OZ3zKnusp2d32wy5LW6xbZa2zlK6Z+txy31Hv1DqK8tyXtyP6Nz91VEF5vLf0ivnjPKVd8Tv9MMUD78CqxVzX/1hFxQUKqO/wVfP5frEOW0NAAAAAHAt7iYw5zflWdke0zP7Us5zRVtld+V8KadH6rVNto3Q8Wbsfq5uz9voF9OZXr7sS2UzM/7Rx4/htrgffWJ6RG7rNW1fHbc6n5gf9z29VCbmjcr0fEf7I7bqm9Wxs72yrd0f2Rzl9fJH5TJbtc2M3c/Z7Xkb/ar9HtnfiWnPd1tMj8htcWttk6l8qn1PV0SfEU/Rd7SKTavKDtvwiqr7xXRl7/loZdqXv98Fx7Q6TavUYn6vnLOUH/Fj+cq4iAJxvtqvKuusbWsAAAAAgGtyF4E53bSPpPzKx+1VfrTlfZfbY37UKG+Nem2TbRV+/CrPGfnM5K2lqmtEr0xVb/TN+Rn3WyK39WzbCz/OzDFnfGNe9vN0ZfP9yp5tVV6PLftmdeyY7tmzLef5fs6PxHwvV5WJeUts2TYVI5+lvLjNeFnHbb38jPstkdviltqmospzW84b+c7wWH1Hq9js1dT9q55aSaagltDx8qoyLzeLl/Fgn4JjO9vxq6xe/7nHiOjv0WuzMSDnwUAF7eJqvx6zbQ0AAAAA8Bjc1ausz1W9tsk2uA65rWn7B+ibfWibMbktaJsHHqPvKFCmOvOvk0YUxJKPvb5a1DGLgnsKinm9r799XfptgQfh4vkrWJe/R27E1m0NAAAAAHAJBOZuQL22yTa4DrmtafsH6Jt9aJsxuS1omweu2ncUrPphF2zzQJlQ4MqJdpXRsRXAO6lrEluZ1+rwOrUSb2bl2rno73v70+mKv1noiwAAAABwSxCYuwH12kZtCNcntz9t/wB9sw9tMya3D23zwNX6jlaTKVj14SFY9e79u0+vv3ttdkfp6KOyslngLtc5Qyun8l6fVrQpYFb6bkE7nlYElnkTVO0PAAAAAPBUEJi7AfXaJk8m4Drk9qftH6Bv9qFtxuT2oW0euFbfyUE5rSqzenPArQrg6dXX5n/kt4L4+qrqUUCw8rsFqvYHAAAAAHgqCMzdgHptkycTcB1y+9P2D9A3+9A2Y3L70DYPXKPvKBCmgJjqUlr1DVeV7YNz2vcytmou+qxAgTltVdelQb5rU7U/AAAAAMBTQWDuBtRrmzyZgOuQ25+2f4C+2Ye2GZPbh7Z5YPO+s3+VVPuqy36hdGLFmq1s+/nd4Rx8FV3lu4S/Cqt6LEh4w5931f4AAAAAAE8FgbkbUK9t8mQCrkNuf9r+AfpmH9pmTG4f2uaBrfuOvs9NwTjV4/uV3wn7gJ6fwyXfDRdfjdXWV+PdIlX7AwAAAAA8FY8amMvo5h19snao2gcAAGCGr//ja9u++uaVBcVyfo8///ufbdWc0OuoovJb4tVfdse111hb2s8HAAAAAADGPGpgLj6xBgAAgG3QAx6tfpteLbcnvwJ77oq5+Fqs0v6dcwAAAAAA0OfRV8yZ7e8tAQAAAF0+/rJ7LdUCZR/a2Pmx9ot8eL97lbTK66FVbrbfpHF6bXlH56jju6zeiXMGAAAAAHipEJgDAAC4JT7ugmtvf3j76d1P73aBuQ+NYDs3cFbSqlK9rkOQ7gz0fXVaMee6JMgHAAAAAPASIDAHAABwI2hAtnFSq+NkK6RVdPJRwC6XPwer76f9mO5BusJvBj9/l4J0CtZVvgAAAAAAQGAOAADgJlAAy8bWjy3tavbDirMkBeZsdVqo4xz8VVnpsOKt8Jsirb7TKr9DkBEAAAAAAE4gMAcAAPDEHAXEpI+71Wb2y6o/vbUfZFDAy1afBV0cSGuofgv+NW0RSLNXYfeyV3A3WtkHAAAAAPAcITAHAADwxBxeH23SoGxjpYJw0W8frDsK4DUdVrxF3xUc/fCDzkMxuuSzhkMdTVsEDgEAAAAAnjME5gAAAJ6Q+Cqp0ja+DoJjh2BXkP0gxC+tUOE/QmVU1tSKHwKEF2Ar8Pa/JntY5Vf4AQAAAAAAgTkAAIAnJa6W02uk794vrzA7vHLqUlBN43LhO0LH8nq2Wt2mOvTq7SWr+AAAAAAAXgoE5gAAAJ4KX6W2l8ZIDcqlbyIG9KTDyrvkN8LG8nY4SQG1xdVt8hVVnjPjAwAAAAAABoE5AACAp+LjPsC2l+1PBrUOgTRXs60pf3Tslj4E+jpoZZ3GcBv/i3wAAAAAAFgPgTkAAIAnQt/Fpu9kc2mMnF0xp0CZXmmNmn0VVhxW2DVpXO69xmrn2M7LjtXSW/xyKwAAAAAA7CAwBwAAsBH+owf6QQWh/VGgLQfmDsGywjdjvh+Cr9S2s6vm7EcadG5N1WusyvO/w/1MbXdpdR0AAAAAAMxBYA4AAOBCFNTS+GbBuA8fLOBmQbq2L/shCFaUffP9m92+1LazQS8LmOkY7z8crZybCu61U9EPNHja9hV72+dp1Z3OW/VHWSCx2X31HAAAAAAAXAaBOQAAgAvQajN7DfQ4hnUkDbQW0CoCZh5gcx1eUU1+EQ+QSTr2UXCvVWV5qUzk8AusTapL5yC7zk+BQXtVNUjnLx/z06mm+gAAAAAA4DwIzAEAAJyJAlX5BxiUVmDLVshFtbxqNZsH7aJsFVxn1dshKLcPkGm1m72KGoJpyrfjp7KO+e/PW8fS36GA3OGYrr2v1afgYagDAAAAAAAuh8AcAADAGSigFYNhFjD74a0FspSn8S5+j5urCs7luszWfFSH+3udvrpNOqx8a4ewV2D3qo4RObzG2mR17us4qOXZ8bV6TgG8UBYAAAAAALaDwBwAAMBK8iq3+Drokd9+dZutNgs6rFgLviqf/RQs0/fUCQvcxey2b+cgWyqvcdaCbaF+x84p/OCE2YN0Xqp3FNgDAAAAAIBtIDAHAACwEgus+fjmAbLCzzkJujWbythqOvfb1+OvmI7kwTMPyom46u4QOPS6A4fVdEleRj/8EOsFAAAAAIDrQWAOAABgJfFVUAXDLJiVfDIa/ywQt1cZPGvZ/ouoPkCbXVlt318vPbx6GsoeBdxanr3aGvIdBfWsvEvHbOnRL8cCAAAAAMB1IDAHAACwBg967XVYqVb5RlTOA3F7HYJpyVcDswfL9IurQmXNt9WT/YXOQedi8nMs/IRW8ClAp/psXNYqvcIPAAAAAACuC4E5AACANaTA3OE11co3cRQ8k5rN6uoE29ZwtBJuITCngV+r/qqgIAAAAAAAPB4E5gAAANaQAnO9VW898vfNaV+2yncNegX28B1zG9UJAAAAAADXhcAcAAC8XD7uAmv+2qi2FmQbrWBreXq11LU2CKZB18ZQpfdSWvbsu4b4vXdrg4UAAAAAAPA42PyhzTv8K2tef/vaIDAHAAAvh4+7FWZa+aYAll4DVWBM45PSZtcrp1XZxuH1U6mlD0GxSeLqNunSFW75Bx22CPQBAAAAAMB2+AN6LQg4fMdzk923t38E5gAA4EWgIJiNRWEwrKTAmY11CsClOhQEi+Ob/FYFwprr4Tvg9joE+7LvAhaU86BeE6+xAgAAAADcFrpnP8wZkp4sMAcAAPDYaDWcVrdpXwOg+PBh9yqrrWILdqEB1PzbNtZjq+32A6vVEeqdRf4q53X4q7SVbw/5+7hq59u2Wg6fzxcAAAAAAJ4G3a/ne3bNJzQfEJbX7t8fNTB3S1IjIHSp6EdoC9GPrquPH3fBr6j4vXIebNP+kf6+WyFnT7uCbDwLtpxeUj6f6vyy5KPBvHeuOs/X373epxA6X1yP0BaiH6EtRD9CW4h+hK6pUf/S/Xq8Z9f9vPx1P+8P6C1498NbAnMIXSL6EdpC9KPrSkErDXwuDYZ5jJJ8Bd2R/r4L4sXAm5X/z4fy2pdtjfI5dftAO65WwnkgMR5XsqBeG1/199CP0BaiH6EtRD9CW4h+hLYQ/QhdU73+pfv8owfxni4e5ivvxQbmEEIIPX/l1Wi9oJwrD6KSbEcBOwXr0phm6WKg7UlBwPgETcfUcSpV56y/S+V7AzxCCCGEEELoaRTv0XUff/LwP+hFB+aInKMtRD9CW4h+dD3lAJi19UIgqxo8VUdcrXbpqrkcMMz1H2kfCNSgbcdp56Z09qcfoS1EP0JbiH6EthD9CG0h+hG6pqr+Fe/r/e2WkV50YA4hhNDz11EAbR/gmtFJoExl4+q0oi5b9dYG31nFgXwYmGtSgFH1m18aXxFCCCGEEEJPJM0PArqn94f82to9fvKJsGIOoQtFP0JbiH50PcXXQDXojZaRZ+VAmw2yYVWcrcZrHNQG1rgKbkn2uWtAbloKzM2IfoS2EP0IbSH6EdpC9CO0hehH6Jqy/hWCbI7iX7q3tzhYkR9hxRxCCKFnrRiYk9bcnOXXTaUcrDsJ3rVjTb3S2gbheC72NC2NmwghhBBCCKEbVwq0iY+/fPz05rs3FnSr8iOsmEPoQtGP0BaiH83JVry9f2fBMMeCYBrUOtJKtLiqLQfSlmSBvbCSLa+6U1p1Rp2spCtkAbxQj/WBwd8xI/oR2kL0I7SF6EdoC9GP0BaiH6FryvpXCLJFZoJy4kUH5hBCCN2HNJ5oDFEATPsavBxfIt5bpWYBsJCXA3WLaoNlHr9ycM8Cca3eKDtOsh3U6rSgnAbjJv0da16xRQghhBBCCN2I9gG2c3nRgTki52gL0Y/QFqIf9aXg1tKqOMm+/60KbrVysX3PCYLlVXN2rBQIVJ2qO0oBO419Nh7uB10LJGqFXfh71q7i64l+hLYQ/QhtIfoR2kL0I7SF6EfoLC3MPVzWv+R7AS86MIcQQuiG1QYpWyEXAmKSxpbDq6IazIIO9qQc+FodCNO5xDEsp/dScC6PfTqOgnjy13FtFV04b6Xz34gQQgghhBB6fOle3u7bda+f5hpdye8CWDFX6LPPPpuip5jf8822np/L83ugp9NT9iNplFcp+q8ph66rW7keZZ/s7/k93OditQHKgmdhBZoCbmonBbn8NVGNKxboCqpWrinwFf2Uf9aquTCuVUE4yc9vUe1vVB1VIPFcPVU/GuVnX1fll8matUm5jpxGfT3nfjSyRVwxHfMjqFavH0XF9ltqy7Xt7f5rykjnHgddR0v9KLe9fx5Ln8mMD3o+mulHvf4w00/O7UvVcaPN9zPoOtL8QPMPeyum3afrfn7m4bn1r32A7VxedGBuVmv/A2T/XNbzl4jK6ahRHrodVZ/rSNm/V9b9emQfV06j+9Dazy3798q6X/SP+1FVft6/VDm4poGxF+zKg2YZdGsDXr4pW7tqTr4q48rBvijlWdCwWNWnelRO+VVg7zEUP68ZZf9cNueN0q6eXZot0/OTqryRP1qvte2Z/XPZnDdKu3p2Keb5/gj3y4r5WT07mlNsv1Fb+mcwIqrKd7Iqn4qelvLR9optntve86KPlO090MtT1Qfyvm9ncfXsrsre83WN8tCZavfqmjvY/CPMDUb3+ifaB9jO5UUH5nqRc//PsMQaXyeW8f1K2d7zk0Z56Pq6hX6U1cuLNvepQI+vp+5HS0R5Oubl/UuUB0FbqRYCb5U0vsSB1MYbDXRBuR6NUScBvAXFz6kMAEa143sA7s33bw4ouLf095yrW+9HoucflW3Rb0SUp7NPBNV67v2otx9tUs6v1LOjcT9yze5Hoka2aK9sPc36udb6o3Va6ke57ePn0ftc3Cf6ouetpXHNFfuF22O+lNNStC3ta1vheXFbaZSHVqrdq2t+YPOIsCDAZXMFrZ5bkPWvfYDtXF50YK6n3NmVrmw9Vf6umOf7PaKq/Ai6PeXPpfqsRp9d5R8V8/J+Lue2TMzzfXRbyp9J/Lxco8+t8u/JfXtlcn6F+52tNjDFscKCWBOryk6CeXrilQfYVLe0dtXcUb1Ffbeq/JnEz8s1+twq/0qzflLl67acd2kabaPcplU7j9q98q806ydVvm7LeTFd7UebFPd7mvFBx+q1cd73dNxWZFU+Fa4qr6KnpXx0HfU+m6XPI+d7elQGPV/lz93TsU9En2wf4T6uuO+KvlLlkzXjg5alt1p0H58fltu8QMEy7bd7/vi2zFAqcwEvOjC3xRNhaSktedrzYhrdt56iH2W5b1UmqsqLZUZl0XX1lP0o+vT2Xb38vH+uNBj6AKgBas2KttiGCtJVq9Lyqjk73oqxSYP44Tvh2iDKuHYs9+sx8vG8Stm3hyumc55U2dCDnmM/yn4jXHG/pxmfl6qlfuT7rmiLdpfbM5V6dmlUTlrKz1rrj9ap149c3vb+OVTEfNdSGj0vVf3IP/NMzPN9l9ujTco+rmo/23o+FZ6HzpdiVLp/P3lFtd3Xy6a+csibvNe3/rUPsJ2L5ierP9nZici9rpg7R/k/S5V2VXkVS/kV6L4VP8f8ucb9rOxbqZe/VA7dn+Jn6vs57VpKS738yleqbGukYJwNmitXs9kYo8GtyQJoecDdK/pJ8jsE2xZ0tDKv1cG49qDs46psrpy3xq+X9v2cH5Xz0fUU29r3czoq+7gqmyvn9fx6iuXX1rP2WGi5vWO+5Oloc/XyYjrnx7Tvz5I1ykPXVa/t13wes37o+Sr3F9+P9pgved4IV2Xv7Usje8xD6+UP/+3V1DAPkOLqOc1B4sIAfQ3NlFTnBeiYqz/Z2YnIPa6Y804/S1blI6J6+Xk/Kuah29JT9SOp8sm4qrwK9DR6yn4UteQT89zXbTl9ttrgpPZYs1pOskDe/jVTBc+qFXOSDbjp+yJ0rMMrqgPFFXerlrc/km7peuTKacnTla8r78/gvnErxXwp7qNTvaR+FO3V/pJmfF6qqn7kqtp4pt2VN8p35XpH6UvkdW1ZJzrWzPUoqrJJ2T/75TR6Xupdj6p+4Nu479tIVE67or3a13Zkz3geWiEFvdr9e5wnuGwhwI/Hq+fi2zuSxbAUPBvI+tc+wHYub394y4q5Jc10/vgfJpPltuyXiaryI+j2NfM55c81EjXKc8W8yjfn+T66bc18Rv6ZVkRV+SMqjfIkDW4a7DTAORocl4JgNn5ooFqhw6DYtBRoO8lv5SwQuHDMOKgrQJcDfPei0Wfm8s+2Iivbo2+0u9yWfaJvtGeN8ly9umbKojnNtKO3d0VWtkffaHe5LftE355divbe/pJmfNCpvJ1j+1U2KdpHRMV0zu/5j6iU83p+6LrKn0EkytPRnvdzGfT85Z97JNp931X5VLhG+xGX71f2mIfmZHOQH0+/r1r38j4nObn3b+kYyI33/kOpnnNp1b/57g0r5rK84y9R+UZb3s/yvMrXtzNa44u211P2o55dqvI8HfN6++hx9dTXI8nzR37Zp4cGGQW6NJgpgKUBzbGnUxoMJwJha3Q0iGq8GdXd8nQORz57W2/wPfp+uSbzXfGq7WPoKfpRTktuq/KkXn5lz7YlXHFf8nT2Q6d6jv1IivuSp6Nv9In7Pc34vFT1+lHUmvZWfuXTs0ueF6kU7dmvKpN9pMqGLtdSP4pt3tuXPF19RjGvykf3r6VxbaSY3/Pv1ZHLZuX6fN/tGc9Dy7IH6JprRLV7/cPqucE9fOwv8s9xrSzz15ziTH750M71pxf8KmtPvY4fbZXdlfOl7B994jbblhTLoNtS7/OMtsruyvlSz2dEVE5LlR+6HcXPJ35O0VbZXTlfymkp+1XlKlV+Fnhr1/ulp0vKN78Nglt52fnMhFADYSxj2tt8VZ8HEjWwx6Cc2+5F8XOKn1e0VXZXzpdy2hV9fT/6RlvOm9VMuV7+OcdDO8V2j+0YbZXdlfOlnHZFX9+PvtGW83rqlYn7UZUtqlcOzSu236gtR23dy6vsbqv8pZjf8+vZpVEeuo68vXPbx3Rv3+W2bEfPX/lzr/pBlT/yiYr+lU+2+37PX+rZ0anig/re6rlKudzUd1HL/0x8nrH6k7UTndCtB+ZmIuex47s95keN8lwxz/fjNtJT9hv5ouvrKfqRa+RX5VXpyg89vp6qHy35xHzfH/IPn336/B8///T5P31uZSSNBb7arArCaTC6NDhn9e+/H0LBtNmg2SGgp4ExyJ+yOXE865W5Bd369cjz43aJSqM8l+e7bw90qufaj3zrivacJ1U2yf175dBOVT/KbbdELBMVfXp5I8V896/KVfbsU2nGB82pdz1yVZ+Rq2erQM9bS+NaJud52hXzerifK+9HP1dOu6J/zwedSvfvumdXHGoquLaXyvgCg5mvrrH+FQJta9EPTOh4qz/Z5xKYQwghtJ3yqjVJaQW27GnT/klVNbjJ55LgnJXfD6DTT7ZcbUDUeeYxq5IP8DaQIoQQQgghhG5WCqytvW+PD+W1VXpJmsecg87P4mRtGvNiA3NLT2AQmhH9CG2h59CPYnBM6n0nQxnc2gfHzg14xfZTPRroVqkdV+dbBejioLn0xOypxfUIbSH6EdpC9CO0hehHaAvRj56Z2n27vy3jVHOOc2X1KaDXpHmAzVEGUv/yQNtaNH/S8V50YA4hhNA20sASB604oFU6+IdAXK5jVkflFOC7YKyx12Dfv7MBVsvKxSEgd2bQECGEEEIIIXSZFF9SIEv35haQU3Bujz1gb/YtAnQe9DO1+/+ZwK7mI+dwOGdWzCF0mehHaAvdez9SEO4wgDXZ9X4hkGWDUQrEHQ2Ek/KBWbIB+8ZXtV1TXI/QFqIfoS1EP0JbiH6EthD96P6l+/38ds6J2txD84DR4oAZ5fmEHtSPpP6VA26z6FjWP1kxhxBC6FIdDYKTT5akHNCTZoJ6UQruaWCTNGDnsedErW73RwghhBBCCN2oFGzT6577h/AuC2z9146sxQDeguwNmlaHa3bBwbmofs1nWDGH0AWiH6EtdO/9yAJz+2u+DzCzysG0PBgOlYKAS+2oQd0HvzXBv3sR1yO0hehHaAvRj9AWoh+hLUQ/ulO1e3V7AB+CbHqo7/fyB1o6B+JsLnLuvb6OG+YyS4E+9a8cbFtFq/vD+w+smEMIIXSZYmBOWnUDlAY/KdfXU1xxNwroqS4d4/DKaysXl6gjhBBCCCGEbkc5KGevs+r+PQfcigDeOV+PExXnMqrn8GZQR2XAbQ3t3Fkxh9AFoh+hLXRL/UjXbgW4/McPhD0paoNGTxqw4hLzpSdLWXnw1LFmxgwdx8eaatDUOWigPhnE2761eR7Y71xcj9AWoh+hLUQ/QluIfoS2EP3o/hQfvku6l49zjRPtg3OHe3ulL4g/WZ/Z12XzlMGx5XsUZDuHlxyYQwgh9CANOBpYYrDLdQhwtbxKHsxz5UDbjGyMCIGymVVzcVw5Kt+2Oh+hwS5KA73+lqUnXwghhBBCCKFHVgqqVXOTSnmhgK2iS/OAWen4XlZzhqU3bQ4BtnNhxRxCl4l+hLbQU/cjDXgWSAuBsUo5AHdQKxf/Bg0wa6/5OZinAao81l4x3463f0qmgdMG05YfpXOXfebvvFdxPUJbiH6EthD9CG0h+hHaQvSj+1KcbyzNB45UBPTyfGBWsezSOah/HQXZzqEdgxVzCCH0QqWBwFaPxet1G9TsyVAbgBTkygNaXlruyoPfzIq3LBsnQtDMbqQ6QTSrf7/qTUE9lRV5JZz/jTagPtOAHEIIIYQQQs9Fuqf3e3htZ6Wv4HFpvpLnBbOK8xg7j4VYlnwu4iUH5oicoy1EP0Jb6Cn6kQYBX2Xm0gCmc9FWA4Su4/LJgbgq6Ka07C6Vt/pXKA+gowHVxpT9ueu4cem6qeXJbgN6Ci4+V3E9QluIfoS2EP0IbSH6EdpC9KP7k80j2r3+aKVapaP5QSub5yuz0hwkzi1GfUh5J4G2tbzkwBxCCL1k5SdQZXBrr9nXTONgKOVjLKqVjWOFgnIx2HdQ8svyFXTnDsYIIYQQQgihbaS5g88n7KF7mC/0JN9V84imGEBbPQ8J0jnGuY/VOzhnC65dwmMH5jTBAgCAp0WDi5Z6+wD5+tvXn978+Kb0dV799ZUF46xMQ2kNeNHHf8XVfZRv5YLPEq/+svNX+ZiO5OMcjtfGGR3v9XevT8oAAAAAAMDjoXty3cvbXEPzj/0cRLZqLnERbZ6ien1e8PU3X9d+E2hOoXP3ujY/18SLXjGnTvHub58ALoJ+BFvwqP3o/ac2uLxtg4xWlrX9b9+2geZj7Rt4+9MvbYBSwGxX7vX37z69+fGXEz/V/W7vc6j/5+X6HR1Dx/LyX/+laJv0N7x7/9GOo3NS3on/C4HrEWwB/Qi2gH4EW0A/gi2gHz0+uvfXvbnmCn6/nnm4f/9Q1rEWP6bV3dI2J0k+s8S6hM9PKl/1r0tFYK5oWIA10I9gCx61H4Wg1m7QeVf7FShI5gPUmx/0fXSnA9TOrqdLx4Nu9uuhAfxNG6C9/Nff1G3jx1EwTvWvCf49V7gewRbQj2AL6EewBfQj2AL60eOie3m/9/f7eZ8TxIf3zpsf2/38d/PzkR42N2h1qU5fUFD5TZEWAWhuUi1IEOpfl+pFB+akqmEBtuKzzz4zKntlmyGXi4zycz09qrKZqkxlc7vvj1jy8/y4rYhlnJ59xEyZysdt2p5z3MfCn/qsDWj5k6fDINp5wmWDcRt8D4PZwDejQU/BNi9brpjbo6Bib5AEAAAAAIDHw+7j2zzD7+NlU1r385of2LbNJ+LbMeLiQFojzj9GgbRZtDjAz29pLnOpWDFXNCrAGpb6UQ7QrAnWrA3sjPxn6nIfbZfolY370d9xn8woT3h+9Mv7VR1uj2SfiiW/Xv5s/ZmnuB5pUFyzWk7MDnh5+bfYBQOXg4AeNFQZW223DwbCMoxrsAX0I9gC+hFsAf0ItoB+9HjYffv+3t/u49t8QPf1R37vd/f7Is4V/G2YI98VxDd77Dwu/Hobn4OovlHgUP3rUrFirmhYgC3wINCIqlxkxicy8r/0eEvlY77v5zLZZ4ZcNto8nW09e+XXY8nX83vH0NaJ+beEBclWDlhxgFoKtOmp0tsfj5+Gvf62lVlYoReDf1s8PQMAAAAAgOvigTXdwys4txQcy6vrbK6wML/ooTJel9I+Z7kECyq2eYtWy6m+kwBj4FKxYq5oVIA1zPajcwI0a8uM/D1ItERVVozyRK7H/XM6+o/S2eb7cZvzz8HLZ2by4jYT/We4l+tRXNK9NNiKGGSzgVLlqidne+J3Q9gx9gNi5QunMK7BFtCPYAvoR7AF9CPYAvrR42Bzg/09/OzD9fwgX7Zzgmq7gN6unq0e7KsOrcJb+joe9a9LxYq5omEBrsEoWJODOkuM6qjyRJW35D9D9I/baM++bh+lR7aqbOW7xKiM15mJebmM51X250B+PXX03W8H3u+Dc23fywkNdLLrSZmecGm7+764h6Dc259ZLQcAAAAAcPPonv+vD/OENQ/XY0BPrPluaseDeSrvQbrssxotQFhYhOBcKlbMFY0KsIaqH3ngZoZcNrKUH3HfXpnKPqo/582Wd5u2VR05f4mqfCb6RCrfTFVOjPJELz/W7VR+mXu4HukXWH15+i5INxc084BeXDknlNb31Gnw1I89HK2sa/se0IN5GNdgC+hHsAX0I9gC+hFsAf3oEciBOQXKJoNaHkjzsmvLl8eu/PZoTiOfJb9Z1L8uFSvmioYF2Jo1AZrIbJlYf6+M+8zg/rl8TGdbLJf3I9m/l15jG9lHjMos1af8EVWZe0eBOAXZNOD5d0hUfiUaMPcr5HzQ7GGr5zYaKAEAAAAA4LrkN2vWrJiLD/+dNa+j+rzEyg3euNFbOppj2Bym+WpVnuYdle9aLhUr5opGBVjDTD/yQM3agM2sf/arys3anLV1+n5lq9KjvMqm/RnO9c8s5fXyo31UR+YerkdHv3S0YrCNaAD0AF1eIecBubVL1+EBxjXYgnvqR9V1ds21F64H1yPYAvoRbAH9aD32Ywp2366vn9HbLR+G9/45MLfmdVT5xa+zcexB/cSqOR3X5xV6CycH23bntvsV2KP5h8pusBhA/etSsWKuaFiALckThDUThhnf3qRk9rg9v5ny0VaVG9UxyhvZIqMyvW2ksjmjvIj8sm9l25KZukfnFfOybUQcbP375WSP9fixRmhwtIG+DYT6MQmhum3wnl2yDgA3wcz/+55PZZ+1uX2WWCbWEe29PAC4bWb+j4vq/3llA3jJHB6Uf7f77mcFsnTvrn3dr4tegC4+xD/8Kmvhl/G3cuLKNzEb3IvHzd+Brb8jBu4cC9bp75wMHi5xqe4yMOcX0EvVi5x/9j/+dEKVF8tUjHyfQ17FyL+XF+2j/Ghbk9fL34rRE5jeQD97A7Dk5/8XZvJ8v7JXedEnpt3H6eVXvm7v5VW4fywT0yN73q9sVf7I7ig/+7gt2rNPjzVP8np1xuNnPD/6+n6myotPsuLS8lznqF64PjwRhi3Y4nrkjK4L2T7rl23VvrZL5Sp7Lx/Ww/UItqDXj/z/+BLZd6ZsPA48D0bXo9Fnf428ipH/KK9i5D/KE7q/t+99bvsxiBVRgEuBLnsdNJWPX3sj9GurS4EvC5C1+uSv41tgzY/V8peCewok6pwfzm13/jo/lc3fXSefXbBOq+eO6zoX9a9LdXeBudiZtlDVsFUgJ9pmAj3Zp5fWNuadW26Ul/d7eTPpJdxf215dOS/7Rdy38hnleX5lfwxGFzyn5+P2Xr4zynNiHTP1LeVXduFls88onfMq3EfbXDbbKr9oy8z4jKjKV7ZsX0usZ0T0z+XzfrbN8Otf//rT5//0+Y5//Lz0yWgJvB8HAO6b6v/4iFgu1hPJebnciLV+0f+ccgBwu8T/s6P/v0t+/N9/eeTPvJfWNuadW65Hzz/vx3RFzl9KRyyoloJYSuevn3F8dVusIwbZHAXmesE5+843rWZr+/JVUE5Bs3geyle9uawT/S0Y1/4OBeS073WI3XfK7fKuMUe5VHf7Kqs61aXqPoHpBIGq/VlG5Uf1zZY7Ny8zKrfE6Dhr8ipGPlXeTJ1bwRNh2ILRE+ElWy9d2ZfKlrb3nz795je/OQxscYl4VX73FGr/S0e8mvqocD2CLVjTj6prQMTztV0il+mlI2vylHai3fOyDS6D6xFswagfxf/TFbN+kVg/PB9mr0exD+T+MOof55YTI/+1dWVGdUUUONPqtkMQSyvP2n287umVp30LoKUAnd6mycG5XJf5KWCm+vZBOq9T9buPgmtKa+6gvEPZ4hiRuMJO51it+LPXcFud+bvntkL961K96MCcVDVsDuooHW3nBH1G5Uf1zZY7Ny+Ty0WiX0X2iemlvEj0iz6VXVR5sb5RWYBbpxpEj2xt8PK0tj1y/qH8npjn+b6vQexNG0A1sGnF3K/+26+Oyvm+D7ryke/oV5EA4P7wa8KIyj/aIjHPfXu2iOePfJzo6/65XLa7LwDcNqP/r1Ue/79hidhHcn+Z7W9ryomR/9q6MrmuiNvzKjd/1dPzs18OzlU/trB7TfTYT3YLshk7/5hndRflh7+yWqzQiyjY5wHBqvyWXCpWzBWNuhTUWRvoyf5L6Z59lD43b2SfLeeM/Gfrkr3K6/mLGf9R+UvhiTBsQfd6FAZOTzv+tOk3//03NjBFvwqvy8vn/B62tL3VrwFOAToNprkuD8h5UE7o6ZU9xWLV3KPB9Qi2YKkf9a4f0e7XBrdVZbKt8lliVGZ0zKUtXA7XI9iCUT/S/9cRPd+lsrEcPA9mrkf5s19K9+yz5ZyR/9q6IktlPa2gl4Jfdu/e0rqnj36Z3aq246CbgmN5LmK28EpqDw+exfmC5jiabyhfx+qd087v9NdcrUw7vq2ee4R5iPrXpWLFXNGwMYij/aUgj/tke8zLtlHabWvKzfhGYl7Mz7Ze2v2zzfdzepSXqfIu9R+VB7hl4iB62N8v8fYgmLb+lEk+mZPyYT/69dBrrH6sOHAqT989p0EvBuTEtZeMA8DTov//M+loH5XRfqSyOV5m5ONEX/fP5WI6+gLAbTP6P5vz4v/xvF9t4WUR+0S0jdJuW1PO/bPN93vpSGWP/jEv26p0fBX08Dpp8KuweUcIznkg7MivzRfsO90UoPv5+HvqtH94vbU4nvI84KZ0LzCneYaOcai32R6O+bjfdX2pWDFXNGoV1Im22SBPLhftS+m15UZ5mcq38l9Tpxj5r6mryrvUf1T+Up7qiXC+uC7Z4bbpXo/a5+logPNBxgaoNgApICY0CMWVbLH80n4m5vkA7YPobiD+9OlXv/qV7XtAzs/jMZeMwylPdT2C58VMPzrnepLTo3Kiyh/Vl+mVX2OH8+F6BFsw6kf+/7ZH9Ivbylb5wPNhph9V9qX0OeUya/yX6hLyqfzK4+wf9ntgy9+MiX4lKtfmAV7OyiqYVnwXnOYumkvIX0HAr795Y8c031ZP9hc6B/8aHaV7gTnhP1rhgb6nWBSg/nWpWDFXNOxSoGc2yNPzk93zKp9zyo3yIlVezz/W6emYn4n+2XcpL+7nfLdnm9Pzj/ZR+Wsyc1HsMeMnnxmqsnAf6PPTYKaBTIONDWptQFPanxApIOZBs/x5x7T3B6dnP+IfPjsE3/TkSgE5raDTAOjHtkFzf3zl9wZZAHhe+HWiynNG+VVerLOX79s1xDKxrpgX7b4PAPfB6P/t6P+5tk72gZdB7zNf6hfnlsvM+s/UJXp+8TiezoE5zTlmf7F0t1rt+DVSC6BtMA84WhjQ0qPAnAJ/mhdVQcHH5FLdXWDOO1TkXPUi570gjgd7nMrHyb7Zf8a+lB/to7yePedVPj17j5H/OXnRnvNHeTk/2rdm6QnMjK1ixu+S+uG2qPqRBsYYBIsoEJaDYxqQFEhTH4h4fb2+Ufn4VgOh169t/h4H2fKScZXtHQuuy+h6BDDLUj/y/+P+/3z0f75nFzGvqsNtmejjfku2mM71+H7ewmVwPYIt6PUj/3+8RC5T7Ud6drhv1vSjXn7PvpQf7T16/j17j+hflTuxp8Cc5hJrAlz5Rx40FzBb4buGXYBwN8/Zqs5rov51qe52xdxWqhoWYAvihc8vftnm9l5ehftHKj+n8ofb580PuydFHhQTGvgUGBMarJTnWH5DgbxYT+wDvf5Q+Wgr9MMS8RwcP66+Y+4plowDwOPi1wS/RlRUPpV/5VfRKxv3e3Us1e1kv1GdAHC7zPy/jT69//sz9QDcJO93gTXNH/TAXFsLsi2sYNNqM7+/XxsE2/kfv9IaH9afi87Jv/dO8557+IqcS/WiA3M5cv6//++bo1VW8Lz44v98ffR5b8XoCUzez4N95dNLR5u2Ts8H7ovYj+z74tpA6gOcBiYNcnqipYHJ0KDb0nkFmy/9jnWfi4KD8TziMezYK56owePQux4BrIF+BFtAP4ItoB/BFjz3fmRvr+zvzXWfbm/W/PzwvWujwJbytdU9vuYcFhRLPiM07/DVbTZPuHCFm89lvL4tAn3XRv3rUrFirmhYgC2IAU0+/YgAAAqTSURBVLKZIFrOX/L39AyxDNw2+cmTbKMByZ+Gub8NYBpgN/h+h7y83c5Ng/tGgT8AAAAAADgPfe2N7s1jYKxCb7f05gcWWPv5ofzqQFiaL1gdnWMtYUG5bx+Ccrt50X3MOy4VK+aKRgVYQ68fVcGxHCSL6eg7oiqf7U7PDreH96M4ONpKuYmBzcps+KQqoqCfnsLpGFbnGYMsPB6Ma7AF9CPYAvoRbAH9CLbgOfYjBeXsYfn+/t/mDvuvvdG8QD5ut7yWru7ldz/icFkwLAf3NH8QlW8Pm3O0erwOoSDhPcw91L8uFSvmioYF2IIYFFu7X6Urm6e17RH94cZpA0984uRLuUvfhAXw0kC26mnXABtsJ3+hCQAAAAAArscueHb63W4KqB195U16q0Zlq+DcyTxiYmFAJJ+PAoRWR+HrqIwHF6tztfnHRnOZx+BSsWKuaFSANfT6UQyK5QCZp2d8RraqnkjPDreH+pE9XQrfGbdmULSyYUCbGRDh+cG4BltAP4ItoB/BFtCPYAueWz9ScE1BK7/v3z1EP/0xNs0NlOd+Nkew8sdzBC/vPmsWBzi7gN/DOY2+q+7rb97YOeTjCp/DVH/PraL+dalYMVc0LMAWxKDYTOBM+zPk8ktEf7ht9IRLy8lnBrQKC8SFgc1+RIJfTAUAAAAAeBbk1WlL9/vZX+xsIfCW3toRaxYIiLxIQMfsrXjrBeTetLnQ2uPeCpeKFXNFowKsodePZgJk0Z59qjLZ39OV78gOt4f6UR6k1g5MObAnm9WR/OD5wrgGW0A/gi2gH8EW0I9gC55TP8oBsJkH+b4CzsuIXT0PAb08D7Ey38+vmssBQAXZugHDfSDQgnHNR8dW+l4XFKh/XSpWzBUNC7AFOYgW9x23VSzlR7Lv7DHguvgg6Eu1NQBWfo4NkPFV1sGTporqiZgP3pU/AAAAAADcDzGApvTsQ/iTB/gNzRsOiwD2wTLPF2vnIgoSetlhYK6h+YnNkZqf/p7K5564VKyYKxoVYA30I8hoENLA5AOnngbpl4oUdNOAVw0+6kf2xCj+KtI+sJd9uxQDqrABe8XKO7hfuB7BFtCPYAvoR7AF9CPYgufUj44Cc/o+tvhK6gK7QNzD98DZXCOsivMH+p5vZSYDf8JW7+3LLgXmnhPqX5eKFXNFwwIAnIv/ElL8rreI7MrvrWKLT5rEmsGwF5hbHeADAAAAAICbIwbmxMyrrE71dk1eFVcG7ybnEXEe4+dZ+T1HLhUr5opGBVgD/Qic/JRJxIEtYsG58BTJ+1H+laVdnXODmq+42z09S4Muq+ZeBFyPYAvoR7AF9CPYAvoRbMGt9iPd82tOoPt2x4Jgg3v23Sup53/1jeYKMbC3C9Y9BN526eN5hM9xYj0ZD+B5mTUBw3tH/etSPXpgTiftJ34LW8cblC3bc7bOrD/b57d9/e3r/ZOh3UD26q+vbED6+j++3m2/+dpWy3m+thr03nz/UI94/d3r3QCb/F5//3p4fG01qKo+vTb7b//v35pN39mwq0f1WjBwUJ7t89g6s/5s2VZbZ9afLdtq68z6s2VbbZ1Zf7Zsq60z63/N7atvX9lDc80PFNAy+/uPtlX6z//+ZwugVeX1IP7VX14d5gm631e6Ok65ff/J6vfy2mq+ooCc+2keE+cR2iog2D1Om3/Y4oIfd/6ePvF7xttL9eJfZUUIoXP14W9twNJ17e+fPr37+Z1dUCXtf9Co1Owu5WlQ+/hx5yNpX7asWJep1WN+ob6sX/7zFysn6bx0/HzN3WLQQAghhBBCCJ0n3ae/e9/u2Qf39VK8tz9SKxfv6TVnKP0G0vFVv8uOpXMKOpmPNPn8wuI87TyUr7J5npLnPGhZaksCcwghtEK6tul6psHJBzIfIDUQ5WvfQW3AyoE4Dc5xYDQVfrpY+zHjwKdBT8dXPSaV3V9r86BbDbAIIYQQQgihK2t/f5/v+zVv0P19vseXDvakHPjK6UWF+YIpp/fS3CHPa3zuIX8d1+Yg4bzLuQ1aFIE5hBBaozbwWBAuDEAalHxA1HYkXRePnkh1BsITv7002On4jo53FHxTMG5/7c3nI7+qToQQQgghhNCVpPt9zRXCA3IF3HQvr3tz3d8LzQks0BVUPVjXPX30U/5Zq+ZCvKYKwkl+fotqf6PqqAKJaFkE5hBCaKXy0ytdSH2AnHlClAfYXJ9L9Q0HtxAclCp/u+7u/XrBPoQQQgghhNB1dHLvr3v2TrArzyfKoFu7t7eFAkG+SGBW1QP83jkpz4KGmmek+YfqUTnlV4E9NCcCcwghdIZiwMuVB9KuWrl8Pazqk2ygS0/YsnxgrYJ4sV7VEQdghBBCCCGE0PWUA162Um1hvqD79xhkq+YJuR57AJ8DeAuKwb0yABjVju8BOP24g6O5xdT8Bw1FYA4hhM5QtfrMBsjJJ0Ung2nbz/W5PPCmwVJ+unALBeJkt8G7pSvFgbw6Z4QQQgghhNAV1O7BYwzEglgTcwXd7x8F89KKO1OqW1L9MaC3pKN6i/rQ40mfA4E5hBA6Q7qmxcHPAl8rnlTZNXEfNJOWBlMPrFkwrqEBuxeQkzyg51Igr1pVhxBCCCGEENpW8V5c9+xr5glxNZvu+atVaflBvx1vRczlaG5AYO5JRWAOIYTaQOQr1jzopYHTBqoQOMvKgS/JBtFBmSgbDMPTsLUD9pKOnoI15UAgQgghhBBC6HrS/bjiIpozjB7AZ8X79jxniMr39/I7BNsWdLQyr9VBvObpRGAOIfRy1QYgC8a1a5M/idJF0dGgpjx7/bMT0MrBr9HAWUn1x0Hannyla+c5skE5nIevtkMIIYQQQgg9ktocwn59deXDdwvk7ecYPk+pVN3j5/lJTzbv2Ncr/7zgAD2e1P4E5hBCL066Pmnw6Q1yUfKxgaoKzhVPlyzdCeRl5cF07RL0E7XjajA+elKmc2SgRQghhBBC6GzpPl1BMt1XO7qPXwqCWVxkcm7gim/hLAXaTvL384GlY+r8vZzmOzzEfzoRmEMIvTgpaHUyWLV9DUjKKwfPwQAXnzZJFmyT76TyYGqr3WJgbUK6UdB56Dob67JAn4JyxXkjhBBCCCGEFrSfB+ieWvf8utd2dN9vAbrOPOFcxe+YW3zo3/JO7vf3tjgviLK3fMJ8w3zDWzzocaXPicAcQujFKA9CGrQU0LIl5m2roJgNvO16FYNtpmrQ2ysPmGsGt0PwrEnHLI8d1Y5j56lAXCsnf21zmUOAsDhfhBBCCCGE0FgWeGv32r0Al0v55rdBcCvODaQYpOvK5ylRe5vmDDo/4fODOB86zBnQk4nAHELoxcgGnTYwuXzQy9cqly9Vj8p1uBQUk78rD6hLsiBbu0Za3QuBNJ2DfHVMG2TTDYDSGlxn6kIIIYQQQgidyu77U8BKNn/Qn+/BJflX9jWy+vfzCt3rzwbNDvOPdP+vOYPNDfbEuU+vDHpcEZhDCL0M6YlRuAbp4jczCNmAnAJxKlcNuKo/2lUuXwdHWjOI2zm0vyFKx5JdrDkuQgghhBBC6EGHgFWQ0gpsKWhmD/DbvX+eJ0jyWXNfn2Xl9/f5dqz4ts+SNOeZnAv43IGg3NPr4399/PT/AVjjLVr4lam3AAAAAElFTkSuQmCC;" parent="1" vertex="1">
          <mxGeometry x="190" y="140" width="730" height="300.42" as="geometry" />
        </mxCell>
        <mxCell id="_-NGtjVIes7nd89tp72T-6" value="" style="shape=image;imageAspect=0;aspect=fixed;verticalLabelPosition=bottom;verticalAlign=top;image=data:image/png,iVBORw0KGgoAAAANSUhEUgAABDsAAAD1CAYAAABeHv71AAAAAXNSR0IArs4c6QAAAARnQU1BAACxjwv8YQUAAAAJcEhZcwAADsMAAA7DAcdvqGQAAGOTSURBVHhe7b29ruzIsa3bxjZkHKONY8i4xhawX+W+wAXuE1xTj3DfQrae4AAtQ8BqQ0BvR0DLaGDKOIDaENBtyFjGNtrYRhvLWIcjZ41aY8aM/GEVmVWsGh96gMyIyCQrik2yYiU5v/q8gn/873+c1tr88ssvp7VX0M+yLMuyLMuyrO31/V+///z9f37/+ad//nTWd3/57vOHP334/PK3l9f2t999fvnhJe1Pff+37z+//L0dY1mWdRRNK3b8+t+/WpZlWZZlWZa1gz7+/PHzTz/+VNY/479lWQoXf1/u35c2iyDax7Is65F182LHx38tJ+blxIuYZxE+Lz53lg8VYv7xYz6GdYWWnPby/7S5H8gNhBj/f5vrGXMDjeTHucnzQiHG5/wdNHhes6xHUDmPLMc91kvB45fXgkfxffzisyzLegbdtNhRbgCXE29p//pEWj4vPjc+v+ZD9ebmOBvDulxLTpHbLP84dvXG+POn5QB+IuEzlxulJQfIheaG8v+3nf9vnzE30PKZW/lxbnzOv5mWnNbO+Zb1iPrl43IvIwUPCtd1PMYS4y3Lsh5VNyt24Maj3PhmNyZPInz+881tzA3sSR9rO52PwST3WSHgmdQ8Nv3/rXPTUJYf5+ZVzWMH9qSPtZ3Ox2HIv2U9okrB4+9vCx6//Ncv5f0dMdayLOtRdbNix/lfWJIbkqeR5kHk3EyS5vokzGjAMisAPJOQHx+bFWkeRM7NSZoL5+atkty8sWV9rO2kubasJxCKGyh4lOVyL871LNayLOsRdbNiR7FlNyNPJufmtor5R7Ej+/H/jGLh501+fGwW+f/btt79f+XcnOVj57bK8m9Zj6wym+PvL2WmR+a3LMt6ZLnYcWM5N7dVzD/a2Q//Z5SPzbqcm7ZifpybL/Kxc1tl+bcsy7Is6zF1iGLH//P//n9FmT22a4pxI32idAztz2UtpqVrcwPVth1tjMsU47Qd1fOrsvGj1M/4qJq/1ofxPcX8o5398M+E7dTsmY/2lmKfmmp9sna0jWqLY7Ml7lu0abtmU9X6UJkv2tZqi9yM7h/jMsW4Wlv7qGr+Wh/G9xTzc8+56dk5nvpq/Ud0hGMns9diqJ6fQtyIYh9tq1q+TFn+LcuyLMt6TB1mZke8Aard4NRiuF7rpxqJoeI21vSFtsgNFLdd249aDNfX9lPBvkaxr7ZV6qutZ+0Rxfyjnf3wrwnbVNVssU9s1+JaivEjfaisb9S1x2a2XVUWH21UzafjqbJYKItVZX0yXZsbKm63tg+1GK6P9IvqjVlrjyjm555yg3aU+jRWbbrMpH1aOsqxA9X6RsHXUtaH6vmpGDcydqYs/5ZlWZZlPabuvtjBG5qWYnxc11hVy7eFuB8tXZMbKNtuVIyP6xqryvpk7UxZzKgtSmOwrspstI8o5h/t7Id/T9xuXM8UfSPxWUzWjnGxvUbXHpsq7ENmV2kM97umrE/LRnvsH33RXtO1udF9qSnGx3WNVcX4mjRG+9MebbSPKObnXnJDZf2ioi+uq1/bPR3p2Bldp2iLvmhXjfhHlPXNlOXfsizLsqzH1OHe2dG7qWndAGV9r7G17KPaMjdQb3/gV0WfttXeU61ftq6KMapaTFxXW9ZuKeYf7eyHfxS2Ael6S7W+WVtV80W7trmuNtq5PqItjk3uQ8/eWtd2VOYbsWm7NX5NW+RG1dsH+FXRp+1o037R3lpXW9ZuKebnnnJDZT7a1If12jg1e0tHOHZoV3+2rrbYjr6aenGtbbRsNWX5tx5L+BPD+Ksjqo8/+08OW5ZlPaNuW+wIthGVm5rETqk/xrb6wqdSWxanbfXXbDVtmRuot+3Wvo9+ltY24BsV47XvyLpK/XE5ophrtLMf/pm4D5mvJvbRfmpr2VWMqcXSlsWoraVrj01uL1MrVm0xJrajjfZoi2Lf2hg9XZubqN4+qD/GZn1r8a11lfrjckQxF/eSG7Qzxfhoy9pR9Pd078eO2rO+tT4QfKosJqoXF8esKeub6ZpcW/etn3786fPL317KEn95BH+FhKLPf5HEsizruXTXxY7shqama/pcIvbXsS4Z99LcQNzeiC7pA+n2dIzMDrV8mTR+ZD0T/XE5ophrtLMf/iPCdnUZ19lWZT61RR/9tdjozxT71HTNsZkJ287slPp1f6Oif208baqeP+qa3MRttXRpHy5H1zPFsXrxqpiLe8qN9tO22tQXba1+I7r3Y4d9dNmyqWgf9TMms1PRn8X3xlCN5to6jsqfVv3hpczoQPvz8l8m+PD9I177W5ZlWY+rQ83swA3NmhujGJv15ZgjqvXlevSPaKvcQLX9VKk/xmZ9OWZPGq/9e6r1zdaxrCnGsW9PMddoZz/8M3Hb2Xq0UbRFX2xHe/Rl9lpczdfTVscmt53ZW221qQ/rmV390RY1EtPSVrmB9PPUpP4Ym/WtxWfrWNYU49i3p5iLe8yNLmtaEw/fiO792KHi2Gz3+mT2lnp9dLstZX0zXZpr6z6FAsfL318+//oLqhnLtQuLZR2PrUCYyRELHiiMICaOZVmWZT2eDlfs0GUm9WXrrb7UmhhdjvSL2io3UNynTOrL1lt9qdHxRxT3QZXFZDaux+WIYq7Rzn74Z8J2VGrXpdo1Vtu01eJbyuK1HddHde2xyW32lMXqGLqMyuyt2J6yfpmuzY2K221tX33ZeuwbY1RZTGbjelyOKObiHnOT+WMsbVQrJtpquvdjh4I9xmextLcU+6h6/qi18VGX5tq6P5V3c5y+TxY50EYxA4+t/PTPn87v7GAMhH7w61iWZVnWY+owxY54g1O74aEdSyraGUtpbE0xVttcz9o9bZEbaHQ/aMeSinbG1tSKGemv0vha3ywGy5qdthHFXKM9CveB60TtSrSzHe2K+mrrNbJ4tfXY6thUYdvZuiqLqfXLxshsUZf2o7bKTdxmbR9ox5KKdsbGdvRldh2nZqdtRDEX95ib3pLqtWu2mu792FGprxVHZTG9fr3tr1E2RtQlubbuT3gURYsYmMGBdvZOjuI7fe/n2R1/e3kTY1mWZT2mDlHsqN3ERHu86YlLjau1sz6ZLfqiLbNnujY3UG1b0c79oj0uNU7bUTU/7L2+USPxGsNt0KbrGqPtlmKu0R4F21G4L9EOok/bKiXaY0xsA9qir2ZvsdWxCWk7s2e2testGwVfzd/qF7VVbkbs3Gfa41LjsvWaYjylbfpp03ZLMRf3lpuoLCZbZzuTxrR078dOzV6LgeAbGSNTzx+1Nj5qba6t+xQfReFMjVL4aDyaglkeeKyFsztwHPhlpZZlWY+vQ7ygNPNRrZier7XOvhT9GlfzrdGluYFGtt+KGfGtVTZWS7U+2bgaG/1RjOsp5hrtEbgdXWe7RoyPRHtcj37AdvRlcTGmx5bHpm4/i6nZoy36uB79KvWzX9ZHfT1tmZtMrZieT5dR7EvRVvNHMa6nmIt7yk2mzEdb9LViR3TPx84aaZ/WOC1fT9pXx8jsoxrNtXXfwmMoKHLgfrMUPpKYN/rltUDiYodlWdZz6VDv7HhEOTe3Vcw12uYVH5t1OTdtxVw4N1/kY+e2cq4fRKfiBTT611V0Nkh55MV/lcWyLOvh5WLHjeXc3FYx12ibV3xs1uXctBVz4dx8kY+d28q5fhzhsRQ8npL5Mul7OvzODsuyrOfQTYsdiHt2OTe3Vcw/2uYVH5t1OTdtxfw4N1/kY+e2yvJv3Yl+eX2ZKNV6B8daYTx895jV8dPPr3+pJYuzLMuyHksudtxYzs1tFfOPtnnFx2Zdzk1bMT/OzRf52LmtsvxbtxVmaLz8/fWRFHw/FGZflP83rn3c5PTISymmnP6KS/nzs//86bWw4sdZLMuyHlYudtxYzs1tFfOPtnnFx2Zdzk1bMT/OzRf52LmtsvxbN9Ivy7H/93+Ul42i4MCXh6rKjIwr3q+BfvpeD6x//9fvy3GAYgeWKLSUbWA2SehvWZZlHVsudtxYzs1tFfOPtnnFx2Zdzk1bMT/OzRf52Lmtsvxb84XCAosQLGwU+9LG96QFD9g5M0PH6KkUM/6+fN9LP47FooeOTztnfMRxLMuyrOPKxY4by7m5rWL+0Tav+Nisy7lpK+bHufkiHzu3VZZ/a644WwPrKDRgidkd5bGVxY7CRvmeQpGCfXpiIYXv5eAYxbeMg8dmIMTRR3/5f/FUELEsy7KOr2nFDss6gj5+/Hg6ag1ykeXIsizLsi7Vhz9/KMUNPkby4dsP50dLKBQrvvv2u3MchH4oeGhcpg9/WuKWJfv948d/lPHRH2N+958nLesxFtsr25HxLMuyrONqWrFD/2XFsizLsizLei7hfhB/DQX/2ob293/7vsykiHEQCxX81zmso28Wq2I/rGN72AZs6XYWW3mcZll/sx3Ex1jLsizrcJpa7Pj8aWlYlmVZlmVZTycUFgjejwFlcVSJx/rC+dGTEJMJ952YBYJiRuZXlQKH3N+e20msZVmWdSy52GFZlmVZlmXtqlhUKLM28F6OJJZCwaK8U2OBszOyuHdCn8xeUdmv03bQPhdZLMuyrEPLxQ7LsizLsixrV6FQgYIFGS52YH3hXPgIMVvoPGvkhIsdlmVZjyEXOyzLsizLsqxdFWd2oLiAd3BksZAWR/Z+tITv6Cj8KkUWy7Is69ByscOyLMuyLMvaXfpYCtqtR1Pwl1HKzI+FVY+wXKByf3var3ORJYmzLMuyjiUXOyzLsizLsqzdVf6aCooWBLbTn5fFTA8UN6Dy8tKfX/8UPNp4rIQvNIXKGBs90oLtcltg5PEay7Is6xhyscOyLMuyLMuaItwT4rEUBfeIKDiUwsep+FHiFxD78ePHN4Ifs0TKYzBXFD1QNEFxo7QXyqyOxqM1lmVZ1rHkYodlWZZlWZY1R7+e7gvlhaCXgjHKvenagscSX4orUlTB0u/qsCzLeiy52GFZlmVZlmVNFYoNeDwFBQfO2CgFEPgBChIyk6M8wrKsl8KGUF5eytkZHZWZGz++zgrRYgtfgFpmnCT9LMuyrGPKxQ7LsizLsizrrPLoyL8+pr6thQIEtsVHU4p9AQUMFET4jo5S7FiEmPKOjVMcOL93Q8aFUExRYRt86Sm5eHaIZVmWdfdyscOyLMuyLMsqQqGjzH7AizonznTANlmIqBUvKBZHziy2UigJBYvyQlSZwaHgvhTbbG3HsizLOrZc7LAsy7Isy7LOhY6y/suX9b1VHi9h8WJpj7w7gzM9CIoWpbChcb+e7l1PbXy+MpNjGf88y0PjLcuyrIeSix2WZVmWZVlPLi10EBQEUIiIsVurbOd073gufCRxKuyv3pfW+qG4wcdYMFvl2r/gYlmWZR1HLnZYlmVZlmU9sbJCBzgXFEL81kIhoqwvrCmwlH4nzjM9kjjLsizrOeVih2VZlmVZ1pPqXaGDvhN7FxHOj8ucwPrQ4yV4RAWPu5yYNQvFsizLOo5c7LAsy7Isy3pC1R5dKX/KlSy+kXdoXKp3xY7BosW5CHMie0GpZVmW9dxyscOyLMuyLOvJlBU6+JLPUnCQe7liw7suwhhb6PyozAlsF9vPYqk3j9csYP/8V1Usy7KsKBc7LMuyLMuynkznGRQn3vw1Ez4ignWwLPecOYH7RBQwSNk37ksQ7OV+lOHYVxY+LMuyLEvkYodlWZZlWdazSQoa2Z9tjY+J7PmnaOO2YEPBA/eP9KH98veXLzM4wKnQUQolMp5lWZZlQS52WJZlWZZlPYhQlMA7N8o9W+JXoYhQ7tEqsyjezO5YwLhDLw+9QOcXkypL8+PHj0Xn93icQNuFDsuyLKslFzssy7Isy7KOruU3f5kNgYLEf//6ZbZEFitqvQwURZAyk+LEm3dlbC3sPwoe8jhLyulzQuk4lmVZlnWSix2WZVmWZVkH18sPL2/vvxZbuW9D7SDErhHG0AIEigwjfy3lIi2bwfbKfeOyDWyX4kwO+tL+lmVZliVyscOyLMuyLOvgQrEjgpkZ1/4VlfinYWE7P96yk1Dc4CwVCu1SdEniLcuyLCuTix2WZVmWZVlHFmZEoACBVRYEwLIs926YmKHxKxXfpzH6iExVy1AoxNTeFWJZlmVZW8jFDsuyLMuyrANLZ1/gHRvlfRYnzr6k36hQQCn3gGiDZXnxn6Jd+mB/sJ9lX6/cN8uyLMuqaWqxw7Isy7Isy9pWeFQF91qlKPHjPz5/95/fvXnnRfmTrfiLJknfUWF8bIdjcptZbEtlX/718epxLMuyLKunacWOewIXWrM/zvOx8PdljoKP1Tk4z3PYIs8obJTHShawxMyO8q6OE7/+epqZcQ2flvu5H5cx8K9lJ9DG2Gsoff77S59S8JCZKHvh43kOzvMcnOc5OM9z2DPPLnaY3XCej4W/L3MUfKzOwXmewxZ5Lu/Q+Pha7OCLPM8v9DyBmPJXTK4A22BRBWD8UgBZAYow3FeAdrxv3AMfz3NwnufgPM/BeZ7Dnnl+ymKHMcYYY8yjUAoGp0IGZ1uU2RxaiMDMjA3ux+JsjlaxAnYtbBD0wTj4CzKZ3xhjjNkCz+wwu+E8Hwt/X+Yo+Fidg/M8hy3yrLM4yj3X6VETLYKAODPjEnCPh3HP8PEWAcWQ8ijNolIckRkmZO3jL9fi43kOzvMcnOc5OM9z2DPPntlhjDHGGHNgdLYFZkucSWZzaDHkUrJHZMoMjWVcztqgv8ww8X2gMcaYFrgu7SDP7DC74TwfC39f5ij4WJ2D8zyHLfJ8LmAsiuPF2RzvZmZcQClg6GyOZbvYByi+FwRFj7JP2L8b4uN5Ds7zHJznOTjPczhfI3aQZ3YYY4wxxhwY3pDXZlEUG278TuhMkAJvDFcQH5F5M94C2nyUZe3YxhhjngxehzaWZ3aY3XCej4W/L3MUfKzOwXneCdyACVfneRmPY2AWxZsZFyfibA6NQ8EC62vv1TBm2mfZn/goyz3g43kOzvMcnOc5OM9zKHk+FSe2lmd2GGOMMcbsCAsKeJ/G5vdEy80cx4xFDQUxOvuiFCQWW3nEZRkD+1jr+4Yl9vzi0TCbA4/MYMx4H2iMMcY0ORUntpZndpjdcJ6Phb8vcxR8rM7Beb6eUuQ4FRRYGIhFhWvzjNkT5VGRBYxd+2sr2awPLVbA39sXjJ0VM86f847/jKyP5zk4z3NwnufgPM+h5DkpVGwhz+wwxpit+UpOrbpujHkOlhssFCA4a0JBgeF8Y7cBOpujvIy0VnBYtof7sfhoCfaH79aIMzUItpEVM1hAKdvf6PMYY4x5QnAN2UGe2THIV8sPFkrJ2tEWGYlRNH5Nv1tTzTM+w4hGqMVn7Wgj9PVEtJ35ajC2FZOxts8l21i4qHrNbcXtZe1oU3r+jNE+jOuJaDvzZcT4mmqovxVHeuP1WNu/FUtfL2Zke1lMYrvlObzli+hYXM90r9TyzH2u7X/vc/X8EY3dclwy0o8xNb1hublC4eDNvdBiQ+EDOcU9UZmJgRuxhWvzXAocp9kcWGKWBdB+iMF26SO/+4/fvbFn2wEogryZFXL6jFCtT0T3pwZjarqGLM/Z+NFGkdgGmU1p9VHV7Jlq9PxAx8l0Dfd2fm71oZ0xme6VXp6zfY82/ZwU7Ups14jjkKwdbTVGYrOYkX4jjB7Pve3R31ONnh9kMbV+0c52FMl8UddQ8oxr4g5atWePUuyokX1xqowsLpOS+VUxhsT2Q4LPFz8jbTVlZHGZlJotorbYJ7YJ7ZkiWUymGj0/WRtXU0YWl4lkvigl80dFMnstjsQ+sU2iLfbpoePqujISM8ra/q14+lrjaUyUEm1ZDMhsC3rezJSRxWUicT2TMuI7Gtxn7n+mFr0Y9cXYWl/aW6rR84Nef6XMkJDZE2X2AwsKuPkahONy/zIBFDg440K3zRhsm8WQM6f9QLED+4WZGTquCmD5m//xmxIPff311+/iqBo9P+j134ts7Nr2YKeP65l6fopxZO16BL6WH/T67wH3q6aMLC5TLXatHSK6fkSyz5N9JtrUX1sHbNeUkcVlivT8IMYwrmbfimz8TDVavsjImDGGcTU70PVIjO2xJraKFCi21Ko9e5Rix0g1NPuSs3aMi23lEp/aGJPpHlld3cfnaH0W+mNM1o5xsZ2RxWR9GDeiGE8yW43RODISH2PW9IlxWTvGxXYk89X60J75MxupxUcYd4la/Vu+mkhsX8va8Rg/ooyWD2j/lk7c4hyusZm/R9bv0rFmUcsz95n73/scMa4mom31Z8pilMwWWRNTE9GZFQD3Q2UWR4Nr84xCBbaDIsRv/6/fnuNQkPjdv78WJ1S4J/vtb3/71vbjP9Kx39iWm0aMGWeHaEw2BoGv5QeMqekaWueNOHZre9Gn7egDNT/X1QaivaYaPT/QcTJdwy3Oz4D2LJ5S2M5idP1eaZ03RkS4rva4nsGY6M/aMS62M0b70JbFUtew5nhubS+LyxSJ9lacLgFjqTVkfXSsTNdQ8hyKFFtp1Z49SrGjRe0Li3Ztc11tQNdBzRf7Adqi1Mf1hwCfg8qo+aJd21xXG9B1JcaBWizI4jMY1xPJfJlq9PwgxvT61PzRrm2uqw3oOoh+0rJzmalG5l8bnxHjsj69ceIYkehvtbme+WmLfqAx0deiFhvHy0TWthvo+VGJdm1zXW1A10H0t2As47O+me0IxM+05nOM9IkxGqfrJPqjeozGdVluqvR+hzMmLoX7xP2r7afO5sD20UbRQ4sZ53droPCy7CdmgtAHsIQvbiOus831mjJavlsT94v7Gvc52nvSPrV1tUVavhqX9JlFbd+iXdtcVxvQdcC2xmpMXI8x2TrbR6b3OfSzMi7aaCeZDUS7trmuNqDrIIsh0a5trqsN6PrW6LZq6xk9P2BMFhft2ua62kBcj/5Izx9ZE1tFChRbatWePUqx45JqaCTzxzj1RehrxYDMp31afW9Nrxp6Bp+BylB/VCTzxzj1KZk9iyOMr0mJbSWLV3r+yCXjtfrQlymS+WOc+kBsk5qd0B9VI/OPxNdEok3bqh61mKx/tLGdqeUnmQ+Kvoy1dhDHY7snousCz42ZIpk/xqkPxNiWNCauk8x2T2z1L4fKSAyJsZlI5lO16MXoOC3p4yRg9Bp4bZ5RxOCLRVGw4CyPs/79deaGPloDysyPU7EDZLM7tK3bVGJMjayvQn9Pl5LlORs72mgnasv8IPpHRDKfijE1NC6D/p4u5ZLjOZL5Y5z6ANs9KWrLYnT93hg9v8TPFKEvi8v6MS5TJPPHOPUBtnvKGIlZy8h5Y2ut2UbGmhii8aqWr6ZLKHlOChVbaNUePUqxY4T4pdW+wOjPlNHzg5q/1++uwX6vUST6WnFc1tTzZyKZDWQ2oLYYo22ujyrS8pHM3+tDGMfYWr/ozxT9sZ0pxkSiT9sjIpkNtGy0Rz9Qm8ZTtGdoDIm2VkzLF9dJtGmb69rOqNmB9gdr2wPwPMlzZe28Gf2ZMr+S2YDauZ7paMR9zj5L9rk0TtUixsR4+mMcaflAzw9G/VpQwH1QmUVxBXGb3I7ay3Zxj4WbuhNa6Pj6f355t0YENj7mAkr811+XdcbHfhyrpYyeH1zrvwYdl9uJItpWf1QPjavFx7FiO0L/SEyNnn8LuA1up7bN6M9UY62f67pU/xHgPo8q66PEdiT203Ul+jNdSxxnq3FbtMav+Vr2LfY3jlMbN4trkcWv6T9EKFJspVV79ugzOwC/vPilZfZaHJfRB2hviWS+TPfKaNV5+RCvasGYGJfZa3FcRh9p9YswNvaJbdKKqfW5BI7VGjPzteIB/bV+aq/FcRl9oGbL7MpIDMlia30ZG/vU2iOKRFsWA7L+0daKafniOom2rE10XWGflkjmy3TiFufwzM71KBLbR6OWZ/2sLSlqq62TzF/TSAyVsSaG1NqaL75HY4Rr86z9WeTAfddX//bqB4wlbOOloyjQnPudZncwVpcqJbYzWv1J9PXaa+mdN7isrZNajJLFq9Su62sV6flB9PXaa+nlORs/s9fiuMxiRxX7sB2XXL9HWnlWep8jft6WSGYDmb0Wx2XmGxHJfJkuZfR4zqRk/kwk82UimS8Tydo92EdFYnstJc9JoWILrdqrRyl21NAvryUSbbV1wHa0K+rLYqOP64cHn6H1OejviURbbT2S2Ws2tbMd7UoWT7J+tNWUEX2jcT0Y3xOJttq6UrO17D1F1tjUzna0A7ajHWTxSjbW6DjR1opp+eI6ibasTdSn9mvQMTMqPp4beyLRVlsHaicxliI1G9H1I8H95mejoo1c0858kSym1SZZXEYWl7X1Xqes40arAYoMeK8HlvERE8BtcHwq2kphZRkHxQq8q6O8JwQ3eBIPtK1LFDjQHy8tZYFERbSt/qhItGcxIItrtbeE4+o24jrJYjIRXQdsa5yuk9gmWSyI9tH+vfZWcNyeSLTV1kfIYuMYXKddfUdFP0vt89AeY9hWG1B7SyTaauuR6KvFRttIzFa0xq3tR61PzRftrTilFxPHyeIj2ofrqquRAsWWWrVnj1LsGKnStdZrZPFqA7GtZD621VdbvzdGq87LB3hVC42prdfI4tUGYptEWxZHW+aLxNhavNpjXNYnxoDMBqKd7SyWqL+2XiOLVxvQdRJjIjV/Zm/FKq2+NV9ctqRkfog+onYSbWxHtXxQy69Eu7ajMr/aauujWrj1OZzL0fXMB2L73qjlOX4e/Ry6TqIvij4S12s+wpielFFbhDEqgGIFigakVuzAuzVQjEBu8ZgL3vPx4dsPZR199P6JY2fb03VsB+OVWRrL+BqrAtkS+/Cb3/zmbCNoqy22SWYjWZ/aOApjVNcyet4gte3STl9cj0Rb7EdltpaUUVuEMaprudX5OdpqUmq+2L5HWnkGo5+J9ujnutqIxtbWa2TxagOxTVp2ojG1+DWMHM81RbKYKCWzgZadaEwWT5vGRNQP4rrqWkqepUCxpVbt3aMUO2rELy1+gbENaIu+UXsmJbZBFndo8Flan4d+xsT42Aa0RV9mj20lsynaj+u1PplvtE8rrmYHl/SJMJbxsW9sA9qir2WPxBhljY/tLD6zKdqP61mfaNNY9WU2ovYYs6bN9cxPW8uvdhL9VOZTG9dJbT2i/TMqPp4beX6M58rYBrRFX8uuS6AxI+uEtmi/Z3R/4/5rm7aMlj/62K5JY8jatrLWRxuKHfqOjqzYgdkTnEURfYXFhkII+uq2uJ61acvGe+OvsMbP8WKf2hhZLFnra8VfA8fNxs7sWby2dRnXVWrPWONbE6tkvlb8tXBsjh+3FduAtuir2UHNpjBGRbge7Ueitu/Rru2RdcB2z6/QFn2j9qiI2uP6PaH7Fsl8tNUUUXtcj6gfxDZQW88X/ReB69gOWrVnj1LsqFXp9IviFxe/PLajL4uLMSCzkVq8wphov0d6VeflQ3xRC/XX+rAdfVlcFhPjSMve89HfiiXqZ3zWL7PHmIzaOEL1+4rbSvqe29GXxcUYwLb6o0hsA42r+TJa9p5P/VyPdlKzRxgXY3v9e/5rWbv9uM52bT3S8oGKT8+LtXMl29GXxcUYEPvU4pSWv9Xv1vSulfxcKhLbSssHRschjOmJ6HqNGN/rA7/e68R3duCvtJTHSxJ0RgjA7Ay+OwNw+yoS20rLRzI/+2l/jYv+TIzroTHat8bImDW69ySB3v5kftrUl8VwGX2EvpaIrteI8b0+I2PWuOU9NqBNY7I4pRbX63dLRvKckX1OQHvmV5v6aFcb0Fj1ZXExpkdrjJYuJctzNn5LJPNFjRJj4zg1EV0HMY6ij0SfktlGKXlOChVbaNVePUqxwxizgJPSFScmM5nW9+Xv0pibozfFKG7g8RCAeyItdLD98sNLEe6R4n1Tibnyr7kYY4wxRwGF/j206u74UYodtWqo2Rbn+Vj4+zowT1bs8LE6B+d5HZiNgRurwqcv9z4lj/gXpgUUQFDE0PskFDxQ/GBxhKBdHnkxm+DjeQ7O8xyc5zk4z3NAnmORYis9ZbHDGGOMMWZLUJzAjA6C4kd5fOU0Q6MUORrFi9hfCyYZuNfCDSIU77uMMcaYI5EVKraQZ3aY3XCej4W/L3MUfKzO4RHzjGIDig58hOT8GMkGMyhwU6Xv38BLSzE+ihjxBaaK5rnMDpE/Q1ub3XEe7zRjpMwM0UKJeYfPG3NwnufgPM/BeZ4D8hyLFFvJMzuMMcYY89CgEIB7ERYe3vDptagAP26MriGOgeJFKbD8/PbRlRroGwsmWZGk3FedCh2gVUwxxhhj7h0WJ7aWZ3aY3XCej4W/L3MUfKzO4SHy/On18REUM7rgsREUGqSIsBbc/+jLSDlWmbGx3HRlxDy/KZhgn5J7qDgD5N12zTt83piD8zwH53kOzvMckGctUGwpz+wwxhhjzMOBm5xYFEDxgO/RgOIjIuxzDW+KFSfKfdBgEeXNLJBKsYP7ic/CzzM6vjHGGHNv4Lq2hzyzw+yG83ws/H2Zo+BjdQ6HzjOKBChaSAHg/CjLskQBpDz68fNP7woRpYAwMhOkQjbLovbuDRDzrMUO7GO1+LLs83lfXejo4vPGHJznOTjPc3Ce54A8Z4WKLeSZHcYYY4x5KDDTQWd0oCCAwkBGKXpgZgRBoeTK+5Yyo2S5ySLvttGgzDiRYsdoP2OMMeaoxCLFVvLMDrMbzvOx8PdljoKP1TkcNc+YQaEzM8pMicqsChJnXmjB4RJwgxVnZNRmd7zJcyi0vHmkxVyFzxtzcJ7n4DzPwXmeA/IcixRbyTM7jDHGGPMYoFggj68MFwtCkaE8HlKZCTJKNkYpojQKL29mdSw3ab5/MsYY8wzEIsVW8swOsxvO87Hw92WOgo/VORw1z+We49P6YoE+ehJnh1xKNkME457ty36+/PBStofta6xndWyLzxtzcJ7n4DzPwXmeA/KsBYot5ZkdxhhjjHkYcA+CQsHaYgEKEHzPB4oP6L8FsYgByrs4lvFxfwShAIKbMlIKIhtt3xhjjLl3YpFiK00rdvDGw7Isy7Isa09995fvijJfTd//9ftSmMCjJ/hXJsy4yOIuEcbGmChi8PGWVIu/xG64bcuyLMt6VvkxFrMbzvOx8PdljoKP1TncQ545AwL7ggIABRv+xaYK3tlxem/HKPoYC8ZfMytkBBQzyiyOZan7Vra7fE4UOuDn7BKzLT5vzMF5noPzPAfneQ575tnFDrMbzvOx8PdljoKP1TncMs8oOqAIkD0CAmCDD0WJrSif91SEYAFic5bxWdRg4eab//XN6+dsvLjUXI/PG3NwnufgPM/BeZ7Dnnn2OzuMMcYYczewkNGcuXFiqxeJogihN1u+wTXGPAJf/d///2mtTRY32pcgXnUNsX9vPPVfu23zWHhmh9kN5/lY+PsyR8HH6hxukWcULuJsjfKy0H/+9Co8vhJmXKDPtbMicN/C7WJ8FFsugY+jxPugFj6e5+A8z8F5nsNonkd/+Gdx0YZ2T1uQjdUaO8a3Ytfi43kOe+bZMzuMMcYYc3NQJNBZGpjZgRsgFjggzvoo770Qyn3Gynd0KNgGCyZ8UehadN9QmIn7aIwxe8If/SNSan4uW4zErEW33xLRdRDbILOZ58AzO8xuOM/Hwt+XOQo+VucwM89xNsW5XSlgoJig9xqlQHFFcQH3KeeXk8qfoB1m2c84G0THbOHjeQ7O8xyc5zmM5JlFgd4P/ehnu9cPjMSsJdsfKiOLJ61+I/h4nsOeefbMDmOMMcbcFC1s4B4CBYceem9RXmh66b3GBu/rKNsPxY6LiibGGLMB/IHf+7Gf+Vp9aevpUrL+rXFr8Vxmfcxz4ZkdZjec52Ph78scBR+rc5iVZ33nxpqihT56AvCXTS4BY/CxFRQnRgot78DMjmW/OZNjtGADfDzPwXmeg/M8h16e9Qe/LiMsCGRxLRuJbaD9LhXherQD2mr2LfDxPIc98+yZHcYYY4y5GaUwcHo5aClghHuIGrGgUO41Ko+9tMAY3KYWXmqgoJHGnB5lQdGl7NcF+2KMMdeiP/Rr6yBr9/pmfSKZbYRsG9HW8gGsa9sYz+wwu+E8Hwt/X+Yo+Fidw8w84z4BBYT4KEiL+OjIpcUOvUdpjrHYUcTANrVAci0+nufgPM/BeZ5DLc/xh36vrYzEXhKzFvbXcTIbgY1iO5LZRvDxPIc98+yZHcYYY4y5KXh8BDMi+BjIEJhJIfcXl9ws6WMrsXiiYMYHtsX7mxLrextjzB2hP/Zroj9yqW203xrYH8ualF4bZDbzHHhmh9kN5/lY+PsyR8HH6hxm53lVoWMBhYpzceLTZfv77k/Ohr/ogvsZ3MO8+0svKLQs295idoeP5zk4z3Nwnucwmufej3z4azEjRQO2OQ51DdkYrXYvFmS2EXw8z2HPPHtmhzHGGGMOB+41+K6P1qyMFuX+5PTYCvqz4FIKKYuvjH/ykzjLwxhj7pXWj3z4ev4elxYRWmRjrtlPtKPM8+KZHWY3nOdj4e/LHAUfq3NYledQEJgBig6ccYHZGSx8jPKmQIKZGqfCBx5rgeJMk/JOkSXm3SyPK/HxPAfneQ7O8xxinv/47Uv6I9961e//8OGUqXX4eJ7Dnnn2zA5jjDHGXASu97jGs1AwkzIT479fCxJr/ooL0cdWUMjAzRY+B8ckrVkexhhjjLlfPLPD7IbzfCz8fZmj4GN1Dq08830ZLACM/MnWTVm2qftX1lcWIrRYgn2P+4+ZHZzlsWeRw8fzHJznOTjPc3Ce5+A8z2HPPHtmhzHGGGPGWH70Z495oFCAgscscJ/Bx1bK4yhr7zNCseQN+IzL2FoMMcYYY8zx8MwOsxvO87Hw92WOgo/VObzJMwsAy/U8KwBo8WEG2BZnYmC5dtv4DGXGRgCPteAzxvuYPfHxPAfneQ7O8xyc5zk4z3PYM8+e2dEAL7QZIYsb7Uv4Ah3qGmL/3njqv3bbxhhjHotzASB5zIOPd/CxllmU+4rTtssskwtmYJSZG6fZKfhsGHPm7BRzn3z1Vf3WGL4oJbaJ2rme2YzZg5F7+1pMZl9jG9UoWXzWf82YW9HaJve7p1Gy+Kz/2jFbjG7z3lh1dn2UYsdo9Wj0C8zisoOhpy3IxmqNHeNbsWtxNfRY+PsyR8HH6hy+/+v3eQHg0+s7OvA9nH2Lbda1vjy2IoWVke1iP/WxG8BxoDIz5FQ8mY2P5zmM5DkrRLSIcbV+as+2Uet3RHw8z2FNnnv39vG3gBLtjO1J0TbXMxvAekuRzEZavlGyPOv+jKhGz9dSJLORlo8wpjfOiC5hz/PGqrProxQ7MrIvqyal5ueyxUjMWnT7LRFdB7ENMpsxxpjHhEWArACgszzKoyvyKMjLD3N+5Lz5KyrYh8YjLDpjI7sXgT8WQczzgWJDLDhktkjWJ4NjtWTMtfAef1RE1yPRx7Yuoy2idsZHZdTsisboeJn2gmO3tkNfTxk1u6IxOl6mSLS1YtSX2e6RVWfXRyl2DFX3ly+OahH9bPf6gZGYtWT7Q2Vk8aTVbwRX94+Fvy9zFHys7sSnty/m1NkTuK6zaEDSGRYTZkdw/wD2N95zgLL/3N/TPmE9PopzD/h4nkMtz1nhIVMtlui6UrM/Kj6e57Amz717efp531/TSAylaJvrmY2gHW0g2lvr2r6GVp7jdrg+sv2eH9TGifbWurYjLX8ch4ysX8Ke542nLHb04BeGZevLy3ytvrT1dClZ/9a4tXgusz7GGGMeD858iNdvFj3SxzyWtt6gaBFiN8I2y7rsFwow2V+LAZgNkr2U1DwvWSGiVZyIPm1zPYuhYltlzBbw/r0lJbMpWXwPxnBsKrNRJPNRkcwX47J+16Lb3UO9bUQyX4xrtdlXpfZIjLl3Vp1dH6XY0asexS+w9kXCTrFNWjYS20D7XSrC9WgHtNXsW7Bnlc5sj78vcxR8rG4LZju8KwJ8+vz5u79891rAaDzmod9FbZbFlmBfObsEhZXzfi/7q7NSlGyWxz3h43kOo3luFR5GfFlMr5jR8x8JH89z6OW5di+vdt7z05b1qdlqylA71zNbRssH4jg1XUorz61xa75L+oDeZ1A/1mu6htoYW4y953lj1dn1UYodLfTLqq2DrN3rm/WJZLYRsm1EW8sHsK5tY4wxz0G5Tp8KAbVZHhmxH9+lsRdaUOH2oLK/4REVPmZTCiJ3WOQwtwdFhlHV4klrXZVRsxtzDfGevtZWe68PyGxgjb0WS+Af6deKUV8Wdy0Ys6WMLE4VadmVVoz64npPGqfrUeq7N1adXUeLFked2RG/oF5bGYm9JGYt7K/jZDYCG8V2JLON4Or+sfD3ZY6Cj9XtwXUbhQFcr1mwGMmzzqQoM0TwuMuO6D5hX9HmTI8zjVke94iP5zn08syCQ1y20JjaOoi+TI+Cj+c5jORZ799b9/LR1+sHW0sRtcVYimS+TFksUf+1tPLcGj/60KZqqE/jW8piifp7jMTsyZ7njVVn10cpdmToAVET/ZFLbaP91sD+WNak9NogsxljjHksysyIFTMg8AMNsyZ4zceSj5Xwx5v+mIuivwdjULj43b//rqyD7LEUzvIYGfcotD6L5rEm+ntozEg8GI27d2qfvff56I9xtTaW0WfMnmT3/pGWf+3vglp8tLfGiGhsrV8WM9LvGjBmSwrbMSaqhfprsVlMr1+0ZTGgNU6tzz2w6ox762LHVheJ0epR74uDvxaT2aONbY5DXUM2RqvdiwWZbQRX94+Fvy9zFGrHKq8RtWtFzVeLVzI/+430vxmfXgsA5ZGPk+I1usbIOeGrf/vq/PjI7/7jd2U2BdB8cD3aoiK0cYl9xzYysA+41ygFkIVsvBrcvvZZ0/9ahvJc2bdsPdqiIrSpL4vLGI0DiKXImv7X0jpvKL22Qh+WmYi21a7U7Edj7fFsLqOXZ9y7U9rOqNlB5huNx3ottjdGHIfL2K8WC2rraxg5nnuM7kf0oZ31jXZQiwW1dRDbZMSOdepatshzjVVnm1sWO3ihmHmCbH15vS935Ivf4uCIZGOu2U+0o4wx5gjE64O2ez4qI/PVbPcCZ1mwAMB3W0DlEY/FPlr0UPi5z/q3r0oBguINi+aC69GWxZDMh8+TvnwU7+XA4zMyyyOOV2Nku7cA226JZOvRVosHLd8Io3223u5WxP2gIrRpDKV2RdtxvaZngJ/zWT7vTEbu3bOYLD6LI+rLVCOLzURaNq6TGAdoy3zXEMftScn8Ko0h0Q+0XbMT2qIv2lX0k+hv6d5Ydaa5ZbGDbHFyjNWjP377kn5Z1qt+/4cPp0ytY88qndkef1/mKNSO1Xh90Hbr2kFfLQb2OFYt9h5AcSMrDLzh9F6L+FJPZeScgOs9Hy0pxY4fXvvEfHGpUltEbVznC0cLp/0v7+VI/lpMNuYI2Xb3ZvTcy/2p7aP6VWqLqC3z97ikD7h2u5fga9wcennm9z3re39UYp79W+Yy9XCe1+kefzOuOtM8SrHDGGPM4xGvD9puXTvow7I2htpjzN2AAsA/fyqzNxQUA1D4yIof3aJIgn5+9NViR7neL/uheaNIXNc2aLV/8z9+c56Z0oqrrYPYVtbE7k1tX9SuNorEdW2DVru2Di6Ji6yJNY8Dvmd+1/7OjTEzWHWmeZRih6v7c3Cej4W/L3MUaseqXh/0pppkNhD7KWz3Yqib8Wm51oa/PsL3WMB+1tKOxY1yjV76R1rnBH5WLHmNR7GDxRPNhcZmS4D1zA5iHGej9OJIK07J7LXYLRnNM+mt15YA65kdxDiyRZyS2WuxW+Jr3BxGjmcy43t/VHw8z8F5nsOeeV51lhktWnhmhzHGmNng+qDKyHzaVn+0E11XavYZxEJHeZQlvMeikBRF+ALTNeCzUrxJQbED46AYobngui4zEV0HNd8WcQS2mv2WcL90P3rrusxEdB3UfFvEEdhqdvP4jBwjxhizJavOMo9S7HCVbg7O87Hw92WOQu1YXXN90NjaDXgtJsaTmn1vUFzQYgWKHPFRljecCh7nQgjayXW6d07g5y1xyxil2HF6CWrMF8W2LkFtHewZB9CONlKzb8lonom24zrFti5BbR3sGQfQjjZSs2+Jr3FzaJ2fM5nL8PE8B+d5DnvmedVZ5hlnduBlKz1qMZl9jW1Uo2TxWf81YxpjzL3Quj5En7YzH0WymEhm251QqMBjJPEanIHiiBZEymyP5EWfLZgjbB99UexA4QXFFs0F42iLbVBbB3vGgdhWWr5ZYB90P1rrGhvboLYO9owDsa20fEfgVvt/6XZvsb/ZNmG7Ve4eFd7D6zJTRs3eYqRPFkMbltGf2UAtLpMS21uQjZltW1E/16OIroMYRymZX/WsrDrD3LLYwROi6lLWVI96B0frAIp2xvakaJvrmQ1gvaVIZiMt3yiuhh4Lf1/mKNSO1d51oXb9yPqNxqhuAa63KHAAPJrC9S5JkSS+y6N1TtDPi5eGsi/3gX6NY57UF20gaxNdB4ylyJq4nm9vRvOc7QttMY6KbdpA1ia6DhhLkTVxPd/e9K5x1+zDjP3PuHS77LfHfmd5bm3nVrk7OtXr4On+Xe/j43p2j0+7aoReXM0/0k9jRsbJ1mv9Rmmen5ex14roOom2LEbp+ZU1sbegd36+hlVnmFsWO/YGB8EaEV2PRB/buoy2iNoZH5VRsysao+NlMsYYc5/gGss/y7pmdgb/TCzguzZGiD9OMJMDszpA2Y9lf2JM9oNGbSPxs7n1PvRyBkbypraR+Nk8wj7c6jNssd17yL/ZDt6zx3v32v18Zs/iavRi6a9tA0sqtmtStM11jVXtycg21J/FjtpILb6mZ2XVGe5Rih1rqke9g4N+PZgyjcRQira5ntkI2tEGor21ru1r2LNKZ7bH35c5Cj5W34LZFLjODs/qOFGuzaf3dqBvvHZnec5+GPGRGBQ8oK//59eH/xE2c9ujeSbwqa5lizEuZea2W+eNa/fjVjm8x+/f5+c51PLMe3hd6n0922tVY8Sny6gevZjWeL2+I/TyTFptrKsyG7WGNfFrx57NnueNVWe4Ryl21NCDrSYlsylZfA/GcGwqs1Ek81GRzBfjsn7GGGP2BcWL8qJPzrY4FSRaIHbtOzf05uKSd3aQ+ILUMu7APhtzD+iP/eyHP23Rl/XDMsYB2jM/25kP0K4iug5iG8Q+YKSfOTbxHh9kthFafThmlPoyavZIL079MXZ0G5fC8bGsSclsGVl/talI5qvp2Vh1dnuUYkevelQ7ENQeD5qsT81WU4bauZ7ZMlo+EMep6VL2rNKZ7fH3ZY7CQx6rn14LFrheYpYF/6qJ2i4tRqSEd3ZkOR3NM675OqvkmsLJM+Jz7xxqeW798K+tg+hr9VvbJtEHWrGR0dis76X4eJ5DK8/ZvTxUI4uNqtHygZpfx75EJPPVdAnXHs/cbtwPbUeR2jrJbErPf0/sed5YdXZ7lGLHCPEAqbXV3usDMhtYY6/FEvhH+rVi1JfFGWOM2Ybynosf/9F8Z0Z5VGWJ0RkU18DxCqHwsRbuP8keiTHmXmn98B8tEKzxgS37UjWymBjf6m+OSe3e/ZJ7+laf3njwt9RiNIbE2F7fa8m2HZeg5QOxTbIxWiCm1WdkjEdk1dntUYodI9Wj1sGitA6krB9sLUXUFmMpkvkyZbFE/dfi6v6x8PdljsIjHau4XpZCQXjsA8WI7FEQzPbAC0GvhTNHQJmZkYw5nOdQLEFBZvRlp8bn3lnU8tz64T9aIFjjA1v2pSLRXlsHWf9L8fE8h+rxLPf2LZHMl6lGz1fzq70XU/OD2jgjfUdoHc+t7bV8AOuZFG1HH8nsHIui7Z7Z87yx6uz2KMWOUfQgqdHyZ75L4qO9NUZEY2v9spiRfsYYYy6nFBnk8Q8UDdDGRR8FkLJcrp/xmlorTqwB45eCysIWxYk3f9nl9PiNMUcg+6EPW68goO2er9dWerGxzaXaQavdizWPRXYfH+/341LJbKTlUxAXYzMbyWIzaOdY2tblHujYte1iGW2Rnl3HiES7xsbls7Lq7PYoxY5e9YgHih4ktQOlZgeZbzQe67XY3hhxHC5jv1osqK2vYc8qndkef1/mKDzKsVqujafZG+dHWcL1sxRAfv7pXXFDZ2ZcguZQ90NZk2cdY4tizDPhc+8cannGD/3sx39WAKA9+mNs1lYpI23tp/64nrVVJK5r+1p8PM+hlefa/X3NDnSd9PygZifwxxja1F5bV6KdY9AelyS211A9b8iY2XpcAl1XWvZsHEXtGg9q6/fInueNVWe3Ryl2ZPAAaR0MWUwWn8UR9WWqkcVmIi0b10mMA7RlPmOMMdfxZvbDp+U6mTzKomQFhPLS0tPsjDWgz3lGCba9wTWaM0XwuTDeu6KNMXdM/LG/5Y//rdl63+75s5p1xHv22n18yxalZP6elJZN1aIV0/NtCceL46qdIpkvE2OUGEORuB79ILM9A09Z7IjVoz9++/LmwLDe6vd/+HDK1Dpc3T8W/r7MUXiEY7VcFzkT4r/GZkK8e9yERZKVYFscp7XtNXnm4zd+fGU9PvfOoZdn/dF/LwWAuB9ob7lve3xOH89ziHn2b5m2tvotc/Q8X5qHvdnzvLHqLPcoxQ5jjDHmZoTZFGVWxOCfatUiCbjk/Rg6BooU3VkYiJVtpozEGHPnbF1M2ALu0z3umzHG3DtPWexw1XkOzvOx8PdljsLhj9VPb6+LsYDRQmdlkDX9021XQJ6xLRRjLplBYsbwuXcOzvMcnOc5OM9zcJ7nsGeePbPDGGOMmQjebaHFgzUzO1B8iDM5Wo+iRHQmCK7V53d3BMo+LtfuEvspeYTGGGOMMebO8cwOsxvO87Hw92WOwr0dq+XFnP/6WAoHENZbxYtY7FjzKAriEB8p19mB2R2lsLJsH5RZIuF6jf3m53iT5zAjxGyHz71zcJ7n4DzPwXmeg/M8hz3z7JkdxhhjzAXgWofrWylwfPxYigil8LGso6jQmrHx5sK+opCAbbG4ogWSoYLJsh3dbllngWRZovihxRCCNvZvtCBjjDHmPuGLKpXYBpmtRi92dJvG7IFndpjdcJ6Phb8vcxTu4VhFYaA8OsJiQUIpEvz4j3QmBosWJHs8JcLxwHnmhRQretdaXJv5uAvGwhigFGeWvvExFYyPmBLX+JzmOnzunYPzPAfneQ61PLOwUFMks5GWjzCmN86I7hEfz3PYM8+e2WGMMcasAD/+43UOhQIom8lRZmGEggfiWLggJa5S8DgXOk5FB9wYlMdQpEBRZmU0Hp8p8af9xnbwOXB9frfNZRuILeNJQcYYY8xxGCkgaIwWHjJFoq0Vo77MZsxeeGaH2Q3n+Vj4+zJH4ZbHKgoDWmAoRYjlGofiAHwoEGRFh/KYSSh4xLEAZ1nAR5XxT7MwwHmGRpjNkW1DKXk7FUuwjxxD4faxDZ8T5uA8z8F5noPzPIdWnlFEyAoJ0d5a13ak5Y/jkJH1e8TH8xz2zLNndhhjjDEDxNkY+iiIwlkYcVaEzqwg6P9u9sSnL4WLUgzRggQKHNiHk037lyJIsj+A+1QD28G1GsUVY4wxxwTFg5oimS/Gtdrsq1J7JMYYMwPP7DC74TwfC39f5ijc6lhFIeF8fWPRoUFWyChFEJ31cRonzvDIwLa10AF0dkgpxlSut2WWSDLrg0WQbJaHzwlzcJ7n4DzPwXmew2iee0UF9bMYkekaamNsMfbe+Hiew5559swOY4wxZoByMT4VBFBgKAWCDrG4EWeHFJYxMVYpeizXTy2QIP78KEvlsZNzEWPx1a63GPfN/so23xRfjDHGHJ5WgUFpxagvrvekcboepT5j9sAzO8xuOM/Hwt+XOQo3OVZDIUFnVDRBv1DceFOgEFB0wGwQxOMzvvzwUrZZYkORg2Afzo+eNIodgDNTWDyJ1+qIzwlzcJ7n4DzPwXmeQy3PWkhoKYsl6u8xEnNkfDzPYc88e2aHMcYY0yMUErJHVGq8KUicKGNVChhrKDM2ln0pdIodKKbghiIrtBhjjHlMskJGJIvp9Yu2LAa0xqn1MWYrPLPD7IbzfCz8fZmjcJNjNRQSULxYUzSIxRGsn4sUV4BHUc7v7NhoTOJzwhyc5zk4z3NwnufQyjMKCFmBIdpBLRbU1kFskxE71ql7x8fzHPbMs2d2GGOMeS4+vT5KwndWoEDQelSksPj0Yry2sJC9q2OL92WUfTrtNz5DnEFijDHmOYgFhKyooO2andAWfdGuop9Ef0vG7IFndpjdcJ6Phb8vcxQuPlY/nV7KuVyTUBTAtQpFCyz5HotWsaBcy1gQCcWPEXQWBrh2Jgb2W/tvUTxRfE6Yg/M8B+d5Ds7zHGKe//jtS1pAOIp+/4cPp09yX/h4nsOeefbMDmOMMQ8PCgsoBvReKgp/mYHBooaAwoJe31YXF5Yx4/XwTQFlBbHQsfUjLMYYY4wxR8czO8xuOM/Hwt+XOQprj9VzIUCKCrDhsY9S/IjFhqUd40EpMPx8XYEB8XqNXPvuD8BHcJRageYafE6Yg/M8B+d5Ds7zHJznOTjPc9gzz9OKHfgQ/CD3sKTY9nKfJcW2l/e9pNj20st7XKpoqy0x8+LDn1+nx5aCwMKHbz+UosN3f/muFA2++dM3r4+xnPwsHCAOSx0P1zNeCxFXrm8/9PeDy7g/aH/z529Ku9bv+799Xwor2B9s77v//K7Y9fPAX+t/zZJi28t9lhTbXu6zpNj2cp8lxbaX+ywptr3cZ0mx7eV+yz3wzA6zG87zsfD3ZY7CmmMVRQ0UAkh5b0a4RoEyWyLO0vh0KijIjIn43g2sx1kWPeI+VT8PCi0/vJR9KDNCwiM4KJTg+pp9ni3wOWEOzvMcnOc5OM9zcJ7n4DzPYc88u9hhdsN5Phb+vsxRGD1WSzHgNPsB1AodBAUIjQewvSmCoAASrmmlLQWRHvGvpmCbWvxQsn3G5zrPRFmx3bX4nDAH53kOzvMcnOc5OM9zcJ7nsGee/YJSY4wxD0ksKpSLaac4gOtXnOGBMXRWxbWzO2IRJo7/hlNxBcWQsp1l39CuxhtjjDEn8JdORsjiRvsS/mUV6hpi/9546r922+ax8MwOsxvO87Hw92WOwuix+qYokczIqPGu+IC+OosiGavMzvh1/C+z6GdoFjsWULTB+CWuMTNla3xOmIPzPAfneQ7O8xxG8zz6wz+Liza0e9qCbKzW2DG+FbsWH89z2DPPntlhjDHmIdFHQN49jtIhFi/KrAqZvVFmjSw6w4LIIOXCfiqe9IodxhhjTA/+6B+RUvNz2WIkZi26/ZaIroPYBpnNPAee2WF2w3k+Fv6+zFEYPVa12AHWHOPxURMQCyDvCiLLtoYeZ/n0dl/Ky0fDdfMe8DlhDs7zHJznOTjPcxjJM4sCvR/60c92rx8YiVlLtj9URhZPWv1G8PE8hz3z7Jkdxhhj7p4yM+Pnn0qBgSqFBT5akoAZEzr7IhYnepRiicy4iLND0MaYyrsZHwmlKCLjlIt843MYY4wxa+AP/N6P/czX6ktbT5eS9W+NW4vnMutjngvP7DC74TwfC39f5h7B9QTXEBQVsI4CA45VLFGIgK82m6IUFcQXix9d8GhKuH7FgkkpbizjKmU7wXZmGbMUOk7FjVhAuSd8TpiD8zwH53kOzvMcennWH/y6jLAgkMW1bCS2gfa7VITr0Q5oq9m3wMfzHPbMs2d2GGOMuUtQMOjN3gDlfRpZwWDppxfQSwoLcXZH2VYormBMjK2gCIJrX7keLvtxLs5gJoh8nrWzTYwxxpgW+kO/tg6ydq9v1ieS2UbIthFtLR/AuraN8cwOsxvO87Hw92Xuhk+vRQAtMgBcW1BE+P6v378rgJQZFsmsjVhMWF1cwL7oNSy2T6DgEa992A4KI4jHdstsD9lvtONnvCd8TpiD8zwH53kOzvMcanmOP/R7bWUk9pKYtbC/jpPZCGwU25HMNoKP5znsmWfP7DDGGHM/nAodOlMCRQxcCFE44CMiuK6U4oGQzbBAMUHjLp7dIde1rLABuH9dls+IMbLijDHGGHMJ+mO/Jvojl9pG+62B/bGsSem1QWYzz4FndpjdcJ6Phb8vcw/EggWLGwqPVdh1ZkRayPj0/theO7sDsehDYgFFga8UYlDIkFkcAOOgH/xZseTe8DlhDs7zHJznOTjPcxjNc+9HPvy1mJGiAdsch7qGbIxWuxcLMtsIPp7nsGeePbPDGGPMXRCLCGVGhRQzMnB90cJFud6EIkMcB9eotbM79ELcnR2ybJ9FjZcfXs5CwaT3eYwxxpitaP3Ih6/n73FpEaFFNuaa/UQ7yjwvntlhdsN5Phb+vsxN+fT2WlEKA5XZD3qsviuQhJkhhTA2WDu74824yXiPiM8Jc3Ce5+A8z8F5nkPM8x+/fUl/5Fuv+v0fPpwytQ4fz3PYM8+e2WGMMebm6KMi3ZkTAb1IovCRzZ6IszvK9lZcm968APVJih3GGGOMMUfGMzvMbjjPx8Lfl7k1KHDg+tGbdRGP1XKN+fS6XooSMtND0TiAuNGXhL6ZQeKZHWZDnOc5OM9zcJ7n4DzPwXmew5559swOY4wx98Gn1wvemlkdoBRHTo+Y1GZ2AFybMMNDSR97SdCZIYjnLBRjjDHGGHOfeGaH2Q3n+Vj4+zJbgpkZKDygKEChYNArLJTrh8y+yIjHammf+vSKF+/8S79SXOlsUwsqKHrEoskj4nPCHJznOTjPc3Ce5+A8z8F5nsOeefbMjgZ4oc0IWdxoX8IX6FDXEPv3xlP/tds2xjw5p+IBigMoCqBAQOHaUIoeA8WFNehFslxvWmMvPuzDm5iT7U0RRHjzvo6FErvi5abGmOPw1VftW2P4R5TFZjbKmL0YubevxUQ72iNSMhvIbD1q40cuGftaWtvkfvc0Shaf9V87ZovRbd4bT1nsGK0ejX6BWVx2MPS0BdlYrbFjfCt2La6GHgt/X+ZaSjFjOd/XigYE/hJ3YcFAj9XyolEUL04MHccseCgnG2efsDiDwowWOmh7BnxOmIPzPIfRPPcKDyOFiSyGtpbvEfDxPIc1ee7d28ffAkq0j/xOyGLiNmrjMK6mSGYjLd8oWZ51f0ZUo+drKZLZSMtHGNMbZ0SXsOd5Y9XZ9VGKHRnZl1WTUvNz2WIkZi26/ZaIroPYBpnNGGOUrAgAG2dFZIUNxF87Q6KMf3pxKAoUo4WIc5FEZ3gslEdUljEovZ7V+hhjjgsKDSPKqNkzGKtjqoy5Ft7jj4roeiT6en0zf081Wj6iMTpmpr3g2K3t0NdTRs2uaIyOlykSba0Y9WW2e+Qpix0j1SN8cVSL6Ge71w+MxKwl2x8qI4snrX4juLp/LPx9mUuJsytAmSXxz59e/+IJ3t2xXAey91wgZm3BQ4/V0v80k6RsS2ZhdDnN5ojXrAzEPFuhw+eEOTjPc6jlORYassKD2lic6CmLpU2XQNePjo/nOazJc+9enn7e99fEGC4zmy4zWj6CmCwu2lvr2r6GVp7jdrg+sv2eH9TGifbWurYjLX8ch4ysX8Ke541VZ9dHntmh8AvDsvXlZb5WX9p6upSsf2vcWjyXWR9jjIlowQGUv1ySFBDSgsGp4HBpEUEvkBhn9UyRZbvY36zogbEw06NWqDHGHJ9YaMgKD6O2iMaMbMeYa+H9e0tKZlOyeC7Vp221R1o+wHEyRTJfjMv6XYtudw/1thHJfDGu1WZfldojMebeWXWmfZRiR696FL/A2hcJO8U2adlIbAPtd6kI16Md0Fazb8GeVTqzPf6+zCXEWR2YXcE/0ZpxjpfiRhyjB4/VN/1QNLniWlMegfn5pzL2yw+vOhc5LizEHB2fE+bgPM+hlmcUHUak9Noki2vpEfDxPIdenmv38mrnPT9tWZ9o03ZcZ1uXo6rR8gH163hRl9LKc2vcmu+SPqD3GdSP9ZquoTbGFmPved5YdWZ9lGJHC/2yausga/f6Zn0imW2EbBvR1vIBrGvbGGN6oLDBd2aAcr7vFAey4oa+e2MUfWwF1x3PvjDGrCUWGbKiQxbTEun5lNg25lriPX2trfY1fWI/9WXEPi1qsdHWilFfFnctGLOljCxOFWnZlVaM+uJ6Txqn61HquzdWnVkfpdhRre6HL6jXVkZiL4lZC/vrOJmNwEaxHclsI7i6fyz8fZlLQIHhPJPj0/hxFIskYKRQArgNFExQOAHxZaIpy9iMN318TpiD8zyHWp5Hig69QsRIoQIxPT0CPp7nMJJnvX9v3ctHX6sf2hTbXEZbpOcHHKenLJao/1paeW6NH31oUzXUp/EtZbFE/T1GYvZkz/PGqjProxQ7MvSAqIn+yKW20X5rYH8sa1J6bZDZjDEGlGLH6ZxfZmysON/HAsWav6YSCyu9CyVmgGDf4iM05nJaP87o0x9yUfT30JiReDAadwRan4U+LGuiv4fGjMSD0bh7Jn6G7DPF3IwoEm3azuKN2YLs3j/S8kdfNp62Mz9o9ekRx8/IYkb6XQPGbElhO8ZEtVB/LTaL6fWLtiwGtMap9bkHVp1db13s4AXk2ovCaPWo98XBX4vJ7NHGNsehriEbo9XuxYLMNsKeVTqzPf6+zCVosQOsOo4+vb8+xPEysA2dGcIiiV4jeJ3AWNjG7/7jd0XoV3vcJbu2ZGOCLBZk9lrsvTPyXdZykq1HW1SENvVlcRmjcQCxFFnT/1qc5znU8qz71VKLnh/EGB2begTWHs/mMnp5xr07pe2Mmh1EXyuWjPZp2dXH9WgHtVhQW1/DyPHcY3Q/og/trG+0g1osqK2D2CYjdqxT17JFnmusOtvcstgRT4wzTpStL6/35Y588VscHJFszDX7iXaUMeY5wLkbRQO+oBNCu/Xoh743A5R4+cssPeK7OkZnh2A7vNagP4oYel3APnz99devhY1Pn8/FDqhcVMPsDvTNrjOZTZeRzF6LPSL4LC2RbD3aavGg5RthtM/W290KbLslkq1HWy0etHwjjPbZertbMrL9XkzND3tLSmw/Kvycz/J5ZzJy757FZPFZHMhiSeyj6zVa8WxnNq6TGAdoy3zXEMftScn8Ko0h0Q+0XbMT2qIv2lX0k+hv6d5Ydaa5ZbEjcs1JMlaP/vjtS/plWa/6/R8+nDK1jj2rdGZ7/H09Lyg44PvXAgJB0QCPfsCXwQIJicWLEco1QooPvdkd2Fe9rrB/uS4sS+wPhMIG4ayO3/72t2UZQV+9rsR2RvSzj9p7Y9wzo+cEfsba51a/Sm0RtWX+Hpf0Addu9xKc58vGWIuvcXPo5Znfd+t7n3VMHJmYZ/+WuUw9nOd1usffjKvOJo9S7DDGGPMKigKlOBFmOkRiUePM0k8vUmvf2wHeze7ovLtD/WV7p/dw/OY3vynb5swSFjuw7yhyYBu4dsTrB9tqH7nGZONQZGSco5F9bl0CtVEkrmsbtNq1dXBJXGRN7N7U9kXtaqNIXNc2aLVr6+CSuMiaWPM44Hvmd73m+DDGmEtZdTa5l2LHtSfBPatH5gvO87Hw9/VcsEjw5nz9aTl/450W//ypzK5g0YDAl83aQLzGjrx3I1KuE1JwKcdjpQDz4dsP59kZKJSgLxRnckCclaLXjXgNYbsXQ5G160ejdU7g51qTg9oSYD2zgxhHtohTMnstdkuc53rslvgaN4eR45msOUbMW3w8z8F5nsOeeV51NrmHYgdOgD4JGmPM5ehsCIIiBi42WKJwgfM4YmJxIytkoF3ejXEC/cv4K8B29PGS2Fa0MILtouABWOAo+vfXQgeLMHrd0OtItBNdV0biuV4b4xHAZ6NIb12XmYiug5pvizgCW81+S7hfuh+9dV1mIroOar4t4ghsNbt5fFrHCI+NTMYYcymrziC3LnZsddJzlW4OzvOx8Pf1PJQiwK9vZ2KwYBAZfcRECxAgbqPL0levFWWGiRRQzixx3/z5m1PjLShycKZHvA7Fawfbaq+tK6PjUEemd06Iny/mgDAXtMUlqK2DPeMA2tFGavYtcZ7fx+6Br3FzqOWZ339URs1uvuDjeQ7O8xz2zPOqs8k9FDtmg5et9KjFRDtf3tKTktlAZutRGz9yydjGmGMQH0VB4SKesyPxMZWskDFaFGmBawXHLbNPkmtH3H8CO9/LkRGvH7zRVnsWE8lianGZ/ZGIn7G1rrGxDWrrYM84ENtKyzcL7IPuR2tdY2Mb1NbBnnEgtpWW7xGY8fnuPYfZ/sFWs5vL4D28LjNl1OwtRvpkMbRhGf2ZDdTiMimxvQXZmNm2FfVzPYroOohxlJL5Vc/KqrPJLYsdPCGqLmVN9ah3cLQOoGgfOdCymLiN2jiMqymS2UjLN4qrocfC39cTEGZP6GMeLXBO18JF9igLKGPH2R0D45Myrjy6kh6TmNnxpy8zOzA+toO+retC5ou2Wowqo9bv6LTOCfr5Wp8/xlGxTRvI2kTXAWMpsiau59sb5/ltey9617g992HG59t7G6PjZ3lu9c18M/J1dGrHM+/f9T4+rmf3+LSrRujF1fwj/TRmZJxsvdZvlOb5eRl7rYiuk2jLYpSeX1kTewt65+drWHU2uWWxY29wEKwR0fVI9PX6Zv6earR8RGN0zEzGmAdAih1rZ17ohQizJ7QoQd7N7sDsjB/Hz/9x1sbLD/nFj9tBgSObZWL2ZeTHSa8N1DYSP5tb70MvZ2Akb2obiZ+N9+E4OE/3D+/Z47177X4+s2dxNXqx9Ne2gSUV2zUp2ua6xqr2ZGQb6s9iR22kFl/Ts7LqrPUoxY411aPewUG/HkyZGMNlZtNlRstHEJPFRXtrXdvXsGeVzmyPv6/ngLMn1hYJynn8NGsjFjWUOG4rNlJmkCz7R2rHJOwjj9+Y68jy3/qxA5/qWrYY41Jmbtt5nkPrGnfLHByJkTy18my2o5Zn3sPrUu/r2V6rGiM+XUb16MW0xuv1HaGXZ9JqY12V2ag1rIlfO/Zs9jxvrDq7P0qxo4YebDUpmU3J4rlUn7bVHmn5AMfJFMl8MS7rZ4w5Pjgnr36fBooYp0dSULzIZnYAPlaiYFsjj7PoYyy1d3YYY8yW6A/47Md89KuUVru2DjIfljEO0K4iuk5iDGA78wHaVUpsm/sk3uODzDZCqw/HjFJfRs0e6cWpP8aObuNSOD6WNSmZLSPrrzYVyXw1PRurzliPUuzoVY9qB4La40GT9Yk2bcd1tnU5qhotH1C/jhd1Ka7uHwt/X89DKTzIuzVGKOfxU59e8SIrhpQ+nZkkWlBBf53lofhYnYPzPAfneQ61PLd+zMf1Xlup+XpxrX7aBrVYUPNhfdQHeu2Ij+c5tPKc3ctDNbLYqBotH6j5dexLRDJfTZdw7fHM7cb90HYUqa2TzKb0/PfEnueN9hkr8CjFjhHiAVJrq31Nn9hPfRmxT4tabLS1YtSXxRljngt9f4YWPmq8e0wG7wtZbLVHT8rjLovIu/7GGLMDrR/ztXXS8o+Oc6kPjPgpEuNaPtCKN/dL7d79knv6Vp/eePC31GI0hsTYXt9rybYdl6DlA7FNsjFaIKbVZ2SMR2TVGetRih0j1aPWwaK0DqTMR7HNZbRFen7AcXrKYon6r8XV/WPh78vUKI+UyKMpQ8fKqbgRiyKY4VGKHv/1S5nFgesFbFrooK2Gj9U5OM9zcJ7nUMvz6I//7Ed+yz86zqU+UPNjveVTWj7Qis/w8TyH6vEs9/YtkcyXqUbPV/OrvRdT84PaOCN9R2gdz63ttXwA65kUbUcfyewci6LtntnzvNE+YwWeaWYH0IOkRssffdl42s78oNWnRxw/I4sZ6WeMeQ5QmOBLRlGgaBUiFBZJ4gwNjIHxMA4eVdFHYrCuhRVjjNmT2g/87Ee+2rK2UvONxoHo67WJroM1vlYbxLa5f7L7+Hi/H5dKZiMtn4K4GJvZSBabQTvH0rYu90DHrm0Xy2iL9Ow6RiTaNTYun5VVZ6xnmdnBA0UPktqBUrOD6GvFktE+Lbv6uB7toBYLautrcHX/WPj7MjVQlGBBAkUKnYXRhY+vhHd4ZCAmmw0S8bE6B+d5Ds7zHGp5rv2gz37U077WH2PXxCmxj/rjehTRdZC1tY/61V7Dx/McWnmu3d/X7EDXSc8PanYCf4yhTe21dSXaOQbtcUliew3V84aMma3HJdB1pWXPxlHUrvGgtn6P7HneaJ+xAo88s4MHSOtgyGKy+CwOZLEk9tH1Gq14tjMb10mMA7RlPmPMc6EXoWymxggokrDoof1RRClFjuU6wdkjxhgzk/gDvveDfi1bj0f2GlfRbczYnrmceM9eu49v2aKUzN+T0rKpWrRier4t4XhxXLVTJPNlYowSYygS16MfZLZnYNVZ61Fndvzx25c3B4b1Vr//w4dTptaxZ5XObI+/L5MRHyu55jhBkYNFD7zwFMJ6KXJ0ZnMoPlbn4DzPwXmeQy/Pe/6o36tIsPd+ok3b6LZ8PM8h5tm/Zdra6rfM0fN8aR72Zs/zxqqz5CPP7DDGGPMefWwF5/ban4M1xpijoz/ut2Dr8SJ7jM193nvfjTFmBk9Z7HDVeQ7O87Hw92Uy9LEVFDri+T2CWH3h6B74WJ2D8zwH53kOzvMcnOc5OM9zcJ7nsGeen7LYYYwxZgC8XFTO382L0RKLYgiKI6XPisdSjDHGGGOM2RrP7DC74TwfC39fB+PT+3Pt1oz+yVk85oLzPP/iCvZr9M/TXoKP1Tk4z3NwnufgPM/BeZ6D8zwH53kOe+bZMzuMMeZglJd8LudVfcRkD+KfnGUxg+Bcj/1gQeTMp9OFy7M7jDHGmLuBL6pUYhtkthq92NFtGrMHntlhdsN5Phb+vg7Ap9fzKV8YGv9SytboMVHO46fiBQos2G55WWkoaJxneew468TH6hyc5zk4z3NwnufgPM+hlmcWFmqKZDbS8hHG9MYZ0T3i43kOe+bZMzuMMebe+fRaYABadAAjLw29BIzJR1HORZVlu3wvR3wJKWZ9YN/ezfIwxhhjzHRGCggao4WHTJFoa8WoL7MZsxee2WF2w3k+Fv6+7oxTYQHfC86hKDC8/PBS2mVGxQnOstiaUkQ5PbbC2RpQfJSFhZCyT2GWx174WJ2D8zwH53kOzvMcnOc5tPKMIkJWSIj21rq2Iy1/HIeMrN8jPp7nsGeePbPDGGPuDBYQYmEBwBftmE3BR1u2opy3T8WLdHyd5bHje0OMMcYYMwaKBzVFMl+Ma7XZV6X2SIwxZgae2WF2w3k+Fv6+7gMUMuJfMkExAcUGKCuAoPBQZndsNLOiN1sExQ+c1/d4fGYEH6tzcJ7n4DzPwXmeg/M8h9E894oK6mcxItM11MbYYuy98fE8hz3z7JkdxhhzJ2CmxJt3XpyKGDiHltkVi8psCrTDTItSJMGjJBuAsd7sxwnYs20bY4wx5n5oFRiUVoz64npPGqfrUeozZg88s8PshvN8LPx93ZZ3sylOhY70EZHTIySxIFHOtVvM7sC25bxdHqtZ2qWYssX4V+JjdQ7O8xyc5zk4z3NwnudQy7MWElrKYon6e4zEHBkfz3PYM8+e2WGMMXcAHl05nztZbOgUFlB80PMtihLxEZhLwewNjI/xyph3UOQwxhhjzDqyQkYki+n1i7YsBrTGqfUxZis8s8PshvN8LPx93ZAwk2L4kRT0C+/qqM4GuQAUOVBAuTd8rM7BeZ6D8zwH53kOzvMcWnlGASErMEQ7qMWC2jqIbTJixzp17/h4nsOeefbMDmOMuTF8+Sgp58zBmRSlrzzOUh6H8TnXGGOMeSpiASErKmi7Zie0RV+0q+gn0d+SMXvgmR1mN5znY+Hv63agWKF/ZWXtdxGLI/HxlkfDx+ocnOc5OM9zcJ7n4DzPIeb5j9++pAWEo+j3f/hw+iT3hY/nOeyZZ8/sMMaYG1OKE1LsiMWLHrFYUh5v8XnXGGOMMcY8MZ7ZYXbDeT4W/r62A+dAFDDw/gy896I8otIoXrx7jAXv3Vjxrox3f8llAQUQHfOR8LE6B+d5Ds7zHJznOTjPc3Ce5+A8z2HPPE8rduBD8IPcw5Ji28t9lhTbXt73kgJerl/i3PfNn74pBY7vf/i+FCxefngpRYcPf/5Q/LV+3/3lu9JG0QKzND58+zqlM4t/t/z0+fM3f/6mtFn0wLKce5ftg6FxDrJU0eblPkuKbS/3WVJse7nPkmLby32WFNte7rOk2PZynyXFtpf7LffAj7EYY8wGYCZF+QsqtRkci/08yyOy+OKJftV5c+mfxQ//VRdjjDHGGGMeDBc7jDHmSuJjKKD2GErt5aHxz7y+ew9HA4yHcbO/xFLatQKMMcYYY4wxD4qLHcYYcwWl0PDPL7MnUKTALA08RoJl8YViQ3nUJNiy926gDXsPFkqwL+WxmWUfiGd3GGOMMcaYZ8TFDmOMWQmKCZwxoTMysF5meEghA75YtMgKG0DHKizjZIURpRQzUFBZwH5h+/Gcu+ezkMYYY4wxxtwjLnYYY8wgOLfhfIaCAmdMsJCAokQ8951h0UJIH1NJ4kqx5LTNN0WUX38t2z/P4kDf07m2PCojY78rohhjjDHGGPPguNhhjDEjfDrNkJCCAwoTUG2mhoLz4pvHSaQ4obyLO4GiBrZPYXtvChoocJzOvXF/WJgxxhhjjDHmWXCxwxhjBsHsijLD4gRmS6CQkM7SSIgzLOJ4hI+jVJGCC8jiy3n3FFcroBhjjDHGGPOouNhhjDEr0CICGS12ZLM5svEAxiyzRhqPn3AGR1YY0XHLozCdmSfGGGOMMcY8Ei52GGPMCrJZEvoISY8SK4WR1iMmLGZgRgjiULSAUNyAHefWWjFEix2e2WGMMcYYY54NFzuMMWYlpcjw65ciQykmnP4iyghaiABlBoeMF2GxohQ4FmHWx8iMD4LiSPOxGGOMMcYYYx4MFzuMMc/Lp+V8dZpZwUICihalMJA8WkJiMQHEl5e2KMWHf30pPqBwsaZY0iO+GyQWV4wxxhhjjHl0XOwwxjwfyw//UuBYzk183waKA1R5TGTxlUc/KkWCWFCIBYweGF9nc2Bb8dx5CdgH3Q/OCjHGGGOMMeaZcLHDGPNU4PyEWRn63owaiCkzOLKCx2KL57bSHpxBEYsQZbbINedKFHA4K4VgH8MMFGOMMcYYY54BFzuMMU8DCgHlcREtSCzrKGrAV85dsVhxKiK8sy+U2RhSNCkFDMQO8m52CGZlaLFiABRJsB84z+pY50dtkv02xhhjjDHm0XGxwxjzFJTHTMKsBxQJ8K4NLFFoQPEB56t3sz6W2FrhoJzfxI44fTylxbkgsVBmkWTbVpbtlP1EcWPph3gsY59z0SXZX2OMMcYYY54BFzuMMQ9P+fH/c3hkBEWCcK4iKCiwCEHiGASFBn1HhhYwRiiFi+UcWcbuFCewDyyIlPeLhKIK2ihyjIxljDHGGGPMI+NihzHmsVl+9Os5CEWCUowYKCzE4gb6xQIDwPhqR79aISUjG7NG2Qd5XAWUIshih9Zs1xhjjDHGmEfFxQ5jzEMTH1+pFSwyYtECRYbsnRyIeWMPBZYtwb7jM3D2ycsPr4/hrCmYGGOMMcYY8+i42GGMeWjK+ec0i6NWrGih/UFsE4yrMy5QjFj7stFR8BgLH2UxxhhjjDHGvMfFDmPMocEP/tYPf7yAlJRZHvJ+jRFi0aJWxOCMC6VWGDHGGGOMMcbsi4sdxpjj8em1cIFChj7S8a6wsLT1/HNJsSOO0ZodUh57+a8v5z9sL773wxhjjDHGGLM/LnYYY6aAIsEW75VAMQHnlDK7QoobsL8rLGxR7FhAIYX7js8RZ3Cc4faWZSnALOt+l4YxxhhjjDHzcbHDGLM7KA5QlxQbCGZUvOv/6bXQwZkeb4oLi08fYymPmlxwPirFjtNjMs1ixwL2BdvUGR7GGGOMMcaYubjYYYzZFRQn9Id/fNRjlPgCUBQuMBYKC1hiO6UQ8ukUcALnHy2AlMLFytkWWuzA+W3tS06NMcYYY4wx88A9u4sdxphd0UIBuORRklIgkfMKxkPBIZ5rMkoRBI+8nECh5d3jLh3KOexURInjGWOMMcYYY+4Dzvb+6Z8/ff4/jHVeTM2iW0oAAAAASUVORK5CYII=;" parent="1" vertex="1">
          <mxGeometry x="190" y="454.69000000000005" width="730" height="165.66" as="geometry" />
        </mxCell>
        <mxCell id="_-NGtjVIes7nd89tp72T-7" value="紧急开发测试流程" style="rounded=0;whiteSpace=wrap;html=1;shadow=1;gradientColor=#b3b3b3;fillColor=#f5f5f5;strokeColor=#666666;" parent="1" vertex="1">
          <mxGeometry x="200" y="144" width="150" height="28" as="geometry" />
        </mxCell>
      </root>
    </mxGraphModel>
  </diagram>
</mxfile>
